Palanquin Regular.ufo
<glyph name="exclam" format="1">
  <advance width="229"/>
  <unicode hex="0021"/>
  <outline>
    <contour>
      <point x="159" y="702" type="line"/>
      <point x="69" y="702" type="line"/>
      <point x="86" y="223" type="line"/>
      <point x="143" y="196" type="line"/>
    </contour>
    <contour>
      <point x="168" y="84"/>
      <point x="145" y="107"/>
      <point x="114" y="107" type="curve" smooth="yes"/>
      <point x="85" y="107"/>
      <point x="59" y="84"/>
      <point x="59" y="54" type="curve" smooth="yes"/>
      <point x="59" y="23"/>
      <point x="85" y="0"/>
      <point x="114" y="0" type="curve" smooth="yes"/>
      <point x="145" y="0"/>
      <point x="168" y="23"/>
      <point x="168" y="54" type="curve" smooth="yes"/>
    </contour>
  </outline>
</glyph>
<glyph name="numbersign" format="1">
  <advance width="501"/>
  <unicode hex="0023"/>
  <outline>
    <contour>
      <point x="442" y="506" type="line"/>
      <point x="375" y="506" type="line"/>
      <point x="346" y="380" type="line"/>
      <point x="213" y="380" type="line"/>
      <point x="243" y="506" type="line"/>
      <point x="177" y="506" type="line"/>
      <point x="148" y="380" type="line"/>
      <point x="21" y="380" type="line"/>
      <point x="30" y="319" type="line"/>
      <point x="132" y="319" type="line"/>
      <point x="103" y="192" type="line"/>
      <point x="21" y="192" type="line"/>
      <point x="30" y="131" type="line"/>
      <point x="88" y="131" type="line"/>
      <point x="58" y="2" type="line"/>
      <point x="123" y="-3" type="line"/>
      <point x="154" y="131" type="line"/>
      <point x="287" y="131" type="line"/>
      <point x="257" y="2" type="line"/>
      <point x="321" y="-3" type="line"/>
      <point x="353" y="131" type="line"/>
      <point x="480" y="131" type="line"/>
      <point x="472" y="192" type="line"/>
      <point x="367" y="192" type="line"/>
      <point x="397" y="319" type="line"/>
      <point x="480" y="319" type="line"/>
      <point x="472" y="380" type="line"/>
      <point x="412" y="380" type="line"/>
    </contour>
    <contour>
      <point x="199" y="319" type="line"/>
      <point x="331" y="319" type="line"/>
      <point x="301" y="192" type="line"/>
      <point x="169" y="192" type="line"/>
    </contour>
  </outline>
</glyph>
<glyph name="dollar" format="1">
  <advance width="538"/>
  <unicode hex="0024"/>
  <outline>
    <contour>
      <point x="351" y="802" type="line"/>
      <point x="293" y="802" type="line"/>
      <point x="293" y="694" type="line"/>
      <point x="285" y="695"/>
      <point x="277" y="696"/>
      <point x="267" y="696" type="curve" smooth="yes"/>
      <point x="256" y="696"/>
      <point x="242" y="694"/>
      <point x="229" y="692" type="curve"/>
      <point x="229" y="798" type="line"/>
      <point x="172" y="802" type="line"/>
      <point x="172" y="680" type="line"/>
      <point x="96" y="654"/>
      <point x="50" y="595"/>
      <point x="50" y="524" type="curve" smooth="yes"/>
      <point x="50" y="318"/>
      <point x="410" y="308"/>
      <point x="410" y="164" type="curve" smooth="yes"/>
      <point x="410" y="99"/>
      <point x="353" y="54"/>
      <point x="247" y="54" type="curve" smooth="yes"/>
      <point x="182" y="54"/>
      <point x="116" y="77"/>
      <point x="80" y="95" type="curve"/>
      <point x="73" y="74"/>
      <point x="67" y="53"/>
      <point x="61" y="33" type="curve"/>
      <point x="77" y="19"/>
      <point x="124" y="5"/>
      <point x="172" y="-4" type="curve"/>
      <point x="172" y="-115" type="line"/>
      <point x="229" y="-115" type="line"/>
      <point x="229" y="-13" type="line"/>
      <point x="248" y="-13" type="line" smooth="yes"/>
      <point x="264" y="-13"/>
      <point x="279" y="-12"/>
      <point x="293" y="-10" type="curve"/>
      <point x="293" y="-110" type="line"/>
      <point x="313" y="-111"/>
      <point x="331" y="-113"/>
      <point x="351" y="-115" type="curve"/>
      <point x="351" y="0" type="line"/>
      <point x="438" y="27"/>
      <point x="488" y="89"/>
      <point x="488" y="166" type="curve" smooth="yes"/>
      <point x="488" y="365"/>
      <point x="127" y="377"/>
      <point x="127" y="526" type="curve" smooth="yes"/>
      <point x="127" y="590"/>
      <point x="182" y="628"/>
      <point x="269" y="628" type="curve" smooth="yes"/>
      <point x="337" y="628"/>
      <point x="378" y="609"/>
      <point x="414" y="592" type="curve"/>
      <point x="423" y="613"/>
      <point x="433" y="633"/>
      <point x="441" y="654" type="curve"/>
      <point x="416" y="665"/>
      <point x="386" y="677"/>
      <point x="351" y="684" type="curve"/>
    </contour>
  </outline>
</glyph>
<glyph name="parenright" format="1">
  <advance width="251"/>
  <unicode hex="0029"/>
  <outline>
    <contour>
      <point x="201" y="433"/>
      <point x="161" y="570"/>
      <point x="80" y="677" type="curve"/>
      <point x="16" y="653" type="line"/>
      <point x="74" y="589"/>
      <point x="123" y="418"/>
      <point x="123" y="319" type="curve"/>
      <point x="123" y="222"/>
      <point x="74" y="51"/>
      <point x="16" y="-15" type="curve"/>
      <point x="80" y="-38" type="line"/>
      <point x="162" y="72"/>
      <point x="201" y="208"/>
      <point x="201" y="320" type="curve"/>
    </contour>
  </outline>
</glyph>
<glyph name="comma" format="1">
  <advance width="152"/>
  <unicode hex="002C"/>
  <outline>
    <contour>
      <point x="137" y="83"/>
      <point x="113" y="107"/>
      <point x="82" y="107" type="curve"/>
      <point x="53" y="107"/>
      <point x="28" y="82"/>
      <point x="28" y="54" type="curve"/>
      <point x="28" y="27"/>
      <point x="50" y="2"/>
      <point x="74" y="1" type="curve"/>
      <point x="70" y="-37"/>
      <point x="47" y="-59"/>
      <point x="14" y="-82" type="curve"/>
      <point x="35" y="-120" type="line"/>
      <point x="93" y="-90"/>
      <point x="137" y="-20"/>
      <point x="137" y="45" type="curve"/>
    </contour>
  </outline>
</glyph>
<glyph name="hyphen" format="1">
  <advance width="292"/>
  <unicode hex="002D"/>
  <outline>
    <contour>
      <point x="276" y="242" type="line"/>
      <point x="267" y="305" type="line"/>
      <point x="16" y="305" type="line"/>
      <point x="25" y="242" type="line"/>
    </contour>
  </outline>
</glyph>
<glyph name="period" format="1">
  <advance width="137"/>
  <unicode hex="002E"/>
  <outline>
    <contour>
      <point x="122" y="84"/>
      <point x="99" y="107"/>
      <point x="69" y="107" type="curve"/>
      <point x="38" y="107"/>
      <point x="14" y="84"/>
      <point x="14" y="54" type="curve"/>
      <point x="14" y="23"/>
      <point x="38" y="0"/>
      <point x="69" y="0" type="curve"/>
      <point x="99" y="0"/>
      <point x="122" y="23"/>
      <point x="122" y="54" type="curve"/>
    </contour>
  </outline>
</glyph>
<glyph name="one" format="1">
  <advance width="396"/>
  <unicode hex="0031"/>
  <outline>
    <contour>
      <point x="343" y="0" type="line"/>
      <point x="341" y="20"/>
      <point x="338" y="39"/>
      <point x="335" y="60" type="curve"/>
      <point x="250" y="60" type="line"/>
      <point x="250" y="566" type="line"/>
      <point x="197" y="566" type="line"/>
      <point x="64" y="479" type="line"/>
      <point x="76" y="461"/>
      <point x="88" y="443"/>
      <point x="101" y="425" type="curve"/>
      <point x="124" y="440"/>
      <point x="147" y="455"/>
      <point x="170" y="471" type="curve"/>
      <point x="170" y="60" type="line"/>
      <point x="63" y="60" type="line"/>
      <point x="72" y="0" type="line"/>
    </contour>
  </outline>
</glyph>
<glyph name="three" format="1">
  <advance width="517"/>
  <unicode hex="0033"/>
  <outline>
    <contour>
      <point x="442" y="501"/>
      <point x="376" y="579"/>
      <point x="240" y="579" type="curve"/>
      <point x="160" y="579"/>
      <point x="97" y="553"/>
      <point x="41" y="517" type="curve"/>
      <point x="80" y="465" type="line"/>
      <point x="113" y="487"/>
      <point x="167" y="514"/>
      <point x="237" y="514" type="curve"/>
      <point x="315" y="514"/>
      <point x="363" y="467"/>
      <point x="363" y="413" type="curve"/>
      <point x="363" y="342"/>
      <point x="301" y="297"/>
      <point x="196" y="297" type="curve"/>
      <point x="154" y="297" type="line"/>
      <point x="166" y="238" type="line"/>
      <point x="190" y="238" type="line" smooth="yes"/>
      <point x="321" y="238"/>
      <point x="375" y="188"/>
      <point x="375" y="108" type="curve"/>
      <point x="375" y="32"/>
      <point x="303" y="-12"/>
      <point x="228" y="-12" type="curve"/>
      <point x="158" y="-12"/>
      <point x="118" y="4"/>
      <point x="70" y="33" type="curve"/>
      <point x="28" y="-21" type="line"/>
      <point x="78" y="-48"/>
      <point x="151" y="-76"/>
      <point x="225" y="-76" type="curve"/>
      <point x="366" y="-76"/>
      <point x="454" y="5"/>
      <point x="454" y="110" type="curve"/>
      <point x="454" y="192"/>
      <point x="402" y="253"/>
      <point x="336" y="269" type="curve"/>
      <point x="393" y="288"/>
      <point x="442" y="344"/>
      <point x="442" y="414" type="curve"/>
    </contour>
  </outline>
</glyph>
<glyph name="five" format="1">
  <advance width="538"/>
  <unicode hex="0035"/>
  <outline>
    <contour>
      <point x="85" y="224" type="line"/>
      <point x="161" y="224" type="line"/>
      <point x="179" y="243"/>
      <point x="220" y="272"/>
      <point x="272" y="272" type="curve"/>
      <point x="348" y="272"/>
      <point x="401" y="223"/>
      <point x="401" y="134" type="curve"/>
      <point x="401" y="44"/>
      <point x="340" y="-11"/>
      <point x="249" y="-11" type="curve"/>
      <point x="179" y="-11"/>
      <point x="139" y="6"/>
      <point x="90" y="34" type="curve"/>
      <point x="49" y="-22" type="line"/>
      <point x="99" y="-48"/>
      <point x="171" y="-76"/>
      <point x="245" y="-76" type="curve"/>
      <point x="397" y="-76"/>
      <point x="480" y="18"/>
      <point x="480" y="134" type="curve"/>
      <point x="479" y="244"/>
      <point x="417" y="337"/>
      <point x="268" y="337" type="curve"/>
      <point x="233" y="337"/>
      <point x="196" y="325"/>
      <point x="164" y="305" type="curve"/>
      <point x="173" y="501" type="line"/>
      <point x="432" y="501" type="line"/>
      <point x="442" y="566" type="line"/>
      <point x="101" y="566" type="line"/>
    </contour>
  </outline>
</glyph>
<glyph name="six" format="1">
  <advance width="545"/>
  <unicode hex="0036"/>
  <outline>
    <contour>
      <point x="416" y="-13"/>
      <point x="497" y="86"/>
      <point x="497" y="193" type="curve"/>
      <point x="497" y="297"/>
      <point x="419" y="392"/>
      <point x="293" y="392" type="curve"/>
      <point x="237" y="392"/>
      <point x="183" y="364"/>
      <point x="147" y="332" type="curve"/>
      <point x="173" y="448"/>
      <point x="264" y="557"/>
      <point x="383" y="585" type="curve"/>
      <point x="350" y="634" type="line"/>
      <point x="177" y="599"/>
      <point x="59" y="409"/>
      <point x="59" y="261" type="curve"/>
      <point x="59" y="82"/>
      <point x="156" y="-13"/>
      <point x="295" y="-13" type="curve"/>
    </contour>
    <contour>
      <point x="373" y="331"/>
      <point x="422" y="262"/>
      <point x="422" y="188" type="curve"/>
      <point x="422" y="118"/>
      <point x="371" y="53"/>
      <point x="292" y="53" type="curve"/>
      <point x="191" y="53"/>
      <point x="142" y="128"/>
      <point x="138" y="242" type="curve"/>
      <point x="164" y="288"/>
      <point x="220" y="331"/>
      <point x="292" y="331" type="curve"/>
    </contour>
  </outline>
</glyph>
<glyph name="seven" format="1">
  <advance width="488"/>
  <unicode hex="0037"/>
  <outline>
    <contour>
      <point x="58" y="-45" type="line"/>
      <point x="133" y="-69" type="line"/>
      <point x="460" y="531" type="line"/>
      <point x="434" y="566" type="line"/>
      <point x="49" y="566" type="line"/>
      <point x="59" y="501" type="line"/>
      <point x="363" y="501" type="line"/>
    </contour>
  </outline>
</glyph>
<glyph name="eight" format="1">
  <advance width="556"/>
  <unicode hex="0038"/>
  <outline>
    <contour>
      <point x="424" y="-13"/>
      <point x="503" y="73"/>
      <point x="503" y="173" type="curve"/>
      <point x="503" y="253"/>
      <point x="440" y="322"/>
      <point x="373" y="339" type="curve"/>
      <point x="426" y="363"/>
      <point x="476" y="412"/>
      <point x="476" y="478" type="curve"/>
      <point x="476" y="565"/>
      <point x="407" y="643"/>
      <point x="278" y="643" type="curve"/>
      <point x="150" y="643"/>
      <point x="79" y="565"/>
      <point x="79" y="478" type="curve"/>
      <point x="79" y="413"/>
      <point x="124" y="363"/>
      <point x="183" y="339" type="curve"/>
      <point x="112" y="321"/>
      <point x="52" y="244"/>
      <point x="52" y="173" type="curve"/>
      <point x="52" y="71"/>
      <point x="130" y="-13"/>
      <point x="278" y="-13" type="curve"/>
    </contour>
    <contour>
      <point x="195" y="51"/>
      <point x="129" y="99"/>
      <point x="129" y="171" type="curve"/>
      <point x="129" y="240"/>
      <point x="178" y="295"/>
      <point x="278" y="309" type="curve"/>
      <point x="376" y="295"/>
      <point x="426" y="240"/>
      <point x="426" y="171" type="curve"/>
      <point x="426" y="98"/>
      <point x="358" y="51"/>
      <point x="278" y="51" type="curve"/>
    </contour>
    <contour>
      <point x="199" y="378"/>
      <point x="155" y="423"/>
      <point x="156" y="476" type="curve"/>
      <point x="156" y="530"/>
      <point x="196" y="579"/>
      <point x="275" y="579" type="curve"/>
      <point x="359" y="579"/>
      <point x="400" y="531"/>
      <point x="400" y="476" type="curve"/>
      <point x="400" y="424"/>
      <point x="356" y="378"/>
      <point x="278" y="366" type="curve"/>
    </contour>
  </outline>
</glyph>
<glyph name="semicolon" format="1">
  <advance width="154"/>
  <unicode hex="003B"/>
  <outline>
    <contour>
      <point x="138" y="431"/>
      <point x="114" y="457"/>
      <point x="84" y="457" type="curve"/>
      <point x="53" y="457"/>
      <point x="29" y="431"/>
      <point x="29" y="402" type="curve"/>
      <point x="29" y="372"/>
      <point x="53" y="348"/>
      <point x="84" y="348" type="curve"/>
      <point x="114" y="348"/>
      <point x="138" y="372"/>
      <point x="138" y="402" type="curve"/>
    </contour>
    <contour>
      <point x="137" y="110"/>
      <point x="113" y="135"/>
      <point x="82" y="135" type="curve"/>
      <point x="53" y="135"/>
      <point x="28" y="110"/>
      <point x="28" y="81" type="curve"/>
      <point x="28" y="53"/>
      <point x="50" y="30"/>
      <point x="74" y="28" type="curve"/>
      <point x="70" y="-9"/>
      <point x="47" y="-32"/>
      <point x="14" y="-55" type="curve"/>
      <point x="35" y="-93" type="line"/>
      <point x="93" y="-64"/>
      <point x="137" y="8"/>
      <point x="137" y="71" type="curve"/>
    </contour>
  </outline>
</glyph>
<glyph name="greater" format="1">
  <advance width="321"/>
  <unicode hex="003E"/>
  <outline>
    <contour>
      <point x="310" y="219" type="line"/>
      <point x="310" y="270" type="line"/>
      <point x="54" y="470" type="line"/>
      <point x="31" y="410" type="line"/>
      <point x="99" y="355"/>
      <point x="167" y="299"/>
      <point x="235" y="245" type="curve"/>
      <point x="31" y="79" type="line"/>
      <point x="54" y="19" type="line"/>
    </contour>
  </outline>
</glyph>
<glyph name="F" format="1">
  <advance width="486"/>
  <unicode hex="0046"/>
  <outline>
    <contour>
      <point x="373" y="313" type="line"/>
      <point x="363" y="372" type="line"/>
      <point x="178" y="372" type="line"/>
      <point x="178" y="621" type="line"/>
      <point x="468" y="621" type="line"/>
      <point x="458" y="680" type="line"/>
      <point x="100" y="680" type="line"/>
      <point x="100" y="0" type="line"/>
      <point x="178" y="0" type="line"/>
      <point x="178" y="313" type="line"/>
    </contour>
  </outline>
</glyph>
<glyph name="G" format="1">
  <advance width="657"/>
  <unicode hex="0047"/>
  <outline>
    <contour>
      <point x="362" y="349" type="line"/>
      <point x="359" y="330"/>
      <point x="357" y="310"/>
      <point x="355" y="290" type="curve"/>
      <point x="505" y="290" type="line"/>
      <point x="505" y="74" type="line"/>
      <point x="474" y="64"/>
      <point x="436" y="54"/>
      <point x="389" y="54" type="curve" smooth="yes"/>
      <point x="242" y="54"/>
      <point x="152" y="162"/>
      <point x="152" y="337" type="curve" smooth="yes"/>
      <point x="152" y="523"/>
      <point x="263" y="626"/>
      <point x="401" y="626" type="curve" smooth="yes"/>
      <point x="469" y="626"/>
      <point x="499" y="614"/>
      <point x="545" y="597" type="curve"/>
      <point x="570" y="655" type="line"/>
      <point x="527" y="682"/>
      <point x="440" y="694"/>
      <point x="399" y="694" type="curve" smooth="yes"/>
      <point x="200" y="694"/>
      <point x="69" y="550"/>
      <point x="69" y="336" type="curve" smooth="yes"/>
      <point x="69" y="137"/>
      <point x="181" y="-14"/>
      <point x="390" y="-14" type="curve" smooth="yes"/>
      <point x="454" y="-14"/>
      <point x="540" y="6"/>
      <point x="581" y="32" type="curve"/>
      <point x="580" y="33" type="line"/>
      <point x="580" y="38"/>
      <point x="581" y="44"/>
      <point x="581" y="49" type="curve" smooth="yes"/>
      <point x="581" y="349" type="line"/>
    </contour>
  </outline>
</glyph>
<glyph name="H" format="1">
  <advance width="677"/>
  <unicode hex="0048"/>
  <outline>
    <contour>
      <point x="498" y="0" type="line"/>
      <point x="577" y="0" type="line"/>
      <point x="577" y="680" type="line"/>
      <point x="498" y="680" type="line"/>
      <point x="498" y="374" type="line"/>
      <point x="178" y="374" type="line"/>
      <point x="178" y="685" type="line"/>
      <point x="99" y="680" type="line"/>
      <point x="99" y="0" type="line"/>
      <point x="178" y="0" type="line"/>
      <point x="178" y="311" type="line"/>
      <point x="498" y="311" type="line"/>
    </contour>
  </outline>
</glyph>
<glyph name="J" format="1">
  <advance width="282"/>
  <unicode hex="004A"/>
  <outline>
    <contour>
      <point x="103" y="146" type="line" smooth="yes"/>
      <point x="103" y="71"/>
      <point x="87" y="58"/>
      <point x="19" y="33" type="curve"/>
      <point x="30" y="15"/>
      <point x="40" y="-3"/>
      <point x="50" y="-22" type="curve"/>
      <point x="153" y="10"/>
      <point x="182" y="44"/>
      <point x="182" y="128" type="curve" smooth="yes"/>
      <point x="182" y="680" type="line"/>
      <point x="103" y="680" type="line"/>
    </contour>
  </outline>
</glyph>
<glyph name="K" format="1">
  <advance width="611"/>
  <unicode hex="004B"/>
  <outline>
    <contour>
      <point x="507" y="0" type="line"/>
      <point x="603" y="0" type="line"/>
      <point x="299" y="390" type="line"/>
      <point x="374" y="476"/>
      <point x="448" y="561"/>
      <point x="522" y="648" type="curve"/>
      <point x="505" y="664"/>
      <point x="486" y="679"/>
      <point x="468" y="695" type="curve"/>
      <point x="371" y="580"/>
      <point x="273" y="465"/>
      <point x="175" y="350" type="curve"/>
      <point x="175" y="680" type="line"/>
      <point x="96" y="680" type="line"/>
      <point x="96" y="0" type="line"/>
      <point x="175" y="0" type="line"/>
      <point x="175" y="246" type="line"/>
      <point x="249" y="331" type="line"/>
    </contour>
  </outline>
</glyph>
<glyph name="L" format="1">
  <advance width="516"/>
  <unicode hex="004C"/>
  <outline>
    <contour>
      <point x="498" y="0" type="line"/>
      <point x="489" y="63" type="line"/>
      <point x="178" y="63" type="line"/>
      <point x="178" y="680" type="line"/>
      <point x="100" y="680" type="line"/>
      <point x="100" y="0" type="line"/>
    </contour>
  </outline>
</glyph>
<glyph name="M" format="1">
  <advance width="777"/>
  <unicode hex="004D"/>
  <outline>
    <contour>
      <point x="380" y="224" type="line"/>
      <point x="407" y="229" type="line"/>
      <point x="597" y="512" type="line"/>
      <point x="597" y="0" type="line"/>
      <point x="677" y="0" type="line"/>
      <point x="677" y="680" type="line"/>
      <point x="627" y="680" type="line"/>
      <point x="391" y="333" type="line"/>
      <point x="146" y="680" type="line"/>
      <point x="100" y="680" type="line"/>
      <point x="100" y="0" type="line"/>
      <point x="178" y="0" type="line"/>
      <point x="178" y="514" type="line"/>
    </contour>
  </outline>
</glyph>
<glyph name="N" format="1">
  <advance width="713"/>
  <unicode hex="004E"/>
  <outline>
    <contour>
      <point x="99" y="0" type="line"/>
      <point x="178" y="0" type="line"/>
      <point x="178" y="533" type="line"/>
      <point x="204" y="489" type="line"/>
      <point x="551" y="0" type="line"/>
      <point x="614" y="0" type="line"/>
      <point x="614" y="680" type="line"/>
      <point x="534" y="680" type="line"/>
      <point x="534" y="153" type="line"/>
      <point x="493" y="220" type="line"/>
      <point x="162" y="680" type="line"/>
      <point x="99" y="680" type="line"/>
    </contour>
  </outline>
</glyph>
<glyph name="T" format="1">
  <advance width="531"/>
  <unicode hex="0054"/>
  <outline>
    <contour>
      <point x="521" y="617" type="line"/>
      <point x="512" y="680" type="line"/>
      <point x="9" y="680" type="line"/>
      <point x="9" y="617" type="line"/>
      <point x="222" y="617" type="line"/>
      <point x="222" y="0" type="line"/>
      <point x="302" y="0" type="line"/>
      <point x="302" y="617" type="line"/>
    </contour>
  </outline>
</glyph>
<glyph name="W" format="1">
  <advance width="970"/>
  <unicode hex="0057"/>
  <outline>
    <contour>
      <point x="670" y="0" type="line"/>
      <point x="748" y="0" type="line"/>
      <point x="965" y="680" type="line"/>
      <point x="888" y="680" type="line"/>
      <point x="710" y="110" type="line"/>
      <point x="523" y="680" type="line"/>
      <point x="448" y="680" type="line"/>
      <point x="267" y="110" type="line"/>
      <point x="83" y="680" type="line"/>
      <point x="6" y="667" type="line"/>
      <point x="228" y="0" type="line"/>
      <point x="307" y="0" type="line"/>
      <point x="483" y="556" type="line"/>
    </contour>
  </outline>
</glyph>
<glyph name="X" format="1">
  <advance width="641"/>
  <unicode hex="0058"/>
  <outline>
    <contour>
      <point x="17" y="2" type="line"/>
      <point x="94" y="-10" type="line"/>
      <point x="110" y="12"/>
      <point x="296" y="264"/>
      <point x="312" y="287" type="curve"/>
      <point x="525" y="0" type="line"/>
      <point x="611" y="0" type="line"/>
      <point x="366" y="333" type="line"/>
      <point x="625" y="680" type="line"/>
      <point x="540" y="680" type="line"/>
      <point x="325" y="390" type="line"/>
      <point x="112" y="680" type="line"/>
      <point x="32" y="667" type="line"/>
      <point x="270" y="344" type="line"/>
    </contour>
  </outline>
</glyph>
<glyph name="bracketleft" format="1">
  <advance width="271"/>
  <unicode hex="005B"/>
  <outline>
    <contour>
      <point x="80" y="696" type="line"/>
      <point x="80" y="-88" type="line"/>
      <point x="265" y="-88" type="line"/>
      <point x="254" y="-29" type="line"/>
      <point x="155" y="-29" type="line"/>
      <point x="155" y="636" type="line"/>
      <point x="254" y="636" type="line"/>
      <point x="265" y="696" type="line"/>
    </contour>
  </outline>
</glyph>
<glyph name="backslash" format="1">
  <advance width="394"/>
  <unicode hex="005C"/>
  <outline>
    <contour>
      <point x="311" y="-4" type="line"/>
      <point x="388" y="0" type="line"/>
      <point x="82" y="710" type="line"/>
      <point x="6" y="706" type="line"/>
    </contour>
  </outline>
</glyph>
<glyph name="bracketright" format="1">
  <advance width="271"/>
  <unicode hex="005D"/>
  <outline>
    <contour>
      <point x="190" y="-88" type="line"/>
      <point x="190" y="696" type="line"/>
      <point x="6" y="696" type="line"/>
      <point x="9" y="676"/>
      <point x="12" y="656"/>
      <point x="16" y="636" type="curve"/>
      <point x="115" y="636" type="line"/>
      <point x="115" y="-29" type="line"/>
      <point x="16" y="-29" type="line"/>
      <point x="12" y="-49"/>
      <point x="9" y="-68"/>
      <point x="6" y="-88" type="curve"/>
    </contour>
  </outline>
</glyph>
<glyph name="grave" format="1">
  <advance width="178"/>
  <unicode hex="0060"/>
  <outline>
    <contour>
      <point x="16" y="745" type="line"/>
      <point x="103" y="589" type="line"/>
      <point x="163" y="589" type="line"/>
      <point x="103" y="745" type="line"/>
    </contour>
  </outline>
</glyph>
<glyph name="d" format="1">
  <advance width="554"/>
  <unicode hex="0064"/>
  <outline>
    <contour>
      <point x="474" y="705" type="line"/>
      <point x="394" y="696" type="line"/>
      <point x="394" y="450" type="line"/>
      <point x="355" y="479"/>
      <point x="304" y="499"/>
      <point x="262" y="499" type="curve"/>
      <point x="120" y="499"/>
      <point x="49" y="392"/>
      <point x="49" y="242" type="curve"/>
      <point x="49" y="94"/>
      <point x="118" y="-13"/>
      <point x="260" y="-13" type="curve"/>
      <point x="308" y="-13"/>
      <point x="364" y="10"/>
      <point x="406" y="44" type="curve"/>
      <point x="427" y="0" type="line"/>
      <point x="474" y="0" type="line"/>
    </contour>
    <contour>
      <point x="130" y="348"/>
      <point x="168" y="432"/>
      <point x="274" y="432" type="curve"/>
      <point x="311" y="432"/>
      <point x="356" y="413"/>
      <point x="394" y="379" type="curve"/>
      <point x="394" y="107" type="line"/>
      <point x="356" y="73"/>
      <point x="311" y="55"/>
      <point x="274" y="55" type="curve"/>
      <point x="167" y="55"/>
      <point x="130" y="135"/>
      <point x="130" y="243" type="curve"/>
    </contour>
  </outline>
</glyph>
<glyph name="f" format="1">
  <advance width="309"/>
  <unicode hex="0066"/>
  <outline>
    <contour>
      <point x="142" y="702"/>
      <point x="91" y="644"/>
      <point x="91" y="552" type="curve"/>
      <point x="91" y="475" type="line"/>
      <point x="17" y="475" type="line"/>
      <point x="18" y="414" type="line"/>
      <point x="91" y="414" type="line"/>
      <point x="91" y="0" type="line"/>
      <point x="170" y="0" type="line"/>
      <point x="170" y="414" type="line"/>
      <point x="285" y="414" type="line"/>
      <point x="259" y="475" type="line"/>
      <point x="170" y="475" type="line"/>
      <point x="170" y="548" type="line"/>
      <point x="170" y="597"/>
      <point x="188" y="631"/>
      <point x="238" y="631" type="curve"/>
      <point x="252" y="631"/>
      <point x="271" y="626"/>
      <point x="282" y="621" type="curve"/>
      <point x="300" y="684" type="line"/>
      <point x="285" y="692"/>
      <point x="254" y="702"/>
      <point x="226" y="702" type="curve"/>
    </contour>
  </outline>
</glyph>
<glyph name="g" format="1">
  <advance width="554"/>
  <unicode hex="0067"/>
  <outline>
    <contour>
      <point x="404" y="-217"/>
      <point x="474" y="-141"/>
      <point x="474" y="-39" type="curve" smooth="yes"/>
      <point x="474" y="485" type="line"/>
      <point x="426" y="485" type="line"/>
      <point x="419" y="470"/>
      <point x="413" y="455"/>
      <point x="406" y="441" type="curve"/>
      <point x="365" y="475"/>
      <point x="309" y="499"/>
      <point x="262" y="499" type="curve" smooth="yes"/>
      <point x="120" y="499"/>
      <point x="49" y="391"/>
      <point x="49" y="242" type="curve" smooth="yes"/>
      <point x="49" y="93"/>
      <point x="118" y="-12"/>
      <point x="260" y="-12" type="curve" smooth="yes"/>
      <point x="303" y="-12"/>
      <point x="355" y="6"/>
      <point x="394" y="36" type="curve"/>
      <point x="394" y="-38" type="line" smooth="yes"/>
      <point x="394" y="-114"/>
      <point x="344" y="-152"/>
      <point x="263" y="-152" type="curve" smooth="yes"/>
      <point x="199" y="-152"/>
      <point x="166" y="-133"/>
      <point x="126" y="-115" type="curve"/>
      <point x="102" y="-172" type="line"/>
      <point x="143" y="-201"/>
      <point x="225" y="-217"/>
      <point x="265" y="-217" type="curve" smooth="yes"/>
    </contour>
    <contour>
      <point x="311" y="432"/>
      <point x="356" y="413"/>
      <point x="394" y="379" type="curve"/>
      <point x="394" y="107" type="line"/>
      <point x="356" y="73"/>
      <point x="311" y="54"/>
      <point x="273" y="54" type="curve" smooth="yes"/>
      <point x="166" y="54"/>
      <point x="130" y="135"/>
      <point x="130" y="243" type="curve" smooth="yes"/>
      <point x="130" y="348"/>
      <point x="168" y="432"/>
      <point x="273" y="432" type="curve" smooth="yes"/>
    </contour>
  </outline>
</glyph>
<glyph name="i" format="1">
  <advance width="238"/>
  <unicode hex="0069"/>
  <outline>
    <contour>
      <point x="65" y="604"/>
      <point x="87" y="581"/>
      <point x="118" y="581" type="curve" smooth="yes"/>
      <point x="148" y="581"/>
      <point x="173" y="604"/>
      <point x="173" y="635" type="curve" smooth="yes"/>
      <point x="173" y="665"/>
      <point x="148" y="688"/>
      <point x="118" y="688" type="curve" smooth="yes"/>
      <point x="87" y="688"/>
      <point x="64" y="665"/>
      <point x="65" y="635" type="curve"/>
    </contour>
    <contour>
      <point x="79" y="0" type="line"/>
      <point x="159" y="0" type="line"/>
      <point x="159" y="485" type="line"/>
      <point x="79" y="485" type="line"/>
    </contour>
  </outline>
</glyph>
<glyph name="j" format="1">
  <advance width="243"/>
  <unicode hex="006A"/>
  <outline>
    <contour>
      <point x="83" y="-30" type="line" smooth="yes"/>
      <point x="83" y="-104"/>
      <point x="56" y="-130"/>
      <point x="-11" y="-155" type="curve"/>
      <point x="19" y="-212" type="line"/>
      <point x="148" y="-172"/>
      <point x="163" y="-120"/>
      <point x="163" y="9" type="curve" smooth="yes"/>
      <point x="163" y="485" type="line"/>
      <point x="83" y="485" type="line"/>
    </contour>
    <contour>
      <point x="69" y="604"/>
      <point x="92" y="581"/>
      <point x="123" y="581" type="curve" smooth="yes"/>
      <point x="153" y="581"/>
      <point x="177" y="604"/>
      <point x="177" y="635" type="curve" smooth="yes"/>
      <point x="177" y="665"/>
      <point x="153" y="688"/>
      <point x="123" y="688" type="curve" smooth="yes"/>
      <point x="92" y="688"/>
      <point x="69" y="665"/>
      <point x="69" y="635" type="curve" smooth="yes"/>
    </contour>
  </outline>
</glyph>
<glyph name="k" format="1">
  <advance width="493"/>
  <unicode hex="006B"/>
  <outline>
    <contour>
      <point x="80" y="0" type="line"/>
      <point x="159" y="0" type="line"/>
      <point x="159" y="182" type="line"/>
      <point x="226" y="249" type="line"/>
      <point x="279" y="166"/>
      <point x="332" y="83"/>
      <point x="386" y="0" type="curve"/>
      <point x="479" y="0" type="line"/>
      <point x="413" y="100"/>
      <point x="345" y="200"/>
      <point x="279" y="300" type="curve"/>
      <point x="427" y="447" type="line"/>
      <point x="379" y="498" type="line"/>
      <point x="159" y="276" type="line"/>
      <point x="159" y="706" type="line"/>
      <point x="80" y="695" type="line"/>
    </contour>
  </outline>
</glyph>
<glyph name="l" format="1">
  <advance width="239"/>
  <unicode hex="006C"/>
  <outline>
    <contour>
      <point x="80" y="0" type="line"/>
      <point x="159" y="0" type="line"/>
      <point x="159" y="706" type="line"/>
      <point x="80" y="695" type="line"/>
    </contour>
  </outline>
</glyph>
<glyph name="m" format="1">
  <advance width="855"/>
  <unicode hex="006D"/>
  <outline>
    <contour>
      <point x="562" y="499"/>
      <point x="493" y="464"/>
      <point x="451" y="420" type="curve"/>
      <point x="428" y="468"/>
      <point x="379" y="499"/>
      <point x="307" y="499" type="curve"/>
      <point x="254" y="499"/>
      <point x="192" y="470"/>
      <point x="149" y="430" type="curve"/>
      <point x="126" y="485" type="line"/>
      <point x="78" y="485" type="line"/>
      <point x="78" y="0" type="line"/>
      <point x="157" y="0" type="line"/>
      <point x="157" y="363" type="line"/>
      <point x="200" y="408"/>
      <point x="250" y="432"/>
      <point x="294" y="432" type="curve"/>
      <point x="360" y="431"/>
      <point x="390" y="384"/>
      <point x="390" y="318" type="curve"/>
      <point x="390" y="1" type="line"/>
      <point x="470" y="1" type="line"/>
      <point x="470" y="329" type="line"/>
      <point x="470" y="340"/>
      <point x="470" y="351"/>
      <point x="468" y="363" type="curve"/>
      <point x="511" y="407"/>
      <point x="562" y="432"/>
      <point x="605" y="432" type="curve"/>
      <point x="672" y="431"/>
      <point x="703" y="384"/>
      <point x="703" y="318" type="curve"/>
      <point x="703" y="1" type="line"/>
      <point x="783" y="1" type="line"/>
      <point x="783" y="329" type="line"/>
      <point x="783" y="427"/>
      <point x="732" y="499"/>
      <point x="619" y="499" type="curve"/>
    </contour>
  </outline>
</glyph>
<glyph name="t" format="1">
  <advance width="325"/>
  <unicode hex="0074"/>
  <outline>
    <contour>
      <point x="253" y="-15"/>
      <point x="283" y="-5"/>
      <point x="298" y="2" type="curve"/>
      <point x="280" y="63" type="line"/>
      <point x="270" y="59"/>
      <point x="251" y="53"/>
      <point x="236" y="53" type="curve"/>
      <point x="186" y="53"/>
      <point x="167" y="88"/>
      <point x="167" y="137" type="curve"/>
      <point x="167" y="417" type="line"/>
      <point x="281" y="417" type="line"/>
      <point x="255" y="477" type="line"/>
      <point x="167" y="477" type="line"/>
      <point x="167" y="623" type="line"/>
      <point x="87" y="600" type="line"/>
      <point x="87" y="477" type="line"/>
      <point x="17" y="477" type="line"/>
      <point x="18" y="417" type="line"/>
      <point x="87" y="417" type="line"/>
      <point x="87" y="126" type="line"/>
      <point x="87" y="34"/>
      <point x="141" y="-15"/>
      <point x="224" y="-15" type="curve"/>
    </contour>
  </outline>
</glyph>
<glyph name="w" format="1">
  <advance width="753"/>
  <unicode hex="0077"/>
  <outline>
    <contour>
      <point x="501" y="0" type="line"/>
      <point x="579" y="0" type="line"/>
      <point x="737" y="485" type="line"/>
      <point x="657" y="485" type="line"/>
      <point x="540" y="113" type="line"/>
      <point x="417" y="485" type="line"/>
      <point x="337" y="485" type="line"/>
      <point x="220" y="113" type="line"/>
      <point x="97" y="485" type="line"/>
      <point x="17" y="473" type="line"/>
      <point x="180" y="0" type="line"/>
      <point x="258" y="0" type="line"/>
      <point x="375" y="369" type="line"/>
    </contour>
  </outline>
</glyph>
<glyph name="y" format="1">
  <advance width="477"/>
  <unicode hex="0079"/>
  <outline>
    <contour>
      <point x="175" y="-79" type="line"/>
      <point x="158" y="-125"/>
      <point x="120" y="-141"/>
      <point x="72" y="-163" type="curve"/>
      <point x="96" y="-220" type="line"/>
      <point x="165" y="-205"/>
      <point x="224" y="-161"/>
      <point x="246" y="-100" type="curve"/>
      <point x="312" y="88" type="line"/>
      <point x="460" y="485" type="line"/>
      <point x="381" y="485" type="line"/>
      <point x="242" y="110" type="line"/>
      <point x="95" y="485" type="line"/>
      <point x="17" y="473" type="line"/>
      <point x="204" y="3" type="line"/>
    </contour>
  </outline>
</glyph>
<glyph name="braceleft" format="1">
  <advance width="276"/>
  <unicode hex="007B"/>
  <outline>
    <contour>
      <point x="205" y="454"/>
      <point x="168" y="522"/>
      <point x="168" y="555" type="curve" smooth="yes"/>
      <point x="168" y="574"/>
      <point x="186" y="600"/>
      <point x="231" y="600" type="curve" smooth="yes"/>
      <point x="256" y="600" type="line"/>
      <point x="258" y="619"/>
      <point x="260" y="639"/>
      <point x="263" y="659" type="curve"/>
      <point x="236" y="659" type="line" smooth="yes"/>
      <point x="149" y="659"/>
      <point x="102" y="622"/>
      <point x="102" y="556" type="curve" smooth="yes"/>
      <point x="102" y="514"/>
      <point x="132" y="456"/>
      <point x="132" y="412" type="curve" smooth="yes"/>
      <point x="132" y="366"/>
      <point x="101" y="333"/>
      <point x="67" y="333" type="curve" smooth="yes"/>
      <point x="31" y="333" type="line"/>
      <point x="31" y="282" type="line"/>
      <point x="67" y="282" type="line" smooth="yes"/>
      <point x="100" y="282"/>
      <point x="136" y="253"/>
      <point x="136" y="210" type="curve" smooth="yes"/>
      <point x="136" y="172"/>
      <point x="100" y="109"/>
      <point x="100" y="69" type="curve" smooth="yes"/>
      <point x="100" y="-2"/>
      <point x="142" y="-42"/>
      <point x="236" y="-42" type="curve" smooth="yes"/>
      <point x="263" y="-42" type="line"/>
      <point x="260" y="-22"/>
      <point x="258" y="-2"/>
      <point x="256" y="16" type="curve"/>
      <point x="231" y="16" type="line" smooth="yes"/>
      <point x="189" y="16"/>
      <point x="168" y="39"/>
      <point x="168" y="62" type="curve" smooth="yes"/>
      <point x="168" y="94"/>
      <point x="205" y="164"/>
      <point x="205" y="201" type="curve" smooth="yes"/>
      <point x="205" y="253"/>
      <point x="185" y="291"/>
      <point x="148" y="310" type="curve"/>
      <point x="188" y="327"/>
      <point x="205" y="360"/>
      <point x="205" y="416" type="curve" smooth="yes"/>
    </contour>
  </outline>
</glyph>
<glyph name="braceright" format="1">
  <advance width="276"/>
  <unicode hex="007D"/>
  <outline>
    <contour>
      <point x="70" y="162"/>
      <point x="107" y="100"/>
      <point x="107" y="64" type="curve" smooth="yes"/>
      <point x="107" y="41"/>
      <point x="85" y="16"/>
      <point x="44" y="16" type="curve" smooth="yes"/>
      <point x="20" y="16" type="line"/>
      <point x="17" y="-2"/>
      <point x="16" y="-22"/>
      <point x="13" y="-42" type="curve"/>
      <point x="39" y="-42" type="line" smooth="yes"/>
      <point x="128" y="-42"/>
      <point x="173" y="-4"/>
      <point x="173" y="65" type="curve" smooth="yes"/>
      <point x="173" y="109"/>
      <point x="142" y="167"/>
      <point x="142" y="208" type="curve" smooth="yes"/>
      <point x="142" y="255"/>
      <point x="173" y="284"/>
      <point x="208" y="284" type="curve" smooth="yes"/>
      <point x="244" y="284" type="line"/>
      <point x="244" y="334" type="line"/>
      <point x="208" y="334" type="line" smooth="yes"/>
      <point x="173" y="334"/>
      <point x="139" y="366"/>
      <point x="139" y="406" type="curve" smooth="yes"/>
      <point x="139" y="447"/>
      <point x="176" y="508"/>
      <point x="176" y="548" type="curve" smooth="yes"/>
      <point x="176" y="619"/>
      <point x="132" y="659"/>
      <point x="39" y="659" type="curve" smooth="yes"/>
      <point x="13" y="659" type="line"/>
      <point x="16" y="639"/>
      <point x="17" y="619"/>
      <point x="20" y="600" type="curve"/>
      <point x="44" y="600" type="line" smooth="yes"/>
      <point x="87" y="600"/>
      <point x="107" y="575"/>
      <point x="107" y="553" type="curve" smooth="yes"/>
      <point x="107" y="516"/>
      <point x="70" y="449"/>
      <point x="70" y="416" type="curve" smooth="yes"/>
      <point x="70" y="364"/>
      <point x="90" y="326"/>
      <point x="128" y="306" type="curve"/>
      <point x="87" y="289"/>
      <point x="70" y="256"/>
      <point x="70" y="201" type="curve" smooth="yes"/>
    </contour>
  </outline>
</glyph>
<glyph name="cent" format="1">
  <advance width="469"/>
  <unicode hex="00A2"/>
  <outline>
    <contour>
      <point x="312" y="606" type="line"/>
      <point x="245" y="606" type="line"/>
      <point x="245" y="495" type="line"/>
      <point x="119" y="481"/>
      <point x="51" y="382"/>
      <point x="49" y="244" type="curve"/>
      <point x="49" y="103"/>
      <point x="116" y="0"/>
      <point x="245" y="-11" type="curve"/>
      <point x="245" y="-107" type="line"/>
      <point x="312" y="-112" type="line"/>
      <point x="312" y="-9" type="line"/>
      <point x="351" y="-4"/>
      <point x="394" y="10"/>
      <point x="422" y="30" type="curve"/>
      <point x="398" y="88" type="line"/>
      <point x="360" y="69"/>
      <point x="336" y="54"/>
      <point x="271" y="54" type="curve"/>
      <point x="170" y="54"/>
      <point x="130" y="135"/>
      <point x="130" y="245" type="curve"/>
      <point x="132" y="351"/>
      <point x="176" y="431"/>
      <point x="275" y="431" type="curve"/>
      <point x="339" y="431"/>
      <point x="365" y="415"/>
      <point x="402" y="397" type="curve"/>
      <point x="426" y="454" type="line"/>
      <point x="396" y="474"/>
      <point x="350" y="488"/>
      <point x="312" y="494" type="curve"/>
    </contour>
  </outline>
</glyph>
<glyph name="sterling" format="1">
  <advance width="456"/>
  <unicode hex="00A3"/>
  <outline>
    <contour>
      <point x="205" y="530" type="line" smooth="yes"/>
      <point x="205" y="579"/>
      <point x="223" y="614"/>
      <point x="273" y="614" type="curve" smooth="yes"/>
      <point x="287" y="614"/>
      <point x="307" y="608"/>
      <point x="317" y="603" type="curve"/>
      <point x="335" y="666" type="line"/>
      <point x="320" y="674"/>
      <point x="289" y="684"/>
      <point x="261" y="684" type="curve" smooth="yes"/>
      <point x="165" y="684"/>
      <point x="125" y="615"/>
      <point x="125" y="509" type="curve" smooth="yes"/>
      <point x="125" y="379" type="line"/>
      <point x="52" y="379" type="line"/>
      <point x="52" y="360"/>
      <point x="52" y="339"/>
      <point x="53" y="320" type="curve"/>
      <point x="125" y="320" type="line"/>
      <point x="125" y="146" type="line" smooth="yes"/>
      <point x="125" y="98"/>
      <point x="108" y="64"/>
      <point x="62" y="62" type="curve" smooth="yes"/>
      <point x="58" y="62" type="line"/>
      <point x="60" y="41"/>
      <point x="61" y="21"/>
      <point x="62" y="0" type="curve"/>
      <point x="439" y="0" type="line"/>
      <point x="436" y="21"/>
      <point x="433" y="41"/>
      <point x="429" y="62" type="curve"/>
      <point x="174" y="62" type="line"/>
      <point x="202" y="97"/>
      <point x="205" y="149"/>
      <point x="205" y="218" type="curve" smooth="yes"/>
      <point x="205" y="320" type="line"/>
      <point x="364" y="320" type="line"/>
      <point x="355" y="339"/>
      <point x="345" y="360"/>
      <point x="337" y="379" type="curve"/>
      <point x="205" y="379" type="line"/>
    </contour>
  </outline>
</glyph>
<glyph name="brokenbar" format="1">
  <advance width="270"/>
  <unicode hex="00A6"/>
  <outline>
    <contour>
      <point x="175" y="288" type="line"/>
      <point x="96" y="293" type="line"/>
      <point x="96" y="0" type="line"/>
      <point x="175" y="-6" type="line"/>
    </contour>
    <contour>
      <point x="175" y="705" type="line"/>
      <point x="96" y="711" type="line"/>
      <point x="96" y="412" type="line"/>
      <point x="175" y="406" type="line"/>
    </contour>
  </outline>
</glyph>
<glyph name="section" format="1">
  <advance width="598"/>
  <unicode hex="00A7"/>
  <outline>
    <contour>
      <point x="182" y="-52"/>
      <point x="116" y="-27"/>
      <point x="80" y="-10" type="curve"/>
      <point x="73" y="-30"/>
      <point x="67" y="-51"/>
      <point x="61" y="-71" type="curve"/>
      <point x="86" y="-94"/>
      <point x="190" y="-119"/>
      <point x="248" y="-119" type="curve" smooth="yes"/>
      <point x="399" y="-119"/>
      <point x="488" y="-44"/>
      <point x="488" y="57" type="curve" smooth="yes"/>
      <point x="488" y="85"/>
      <point x="481" y="107"/>
      <point x="469" y="128" type="curve"/>
      <point x="519" y="160"/>
      <point x="546" y="208"/>
      <point x="546" y="267" type="curve" smooth="yes"/>
      <point x="546" y="465"/>
      <point x="186" y="461"/>
      <point x="186" y="611" type="curve" smooth="yes"/>
      <point x="186" y="675"/>
      <point x="241" y="713"/>
      <point x="328" y="713" type="curve" smooth="yes"/>
      <point x="396" y="713"/>
      <point x="436" y="694"/>
      <point x="473" y="677" type="curve"/>
      <point x="499" y="739" type="line"/>
      <point x="457" y="760"/>
      <point x="394" y="780"/>
      <point x="328" y="780" type="curve" smooth="yes"/>
      <point x="193" y="780"/>
      <point x="109" y="706"/>
      <point x="109" y="610" type="curve" smooth="yes"/>
      <point x="109" y="582"/>
      <point x="115" y="558"/>
      <point x="126" y="537" type="curve"/>
      <point x="79" y="506"/>
      <point x="50" y="458"/>
      <point x="50" y="401" type="curve" smooth="yes"/>
      <point x="50" y="196"/>
      <point x="410" y="202"/>
      <point x="410" y="59" type="curve" smooth="yes"/>
      <point x="410" y="-6"/>
      <point x="353" y="-52"/>
      <point x="247" y="-52" type="curve" smooth="yes"/>
    </contour>
    <contour>
      <point x="469" y="231"/>
      <point x="453" y="203"/>
      <point x="424" y="184" type="curve"/>
      <point x="321" y="267"/>
      <point x="127" y="295"/>
      <point x="127" y="404" type="curve" smooth="yes"/>
      <point x="127" y="437"/>
      <point x="142" y="465"/>
      <point x="170" y="482" type="curve"/>
      <point x="271" y="398"/>
      <point x="469" y="370"/>
      <point x="469" y="263" type="curve" smooth="yes"/>
    </contour>
  </outline>
</glyph>
<glyph name="dieresis" format="1">
  <advance width="295"/>
  <unicode hex="00A8"/>
  <outline>
    <contour>
      <point x="278" y="689"/>
      <point x="258" y="711"/>
      <point x="230" y="711" type="curve"/>
      <point x="203" y="711"/>
      <point x="181" y="689"/>
      <point x="181" y="663" type="curve"/>
      <point x="181" y="635"/>
      <point x="203" y="614"/>
      <point x="230" y="614" type="curve"/>
      <point x="258" y="614"/>
      <point x="278" y="635"/>
      <point x="278" y="663" type="curve"/>
    </contour>
    <contour>
      <point x="113" y="689"/>
      <point x="92" y="711"/>
      <point x="65" y="711" type="curve"/>
      <point x="38" y="711"/>
      <point x="16" y="689"/>
      <point x="16" y="663" type="curve"/>
      <point x="16" y="635"/>
      <point x="38" y="614"/>
      <point x="65" y="614" type="curve"/>
      <point x="92" y="614"/>
      <point x="113" y="635"/>
      <point x="113" y="663" type="curve"/>
    </contour>
  </outline>
</glyph>
<glyph name="copyright" format="1">
  <advance width="849"/>
  <unicode hex="00A9"/>
  <outline>
    <contour>
      <point x="237" y="29"/>
      <point x="122" y="162"/>
      <point x="122" y="337" type="curve"/>
      <point x="122" y="513"/>
      <point x="237" y="645"/>
      <point x="424" y="645" type="curve"/>
      <point x="612" y="645"/>
      <point x="727" y="513"/>
      <point x="727" y="337" type="curve"/>
      <point x="727" y="162"/>
      <point x="612" y="29"/>
      <point x="424" y="29" type="curve"/>
    </contour>
    <contour>
      <point x="650" y="-27"/>
      <point x="791" y="134"/>
      <point x="791" y="336" type="curve"/>
      <point x="791" y="540"/>
      <point x="650" y="700"/>
      <point x="424" y="700" type="curve"/>
      <point x="198" y="700"/>
      <point x="57" y="540"/>
      <point x="57" y="336" type="curve"/>
      <point x="57" y="134"/>
      <point x="198" y="-27"/>
      <point x="424" y="-27" type="curve"/>
    </contour>
    <contour>
      <point x="301" y="436"/>
      <point x="346" y="506"/>
      <point x="441" y="506" type="curve"/>
      <point x="505" y="506"/>
      <point x="529" y="491"/>
      <point x="565" y="473" type="curve"/>
      <point x="589" y="531" type="line"/>
      <point x="550" y="559"/>
      <point x="482" y="573"/>
      <point x="442" y="573" type="curve"/>
      <point x="303" y="573"/>
      <point x="221" y="476"/>
      <point x="221" y="341" type="curve"/>
      <point x="221" y="202"/>
      <point x="295" y="105"/>
      <point x="438" y="105" type="curve"/>
      <point x="479" y="105"/>
      <point x="546" y="119"/>
      <point x="585" y="148" type="curve"/>
      <point x="562" y="204" type="line"/>
      <point x="525" y="186"/>
      <point x="501" y="171"/>
      <point x="438" y="171" type="curve"/>
      <point x="340" y="171"/>
      <point x="301" y="233"/>
      <point x="301" y="342" type="curve"/>
    </contour>
  </outline>
</glyph>
<glyph name="ordfeminine" format="1">
  <advance width="343"/>
  <unicode hex="00AA"/>
  <outline>
    <contour>
      <point x="136" y="702"/>
      <point x="82" y="690"/>
      <point x="57" y="673" type="curve"/>
      <point x="72" y="621" type="line"/>
      <point x="96" y="631"/>
      <point x="122" y="642"/>
      <point x="164" y="642" type="curve" smooth="yes"/>
      <point x="220" y="642"/>
      <point x="235" y="599"/>
      <point x="235" y="563" type="curve"/>
      <point x="157" y="563" type="line" smooth="yes"/>
      <point x="88" y="563"/>
      <point x="36" y="526"/>
      <point x="36" y="464" type="curve" smooth="yes"/>
      <point x="36" y="405"/>
      <point x="82" y="363"/>
      <point x="152" y="363" type="curve" smooth="yes"/>
      <point x="189" y="363"/>
      <point x="224" y="385"/>
      <point x="244" y="405" type="curve"/>
      <point x="258" y="371" type="line"/>
      <point x="302" y="371" type="line"/>
      <point x="302" y="580" type="line" smooth="yes"/>
      <point x="302" y="645"/>
      <point x="247" y="702"/>
      <point x="163" y="702" type="curve" smooth="yes"/>
    </contour>
    <contour>
      <point x="120" y="420"/>
      <point x="102" y="442"/>
      <point x="102" y="466" type="curve" smooth="yes"/>
      <point x="102" y="496"/>
      <point x="131" y="513"/>
      <point x="168" y="513" type="curve" smooth="yes"/>
      <point x="236" y="513" type="line"/>
      <point x="236" y="467" type="line"/>
      <point x="216" y="442"/>
      <point x="186" y="420"/>
      <point x="153" y="420" type="curve" smooth="yes"/>
    </contour>
  </outline>
</glyph>
<glyph name="guillemotleft" format="1">
  <advance width="363"/>
  <unicode hex="00AB"/>
  <outline>
    <contour>
      <point x="28" y="222" type="line"/>
      <point x="77" y="176"/>
      <point x="125" y="129"/>
      <point x="173" y="83" type="curve"/>
      <point x="195" y="136" type="line"/>
      <point x="160" y="172"/>
      <point x="124" y="208"/>
      <point x="89" y="245" type="curve"/>
      <point x="124" y="281"/>
      <point x="160" y="317"/>
      <point x="195" y="354" type="curve"/>
      <point x="187" y="371"/>
      <point x="180" y="388"/>
      <point x="173" y="406" type="curve"/>
      <point x="125" y="360"/>
      <point x="77" y="313"/>
      <point x="28" y="267" type="curve"/>
    </contour>
    <contour>
      <point x="184" y="267" type="line"/>
      <point x="184" y="222" type="line"/>
      <point x="330" y="83" type="line"/>
      <point x="351" y="136" type="line"/>
      <point x="315" y="172"/>
      <point x="280" y="208"/>
      <point x="245" y="245" type="curve"/>
      <point x="351" y="354" type="line"/>
      <point x="330" y="406" type="line"/>
    </contour>
  </outline>
</glyph>
<glyph name="registered" format="1">
  <advance width="740"/>
  <unicode hex="00AE"/>
  <outline>
    <contour>
      <point x="570" y="168"/>
      <point x="693" y="308"/>
      <point x="693" y="487" type="curve" smooth="yes"/>
      <point x="693" y="667"/>
      <point x="570" y="808"/>
      <point x="370" y="808" type="curve" smooth="yes"/>
      <point x="170" y="808"/>
      <point x="46" y="667"/>
      <point x="46" y="487" type="curve" smooth="yes"/>
      <point x="46" y="308"/>
      <point x="170" y="168"/>
      <point x="370" y="168" type="curve" smooth="yes"/>
    </contour>
    <contour>
      <point x="204" y="223"/>
      <point x="106" y="335"/>
      <point x="106" y="488" type="curve" smooth="yes"/>
      <point x="106" y="643"/>
      <point x="204" y="755"/>
      <point x="370" y="755" type="curve" smooth="yes"/>
      <point x="534" y="755"/>
      <point x="633" y="643"/>
      <point x="633" y="488" type="curve" smooth="yes"/>
      <point x="633" y="335"/>
      <point x="534" y="223"/>
      <point x="370" y="221" type="curve"/>
    </contour>
    <contour>
      <point x="532" y="304" type="line"/>
      <point x="501" y="360"/>
      <point x="468" y="416"/>
      <point x="437" y="472" type="curve"/>
      <point x="473" y="488"/>
      <point x="501" y="519"/>
      <point x="501" y="570" type="curve" smooth="yes"/>
      <point x="501" y="649"/>
      <point x="442" y="680"/>
      <point x="363" y="680" type="curve" smooth="yes"/>
      <point x="252" y="680" type="line"/>
      <point x="252" y="304" type="line"/>
      <point x="313" y="304" type="line"/>
      <point x="313" y="458" type="line"/>
      <point x="351" y="458" type="line" smooth="yes"/>
      <point x="360" y="458"/>
      <point x="370" y="459"/>
      <point x="380" y="459" type="curve"/>
      <point x="407" y="407"/>
      <point x="435" y="355"/>
      <point x="463" y="304" type="curve"/>
    </contour>
    <contour>
      <point x="346" y="631" type="line" smooth="yes"/>
      <point x="401" y="631"/>
      <point x="440" y="627"/>
      <point x="440" y="568" type="curve" smooth="yes"/>
      <point x="440" y="514"/>
      <point x="395" y="506"/>
      <point x="343" y="506" type="curve" smooth="yes"/>
      <point x="313" y="506" type="line"/>
      <point x="313" y="631" type="line"/>
    </contour>
  </outline>
</glyph>
<glyph name="twosuperior" format="1">
  <advance width="393"/>
  <unicode hex="00B2"/>
  <outline>
    <contour>
      <point x="329" y="702"/>
      <point x="289" y="771"/>
      <point x="179" y="771" type="curve"/>
      <point x="109" y="771"/>
      <point x="59" y="735"/>
      <point x="51" y="729" type="curve"/>
      <point x="78" y="675" type="line"/>
      <point x="80" y="677"/>
      <point x="128" y="713"/>
      <point x="175" y="713" type="curve"/>
      <point x="234" y="713"/>
      <point x="258" y="677"/>
      <point x="258" y="644" type="curve"/>
      <point x="258" y="609"/>
      <point x="241" y="572"/>
      <point x="182" y="519" type="curve"/>
      <point x="31" y="389" type="line"/>
      <point x="31" y="336" type="line"/>
      <point x="343" y="336" type="line"/>
      <point x="335" y="391" type="line"/>
      <point x="118" y="391" type="line"/>
      <point x="221" y="478" type="line" smooth="yes"/>
      <point x="295" y="541"/>
      <point x="329" y="587"/>
      <point x="329" y="644" type="curve"/>
    </contour>
  </outline>
</glyph>
<glyph name="threesuperior" format="1">
  <advance width="412"/>
  <unicode hex="00B3"/>
  <outline>
    <contour>
      <point x="340" y="714"/>
      <point x="291" y="771"/>
      <point x="188" y="771" type="curve"/>
      <point x="127" y="771"/>
      <point x="81" y="751"/>
      <point x="39" y="724" type="curve"/>
      <point x="67" y="676" type="line"/>
      <point x="92" y="693"/>
      <point x="129" y="714"/>
      <point x="183" y="714" type="curve"/>
      <point x="241" y="714"/>
      <point x="269" y="685"/>
      <point x="269" y="647" type="curve"/>
      <point x="269" y="598"/>
      <point x="233" y="566"/>
      <point x="156" y="566" type="curve"/>
      <point x="124" y="566" type="line"/>
      <point x="132" y="510" type="line"/>
      <point x="151" y="510" type="line" smooth="yes"/>
      <point x="243" y="510"/>
      <point x="278" y="477"/>
      <point x="278" y="418" type="curve"/>
      <point x="278" y="364"/>
      <point x="232" y="336"/>
      <point x="176" y="336" type="curve"/>
      <point x="124" y="336"/>
      <point x="95" y="347"/>
      <point x="59" y="369" type="curve"/>
      <point x="28" y="320" type="line"/>
      <point x="66" y="299"/>
      <point x="121" y="278"/>
      <point x="177" y="278" type="curve"/>
      <point x="283" y="278"/>
      <point x="349" y="339"/>
      <point x="349" y="419" type="curve"/>
      <point x="349" y="481"/>
      <point x="311" y="527"/>
      <point x="261" y="538" type="curve"/>
      <point x="303" y="553"/>
      <point x="340" y="595"/>
      <point x="340" y="648" type="curve"/>
    </contour>
  </outline>
</glyph>
<glyph name="acute" format="1">
  <advance width="178"/>
  <unicode hex="00B4"/>
  <outline>
    <contour>
      <point x="76" y="745" type="line"/>
      <point x="16" y="589" type="line"/>
      <point x="75" y="589" type="line"/>
      <point x="163" y="745" type="line"/>
    </contour>
  </outline>
</glyph>
<glyph name="mu" format="1">
  <advance width="548"/>
  <unicode hex="00B5"/>
  <outline>
    <contour>
      <point x="294" y="-14"/>
      <point x="357" y="14"/>
      <point x="399" y="53" type="curve"/>
      <point x="422" y="0" type="line"/>
      <point x="470" y="0" type="line"/>
      <point x="470" y="485" type="line"/>
      <point x="390" y="485" type="line"/>
      <point x="390" y="114" type="line"/>
      <point x="348" y="75"/>
      <point x="293" y="53"/>
      <point x="256" y="53" type="curve"/>
      <point x="190" y="53"/>
      <point x="159" y="101"/>
      <point x="159" y="166" type="curve"/>
      <point x="159" y="485" type="line"/>
      <point x="80" y="485" type="line"/>
      <point x="80" y="-219" type="line"/>
      <point x="159" y="-208" type="line"/>
      <point x="159" y="6" type="line"/>
      <point x="181" y="-8"/>
      <point x="209" y="-14"/>
      <point x="243" y="-14" type="curve"/>
    </contour>
  </outline>
</glyph>
<glyph name="paragraph" format="1">
  <advance width="854"/>
  <unicode hex="00B6"/>
  <outline>
    <contour>
      <point x="345" y="0" type="line"/>
      <point x="424" y="0" type="line"/>
      <point x="424" y="617" type="line"/>
      <point x="644" y="617" type="line"/>
      <point x="644" y="0" type="line"/>
      <point x="724" y="0" type="line"/>
      <point x="724" y="617" type="line"/>
      <point x="821" y="617" type="line"/>
      <point x="821" y="680" type="line"/>
      <point x="300" y="680" type="line" smooth="yes"/>
      <point x="156" y="680"/>
      <point x="49" y="622"/>
      <point x="49" y="471" type="curve"/>
      <point x="51" y="322"/>
      <point x="168" y="257"/>
      <point x="311" y="257" type="curve" smooth="yes"/>
      <point x="345" y="257" type="line"/>
    </contour>
  </outline>
</glyph>
<glyph name="periodcentered" format="1">
  <advance width="137"/>
  <unicode hex="00B7"/>
  <outline>
    <contour>
      <point x="122" y="293"/>
      <point x="99" y="315"/>
      <point x="69" y="315" type="curve"/>
      <point x="38" y="315"/>
      <point x="14" y="293"/>
      <point x="14" y="262" type="curve"/>
      <point x="14" y="232"/>
      <point x="38" y="208"/>
      <point x="69" y="208" type="curve"/>
      <point x="99" y="208"/>
      <point x="122" y="232"/>
      <point x="122" y="262" type="curve"/>
    </contour>
  </outline>
</glyph>
<glyph name="onesuperior" format="1">
  <advance width="338"/>
  <unicode hex="00B9"/>
  <outline>
    <contour>
      <point x="286" y="336" type="line"/>
      <point x="283" y="354"/>
      <point x="280" y="372"/>
      <point x="278" y="390" type="curve"/>
      <point x="213" y="390" type="line"/>
      <point x="213" y="764" type="line"/>
      <point x="167" y="764" type="line"/>
      <point x="63" y="698" type="line"/>
      <point x="92" y="650" type="line"/>
      <point x="109" y="660"/>
      <point x="126" y="672"/>
      <point x="142" y="683" type="curve"/>
      <point x="142" y="390" type="line"/>
      <point x="62" y="390" type="line"/>
      <point x="70" y="336" type="line"/>
    </contour>
  </outline>
</glyph>
<glyph name="ordmasculine" format="1">
  <advance width="391"/>
  <unicode hex="00BA"/>
  <outline>
    <contour>
      <point x="37" y="425"/>
      <point x="98" y="363"/>
      <point x="193" y="363" type="curve"/>
      <point x="286" y="363"/>
      <point x="354" y="428"/>
      <point x="354" y="532" type="curve"/>
      <point x="354" y="638"/>
      <point x="292" y="702"/>
      <point x="195" y="702" type="curve"/>
      <point x="103" y="702"/>
      <point x="37" y="636"/>
      <point x="37" y="532" type="curve"/>
    </contour>
    <contour>
      <point x="243" y="642"/>
      <point x="280" y="608"/>
      <point x="280" y="531" type="curve"/>
      <point x="280" y="453"/>
      <point x="237" y="422"/>
      <point x="194" y="422" type="curve"/>
      <point x="149" y="422"/>
      <point x="109" y="457"/>
      <point x="109" y="532" type="curve"/>
      <point x="109" y="611"/>
      <point x="154" y="642"/>
      <point x="195" y="642" type="curve"/>
    </contour>
  </outline>
</glyph>
<glyph name="Atilde" format="1">
  <advance width="601"/>
  <unicode hex="00C3"/>
  <outline>
    <contour>
      <point x="257" y="680" type="line"/>
      <point x="174" y="453"/>
      <point x="89" y="227"/>
      <point x="6" y="0" type="curve"/>
      <point x="82" y="0" type="line"/>
      <point x="154" y="193" type="line"/>
      <point x="441" y="193" type="line"/>
      <point x="516" y="0" type="line"/>
      <point x="542" y="3"/>
      <point x="569" y="8"/>
      <point x="594" y="12" type="curve"/>
      <point x="507" y="234"/>
      <point x="421" y="457"/>
      <point x="333" y="680" type="curve"/>
    </contour>
    <contour>
      <point x="295" y="575" type="line"/>
      <point x="335" y="469"/>
      <point x="377" y="362"/>
      <point x="417" y="256" type="curve"/>
      <point x="176" y="256" type="line"/>
    </contour>
    <contour>
      <point x="384" y="853" type="line"/>
      <point x="381" y="826"/>
      <point x="366" y="813"/>
      <point x="349" y="813" type="curve" smooth="yes"/>
      <point x="313" y="813"/>
      <point x="290" y="857"/>
      <point x="236" y="857" type="curve" smooth="yes"/>
      <point x="186" y="857"/>
      <point x="147" y="834"/>
      <point x="147" y="759" type="curve"/>
      <point x="202" y="759" type="line"/>
      <point x="205" y="784"/>
      <point x="221" y="799"/>
      <point x="238" y="799" type="curve" smooth="yes"/>
      <point x="273" y="799"/>
      <point x="302" y="754"/>
      <point x="349" y="754" type="curve" smooth="yes"/>
      <point x="399" y="754"/>
      <point x="439" y="778"/>
      <point x="439" y="853" type="curve"/>
    </contour>
  </outline>
</glyph>
<glyph name="Adieresis" format="1">
  <advance width="601"/>
  <unicode hex="00C4"/>
  <outline>
    <contour>
      <point x="334" y="680" type="line"/>
      <point x="257" y="680" type="line"/>
      <point x="6" y="0" type="line"/>
      <point x="83" y="0" type="line"/>
      <point x="154" y="193" type="line"/>
      <point x="441" y="193" type="line"/>
      <point x="516" y="0" type="line"/>
      <point x="595" y="12" type="line"/>
    </contour>
    <contour>
      <point x="295" y="575" type="line"/>
      <point x="418" y="257" type="line"/>
      <point x="176" y="257" type="line"/>
    </contour>
    <contour>
      <point x="426" y="839"/>
      <point x="406" y="861"/>
      <point x="378" y="861" type="curve"/>
      <point x="351" y="861"/>
      <point x="329" y="839"/>
      <point x="329" y="813" type="curve"/>
      <point x="329" y="785"/>
      <point x="351" y="764"/>
      <point x="378" y="764" type="curve"/>
      <point x="406" y="764"/>
      <point x="426" y="785"/>
      <point x="426" y="813" type="curve"/>
    </contour>
    <contour>
      <point x="261" y="839"/>
      <point x="240" y="861"/>
      <point x="213" y="861" type="curve"/>
      <point x="186" y="861"/>
      <point x="164" y="839"/>
      <point x="164" y="813" type="curve"/>
      <point x="164" y="785"/>
      <point x="186" y="764"/>
      <point x="213" y="764" type="curve"/>
      <point x="240" y="764"/>
      <point x="261" y="785"/>
      <point x="261" y="813" type="curve"/>
    </contour>
  </outline>
</glyph>
<glyph name="Aring" format="1">
  <advance width="601"/>
  <unicode hex="00C5"/>
  <outline>
    <contour>
      <point x="334" y="680" type="line"/>
      <point x="257" y="680" type="line"/>
      <point x="6" y="0" type="line"/>
      <point x="83" y="0" type="line"/>
      <point x="154" y="193" type="line"/>
      <point x="441" y="193" type="line"/>
      <point x="516" y="0" type="line"/>
      <point x="595" y="12" type="line"/>
    </contour>
    <contour>
      <point x="295" y="575" type="line"/>
      <point x="418" y="257" type="line"/>
      <point x="176" y="257" type="line"/>
    </contour>
    <contour>
      <point x="338" y="806"/>
      <point x="318" y="788"/>
      <point x="295" y="788" type="curve"/>
      <point x="271" y="788"/>
      <point x="252" y="806"/>
      <point x="252" y="829" type="curve"/>
      <point x="252" y="853"/>
      <point x="271" y="872"/>
      <point x="295" y="872" type="curve"/>
      <point x="318" y="872"/>
      <point x="338" y="853"/>
      <point x="338" y="829" type="curve"/>
    </contour>
    <contour>
      <point x="388" y="879"/>
      <point x="345" y="917"/>
      <point x="295" y="917" type="curve"/>
      <point x="244" y="917"/>
      <point x="201" y="879"/>
      <point x="201" y="829" type="curve"/>
      <point x="201" y="779"/>
      <point x="244" y="744"/>
      <point x="295" y="744" type="curve"/>
      <point x="345" y="744"/>
      <point x="388" y="779"/>
      <point x="388" y="829" type="curve"/>
    </contour>
  </outline>
</glyph>
<glyph name="AE" format="1">
  <advance width="878"/>
  <unicode hex="00C6"/>
  <outline>
    <contour>
      <point x="439" y="0" type="line"/>
      <point x="849" y="0" type="line"/>
      <point x="846" y="21"/>
      <point x="843" y="41"/>
      <point x="841" y="62" type="curve"/>
      <point x="519" y="62" type="line"/>
      <point x="519" y="317" type="line"/>
      <point x="724" y="317" type="line"/>
      <point x="720" y="337"/>
      <point x="717" y="357"/>
      <point x="714" y="377" type="curve"/>
      <point x="519" y="377" type="line"/>
      <point x="519" y="620" type="line"/>
      <point x="821" y="620" type="line"/>
      <point x="812" y="680" type="line"/>
      <point x="429" y="680" type="line"/>
      <point x="287" y="457"/>
      <point x="146" y="234"/>
      <point x="4" y="12" type="curve"/>
      <point x="29" y="8"/>
      <point x="53" y="3"/>
      <point x="78" y="0" type="curve"/>
      <point x="200" y="193" type="line"/>
      <point x="439" y="193" type="line"/>
    </contour>
    <contour>
      <point x="241" y="256" type="line"/>
      <point x="307" y="362"/>
      <point x="373" y="466"/>
      <point x="439" y="571" type="curve"/>
      <point x="439" y="256" type="line"/>
    </contour>
  </outline>
</glyph>
<glyph name="Iacute" format="1">
  <advance width="278"/>
  <unicode hex="00CD"/>
  <outline>
    <contour>
      <point x="99" y="0" type="line"/>
      <point x="178" y="0" type="line"/>
      <point x="178" y="680" type="line"/>
      <point x="99" y="680" type="line"/>
    </contour>
    <contour>
      <point x="142" y="894" type="line"/>
      <point x="82" y="739" type="line"/>
      <point x="141" y="739" type="line"/>
      <point x="229" y="894" type="line"/>
    </contour>
  </outline>
</glyph>
<glyph name="Ntilde" format="1">
  <advance width="713"/>
  <unicode hex="00D1"/>
  <outline>
    <contour>
      <point x="99" y="0" type="line"/>
      <point x="178" y="0" type="line"/>
      <point x="178" y="533" type="line"/>
      <point x="204" y="489" type="line"/>
      <point x="551" y="0" type="line"/>
      <point x="614" y="0" type="line"/>
      <point x="614" y="680" type="line"/>
      <point x="534" y="680" type="line"/>
      <point x="534" y="153" type="line"/>
      <point x="493" y="220" type="line"/>
      <point x="162" y="680" type="line"/>
      <point x="99" y="680" type="line"/>
    </contour>
    <contour>
      <point x="457" y="853" type="line"/>
      <point x="456" y="826"/>
      <point x="439" y="813"/>
      <point x="422" y="813" type="curve" smooth="yes"/>
      <point x="387" y="813"/>
      <point x="364" y="857"/>
      <point x="309" y="857" type="curve" smooth="yes"/>
      <point x="259" y="857"/>
      <point x="220" y="834"/>
      <point x="220" y="759" type="curve"/>
      <point x="276" y="759" type="line"/>
      <point x="277" y="784"/>
      <point x="295" y="799"/>
      <point x="312" y="799" type="curve" smooth="yes"/>
      <point x="346" y="799"/>
      <point x="376" y="754"/>
      <point x="422" y="754" type="curve" smooth="yes"/>
      <point x="473" y="754"/>
      <point x="512" y="778"/>
      <point x="512" y="853" type="curve"/>
    </contour>
  </outline>
</glyph>
<glyph name="Odieresis" format="1">
  <advance width="737"/>
  <unicode hex="00D6"/>
  <outline>
    <contour>
      <point x="173" y="692"/>
      <point x="69" y="540"/>
      <point x="69" y="337" type="curve"/>
      <point x="69" y="149"/>
      <point x="156" y="-14"/>
      <point x="366" y="-14" type="curve"/>
      <point x="564" y="-11"/>
      <point x="669" y="150"/>
      <point x="669" y="345" type="curve"/>
      <point x="669" y="533"/>
      <point x="581" y="696"/>
      <point x="371" y="696" type="curve"/>
    </contour>
    <contour>
      <point x="217" y="54"/>
      <point x="152" y="180"/>
      <point x="152" y="338" type="curve"/>
      <point x="152" y="508"/>
      <point x="238" y="626"/>
      <point x="372" y="626" type="curve"/>
      <point x="520" y="626"/>
      <point x="584" y="502"/>
      <point x="584" y="344" type="curve"/>
      <point x="584" y="169"/>
      <point x="500" y="54"/>
      <point x="364" y="54" type="curve"/>
    </contour>
    <contour>
      <point x="502" y="839"/>
      <point x="482" y="861"/>
      <point x="454" y="861" type="curve"/>
      <point x="427" y="861"/>
      <point x="405" y="839"/>
      <point x="405" y="813" type="curve"/>
      <point x="405" y="785"/>
      <point x="427" y="764"/>
      <point x="454" y="764" type="curve"/>
      <point x="482" y="764"/>
      <point x="502" y="785"/>
      <point x="502" y="813" type="curve"/>
    </contour>
    <contour>
      <point x="337" y="839"/>
      <point x="316" y="861"/>
      <point x="288" y="861" type="curve"/>
      <point x="262" y="861"/>
      <point x="240" y="839"/>
      <point x="240" y="813" type="curve"/>
      <point x="240" y="785"/>
      <point x="262" y="764"/>
      <point x="288" y="764" type="curve"/>
      <point x="316" y="764"/>
      <point x="337" y="785"/>
      <point x="337" y="813" type="curve"/>
    </contour>
  </outline>
</glyph>
<glyph name="multiply" format="1">
  <advance width="489"/>
  <unicode hex="00D7"/>
  <outline>
    <contour>
      <point x="21" y="42" type="line"/>
      <point x="93" y="29" type="line"/>
      <point x="163" y="114" type="line" smooth="yes"/>
      <point x="186" y="142"/>
      <point x="209" y="171"/>
      <point x="234" y="200" type="curve"/>
      <point x="372" y="30" type="line"/>
      <point x="453" y="30" type="line"/>
      <point x="283" y="243" type="line"/>
      <point x="344" y="318"/>
      <point x="407" y="394"/>
      <point x="469" y="469" type="curve"/>
      <point x="388" y="469" type="line"/>
      <point x="340" y="410"/>
      <point x="290" y="353"/>
      <point x="242" y="295" type="curve"/>
      <point x="102" y="469" type="line"/>
      <point x="28" y="457" type="line"/>
      <point x="193" y="252" type="line"/>
    </contour>
  </outline>
</glyph>
<glyph name="Oslash" format="1">
  <advance width="737"/>
  <unicode hex="00D8"/>
  <outline>
    <contour>
      <point x="173" y="692"/>
      <point x="69" y="540"/>
      <point x="69" y="337" type="curve"/>
      <point x="69" y="149"/>
      <point x="156" y="-14"/>
      <point x="366" y="-14" type="curve"/>
      <point x="564" y="-11"/>
      <point x="669" y="150"/>
      <point x="669" y="345" type="curve"/>
      <point x="669" y="533"/>
      <point x="581" y="696"/>
      <point x="371" y="696" type="curve"/>
    </contour>
    <contour>
      <point x="152" y="508"/>
      <point x="238" y="626"/>
      <point x="372" y="626" type="curve"/>
      <point x="398" y="626"/>
      <point x="423" y="622"/>
      <point x="444" y="614" type="curve"/>
      <point x="226" y="110" type="line"/>
      <point x="176" y="161"/>
      <point x="152" y="244"/>
      <point x="152" y="338" type="curve"/>
    </contour>
    <contour>
      <point x="335" y="54"/>
      <point x="309" y="60"/>
      <point x="288" y="70" type="curve"/>
      <point x="506" y="574" type="line"/>
      <point x="559" y="525"/>
      <point x="584" y="440"/>
      <point x="584" y="344" type="curve"/>
      <point x="584" y="169"/>
      <point x="500" y="54"/>
      <point x="364" y="54" type="curve"/>
    </contour>
  </outline>
</glyph>
<glyph name="Ucircumflex" format="1">
  <advance width="692"/>
  <unicode hex="00DB"/>
  <outline>
    <contour>
      <point x="237" y="54"/>
      <point x="169" y="134"/>
      <point x="169" y="250" type="curve" smooth="yes"/>
      <point x="169" y="680" type="line"/>
      <point x="90" y="680" type="line"/>
      <point x="90" y="241" type="line" smooth="yes"/>
      <point x="90" y="94"/>
      <point x="187" y="-11"/>
      <point x="345" y="-11" type="curve" smooth="yes"/>
      <point x="505" y="-11"/>
      <point x="601" y="94"/>
      <point x="601" y="241" type="curve" smooth="yes"/>
      <point x="601" y="680" type="line"/>
      <point x="521" y="680" type="line"/>
      <point x="521" y="250" type="line" smooth="yes"/>
      <point x="521" y="135"/>
      <point x="457" y="54"/>
      <point x="345" y="54" type="curve" smooth="yes"/>
    </contour>
    <contour>
      <point x="273" y="739" type="line"/>
      <point x="346" y="837" type="line"/>
      <point x="418" y="739" type="line"/>
      <point x="494" y="739" type="line"/>
      <point x="377" y="894" type="line"/>
      <point x="314" y="894" type="line"/>
      <point x="197" y="739" type="line"/>
    </contour>
  </outline>
</glyph>
<glyph name="Yacute" format="1">
  <advance width="561"/>
  <unicode hex="00DD"/>
  <outline>
    <contour>
      <point x="238" y="0" type="line"/>
      <point x="318" y="0" type="line"/>
      <point x="319" y="277" type="line"/>
      <point x="556" y="680" type="line"/>
      <point x="472" y="680" type="line"/>
      <point x="278" y="351" type="line"/>
      <point x="88" y="680" type="line"/>
      <point x="6" y="667" type="line"/>
      <point x="239" y="273" type="line"/>
    </contour>
    <contour>
      <point x="278" y="895" type="line"/>
      <point x="218" y="739" type="line"/>
      <point x="277" y="739" type="line"/>
      <point x="365" y="895" type="line"/>
    </contour>
  </outline>
</glyph>
<glyph name="Thorn" format="1">
  <advance width="593"/>
  <unicode hex="00DE"/>
  <outline>
    <contour>
      <point x="99" y="0" type="line"/>
      <point x="178" y="0" type="line"/>
      <point x="178" y="143" type="line"/>
      <point x="274" y="143" type="line" smooth="yes"/>
      <point x="415" y="143"/>
      <point x="536" y="208"/>
      <point x="536" y="358" type="curve" smooth="yes"/>
      <point x="536" y="509"/>
      <point x="428" y="566"/>
      <point x="285" y="566" type="curve" smooth="yes"/>
      <point x="178" y="566" type="line"/>
      <point x="178" y="680" type="line"/>
      <point x="99" y="680" type="line"/>
    </contour>
    <contour>
      <point x="285" y="500" type="line" smooth="yes"/>
      <point x="389" y="500"/>
      <point x="454" y="465"/>
      <point x="454" y="355" type="curve"/>
      <point x="452" y="250"/>
      <point x="377" y="209"/>
      <point x="277" y="209" type="curve" smooth="yes"/>
      <point x="178" y="209" type="line"/>
      <point x="178" y="500" type="line"/>
    </contour>
  </outline>
</glyph>
<glyph name="germandbls" format="1">
  <advance width="593"/>
  <unicode hex="00DF"/>
  <outline>
    <contour>
      <point x="167" y="685"/>
      <point x="80" y="609"/>
      <point x="80" y="473" type="curve"/>
      <point x="80" y="0" type="line"/>
      <point x="159" y="0" type="line"/>
      <point x="159" y="472" type="line" smooth="yes"/>
      <point x="159" y="559"/>
      <point x="208" y="618"/>
      <point x="299" y="618" type="curve"/>
      <point x="368" y="618"/>
      <point x="425" y="581"/>
      <point x="425" y="501" type="curve"/>
      <point x="425" y="424"/>
      <point x="381" y="384"/>
      <point x="273" y="384" type="curve"/>
      <point x="244" y="384" type="line"/>
      <point x="244" y="320" type="line"/>
      <point x="301" y="320" type="line" smooth="yes"/>
      <point x="397" y="320"/>
      <point x="463" y="280"/>
      <point x="463" y="189" type="curve"/>
      <point x="463" y="96"/>
      <point x="387" y="66"/>
      <point x="291" y="66" type="curve"/>
      <point x="230" y="66" type="line"/>
      <point x="230" y="0" type="line"/>
      <point x="292" y="0" type="line" smooth="yes"/>
      <point x="435" y="0"/>
      <point x="544" y="52"/>
      <point x="544" y="190" type="curve"/>
      <point x="544" y="277"/>
      <point x="492" y="334"/>
      <point x="422" y="360" type="curve"/>
      <point x="475" y="386"/>
      <point x="506" y="437"/>
      <point x="506" y="504" type="curve"/>
      <point x="506" y="627"/>
      <point x="412" y="685"/>
      <point x="299" y="685" type="curve"/>
    </contour>
  </outline>
</glyph>
<glyph name="acircumflex" format="1">
  <advance width="504"/>
  <unicode hex="00E2"/>
  <outline>
    <contour>
      <point x="202" y="498"/>
      <point x="120" y="481"/>
      <point x="82" y="455" type="curve"/>
      <point x="90" y="435"/>
      <point x="98" y="415"/>
      <point x="105" y="395" type="curve"/>
      <point x="141" y="411"/>
      <point x="180" y="429"/>
      <point x="245" y="429" type="curve" smooth="yes"/>
      <point x="336" y="429"/>
      <point x="351" y="365"/>
      <point x="351" y="285" type="curve"/>
      <point x="226" y="285" type="line" smooth="yes"/>
      <point x="122" y="285"/>
      <point x="51" y="234"/>
      <point x="51" y="138" type="curve" smooth="yes"/>
      <point x="51" y="51"/>
      <point x="104" y="-12"/>
      <point x="217" y="-12" type="curve" smooth="yes"/>
      <point x="271" y="-12"/>
      <point x="329" y="18"/>
      <point x="362" y="49" type="curve"/>
      <point x="383" y="0" type="line"/>
      <point x="431" y="0" type="line"/>
      <point x="431" y="334" type="line" smooth="yes"/>
      <point x="431" y="432"/>
      <point x="354" y="498"/>
      <point x="242" y="498" type="curve" smooth="yes"/>
    </contour>
    <contour>
      <point x="151" y="51"/>
      <point x="124" y="96"/>
      <point x="124" y="138" type="curve" smooth="yes"/>
      <point x="124" y="189"/>
      <point x="158" y="233"/>
      <point x="224" y="233" type="curve" smooth="yes"/>
      <point x="352" y="233" type="line"/>
      <point x="352" y="122" type="line"/>
      <point x="318" y="83"/>
      <point x="271" y="51"/>
      <point x="215" y="51" type="curve" smooth="yes"/>
    </contour>
    <contour>
      <point x="175" y="589" type="line"/>
      <point x="248" y="687" type="line"/>
      <point x="321" y="589" type="line"/>
      <point x="396" y="589" type="line"/>
      <point x="278" y="744" type="line"/>
      <point x="217" y="744" type="line"/>
      <point x="99" y="589" type="line"/>
    </contour>
  </outline>
</glyph>
<glyph name="ecircumflex" format="1">
  <advance width="528"/>
  <unicode hex="00EA"/>
  <outline>
    <contour>
      <point x="483" y="230" type="line"/>
      <point x="483" y="376"/>
      <point x="426" y="498"/>
      <point x="275" y="498" type="curve" smooth="yes"/>
      <point x="130" y="498"/>
      <point x="51" y="392"/>
      <point x="49" y="244" type="curve"/>
      <point x="49" y="92"/>
      <point x="132" y="-12"/>
      <point x="294" y="-12" type="curve" smooth="yes"/>
      <point x="334" y="-12"/>
      <point x="414" y="0"/>
      <point x="455" y="28" type="curve"/>
      <point x="430" y="86" type="line"/>
      <point x="393" y="68"/>
      <point x="357" y="52"/>
      <point x="292" y="52" type="curve" smooth="yes"/>
      <point x="182" y="52"/>
      <point x="135" y="127"/>
      <point x="131" y="230" type="curve"/>
    </contour>
    <contour>
      <point x="357" y="431"/>
      <point x="394" y="371"/>
      <point x="405" y="284" type="curve"/>
      <point x="133" y="284" type="line"/>
      <point x="143" y="371"/>
      <point x="187" y="431"/>
      <point x="272" y="431" type="curve" smooth="yes"/>
    </contour>
    <contour>
      <point x="203" y="589" type="line"/>
      <point x="276" y="687" type="line"/>
      <point x="299" y="654"/>
      <point x="324" y="621"/>
      <point x="347" y="589" type="curve"/>
      <point x="423" y="589" type="line"/>
      <point x="306" y="744" type="line"/>
      <point x="244" y="744" type="line"/>
      <point x="126" y="589" type="line"/>
    </contour>
  </outline>
</glyph>
<glyph name="edieresis" format="1">
  <advance width="528"/>
  <unicode hex="00EB"/>
  <outline>
    <contour>
      <point x="483" y="230" type="line"/>
      <point x="483" y="376"/>
      <point x="426" y="498"/>
      <point x="275" y="498" type="curve" smooth="yes"/>
      <point x="130" y="498"/>
      <point x="51" y="392"/>
      <point x="49" y="244" type="curve"/>
      <point x="49" y="92"/>
      <point x="132" y="-12"/>
      <point x="294" y="-12" type="curve" smooth="yes"/>
      <point x="334" y="-12"/>
      <point x="414" y="0"/>
      <point x="455" y="28" type="curve"/>
      <point x="430" y="86" type="line"/>
      <point x="393" y="68"/>
      <point x="357" y="52"/>
      <point x="292" y="52" type="curve" smooth="yes"/>
      <point x="182" y="52"/>
      <point x="135" y="127"/>
      <point x="131" y="230" type="curve"/>
    </contour>
    <contour>
      <point x="357" y="431"/>
      <point x="394" y="371"/>
      <point x="405" y="284" type="curve"/>
      <point x="133" y="284" type="line"/>
      <point x="143" y="371"/>
      <point x="187" y="431"/>
      <point x="272" y="431" type="curve" smooth="yes"/>
    </contour>
    <contour>
      <point x="241" y="689"/>
      <point x="219" y="711"/>
      <point x="191" y="711" type="curve" smooth="yes"/>
      <point x="164" y="711"/>
      <point x="143" y="689"/>
      <point x="143" y="663" type="curve" smooth="yes"/>
      <point x="143" y="635"/>
      <point x="164" y="614"/>
      <point x="191" y="614" type="curve" smooth="yes"/>
      <point x="219" y="614"/>
      <point x="241" y="635"/>
      <point x="241" y="663" type="curve" smooth="yes"/>
    </contour>
    <contour>
      <point x="405" y="689"/>
      <point x="384" y="711"/>
      <point x="357" y="711" type="curve" smooth="yes"/>
      <point x="329" y="711"/>
      <point x="307" y="689"/>
      <point x="307" y="663" type="curve" smooth="yes"/>
      <point x="307" y="635"/>
      <point x="329" y="614"/>
      <point x="357" y="614" type="curve" smooth="yes"/>
      <point x="384" y="614"/>
      <point x="405" y="635"/>
      <point x="405" y="663" type="curve" smooth="yes"/>
    </contour>
  </outline>
</glyph>
<glyph name="igrave" format="1">
  <advance width="238"/>
  <unicode hex="00EC"/>
  <outline>
    <contour>
      <point x="79" y="0" type="line"/>
      <point x="159" y="0" type="line"/>
      <point x="159" y="485" type="line"/>
      <point x="79" y="485" type="line"/>
    </contour>
    <contour>
      <point x="11" y="744" type="line"/>
      <point x="98" y="589" type="line"/>
      <point x="158" y="589" type="line"/>
      <point x="98" y="744" type="line"/>
    </contour>
  </outline>
</glyph>
<glyph name="iacute" format="1">
  <advance width="238"/>
  <unicode hex="00ED"/>
  <outline>
    <contour>
      <point x="79" y="0" type="line"/>
      <point x="159" y="0" type="line"/>
      <point x="159" y="485" type="line"/>
      <point x="79" y="485" type="line"/>
    </contour>
    <contour>
      <point x="140" y="744" type="line"/>
      <point x="79" y="589" type="line"/>
      <point x="139" y="589" type="line"/>
      <point x="227" y="744" type="line"/>
    </contour>
  </outline>
</glyph>
<glyph name="icircumflex" format="1">
  <advance width="238"/>
  <unicode hex="00EE"/>
  <outline>
    <contour>
      <point x="79" y="0" type="line"/>
      <point x="159" y="0" type="line"/>
      <point x="159" y="485" type="line"/>
      <point x="79" y="485" type="line"/>
    </contour>
    <contour>
      <point x="46" y="589" type="line"/>
      <point x="71" y="621"/>
      <point x="96" y="654"/>
      <point x="120" y="687" type="curve"/>
      <point x="191" y="589" type="line"/>
      <point x="268" y="589" type="line"/>
      <point x="150" y="744" type="line"/>
      <point x="88" y="744" type="line"/>
      <point x="48" y="692"/>
      <point x="10" y="641"/>
      <point x="-29" y="589" type="curve"/>
    </contour>
  </outline>
</glyph>
<glyph name="idieresis" format="1">
  <advance width="238"/>
  <unicode hex="00EF"/>
  <outline>
    <contour>
      <point x="79" y="0" type="line"/>
      <point x="159" y="0" type="line"/>
      <point x="159" y="485" type="line"/>
      <point x="79" y="485" type="line"/>
    </contour>
    <contour>
      <point x="86" y="689"/>
      <point x="63" y="711"/>
      <point x="36" y="711" type="curve" smooth="yes"/>
      <point x="9" y="711"/>
      <point x="-12" y="689"/>
      <point x="-12" y="663" type="curve" smooth="yes"/>
      <point x="-12" y="635"/>
      <point x="9" y="614"/>
      <point x="36" y="614" type="curve" smooth="yes"/>
      <point x="63" y="614"/>
      <point x="86" y="635"/>
      <point x="86" y="663" type="curve" smooth="yes"/>
    </contour>
    <contour>
      <point x="251" y="689"/>
      <point x="229" y="711"/>
      <point x="202" y="711" type="curve" smooth="yes"/>
      <point x="175" y="711"/>
      <point x="152" y="689"/>
      <point x="152" y="663" type="curve" smooth="yes"/>
      <point x="152" y="635"/>
      <point x="175" y="614"/>
      <point x="202" y="614" type="curve" smooth="yes"/>
      <point x="229" y="614"/>
      <point x="251" y="635"/>
      <point x="251" y="663" type="curve" smooth="yes"/>
    </contour>
  </outline>
</glyph>
<glyph name="ntilde" format="1">
  <advance width="559"/>
  <unicode hex="00F1"/>
  <outline>
    <contour>
      <point x="78" y="0" type="line"/>
      <point x="157" y="0" type="line"/>
      <point x="157" y="353" type="line"/>
      <point x="200" y="403"/>
      <point x="267" y="432"/>
      <point x="309" y="432" type="curve" smooth="yes"/>
      <point x="376" y="432"/>
      <point x="407" y="383"/>
      <point x="407" y="318" type="curve" smooth="yes"/>
      <point x="407" y="0" type="line"/>
      <point x="486" y="0" type="line"/>
      <point x="486" y="328" type="line" smooth="yes"/>
      <point x="486" y="427"/>
      <point x="434" y="499"/>
      <point x="322" y="499" type="curve" smooth="yes"/>
      <point x="264" y="499"/>
      <point x="192" y="462"/>
      <point x="151" y="415" type="curve"/>
      <point x="142" y="438"/>
      <point x="134" y="462"/>
      <point x="126" y="485" type="curve"/>
      <point x="78" y="485" type="line"/>
    </contour>
    <contour>
      <point x="402" y="703" type="line"/>
      <point x="400" y="675"/>
      <point x="382" y="663"/>
      <point x="366" y="663" type="curve" smooth="yes"/>
      <point x="332" y="663"/>
      <point x="309" y="707"/>
      <point x="254" y="707" type="curve" smooth="yes"/>
      <point x="205" y="707"/>
      <point x="164" y="684"/>
      <point x="164" y="609" type="curve"/>
      <point x="221" y="609" type="line"/>
      <point x="222" y="634"/>
      <point x="238" y="649"/>
      <point x="256" y="649" type="curve" smooth="yes"/>
      <point x="291" y="649"/>
      <point x="320" y="604"/>
      <point x="367" y="604" type="curve" smooth="yes"/>
      <point x="418" y="604"/>
      <point x="457" y="628"/>
      <point x="457" y="703" type="curve"/>
    </contour>
  </outline>
</glyph>
<glyph name="otilde" format="1">
  <advance width="543"/>
  <unicode hex="00F5"/>
  <outline>
    <contour>
      <point x="49" y="95"/>
      <point x="120" y="-12"/>
      <point x="264" y="-12" type="curve" smooth="yes"/>
      <point x="408" y="-12"/>
      <point x="493" y="90"/>
      <point x="493" y="239" type="curve" smooth="yes"/>
      <point x="493" y="390"/>
      <point x="421" y="498"/>
      <point x="273" y="498" type="curve"/>
      <point x="129" y="496"/>
      <point x="51" y="391"/>
      <point x="49" y="244" type="curve"/>
    </contour>
    <contour>
      <point x="377" y="430"/>
      <point x="414" y="349"/>
      <point x="414" y="239" type="curve" smooth="yes"/>
      <point x="414" y="127"/>
      <point x="363" y="54"/>
      <point x="265" y="54" type="curve" smooth="yes"/>
      <point x="164" y="54"/>
      <point x="130" y="132"/>
      <point x="130" y="245" type="curve" smooth="yes"/>
      <point x="130" y="355"/>
      <point x="177" y="430"/>
      <point x="276" y="430" type="curve" smooth="yes"/>
    </contour>
    <contour>
      <point x="361" y="703" type="line"/>
      <point x="360" y="676"/>
      <point x="342" y="663"/>
      <point x="326" y="663" type="curve" smooth="yes"/>
      <point x="291" y="663"/>
      <point x="268" y="707"/>
      <point x="213" y="707" type="curve" smooth="yes"/>
      <point x="164" y="707"/>
      <point x="123" y="684"/>
      <point x="123" y="609" type="curve"/>
      <point x="181" y="609" type="line"/>
      <point x="182" y="634"/>
      <point x="198" y="649"/>
      <point x="216" y="649" type="curve" smooth="yes"/>
      <point x="252" y="649"/>
      <point x="281" y="604"/>
      <point x="327" y="604" type="curve" smooth="yes"/>
      <point x="377" y="604"/>
      <point x="417" y="628"/>
      <point x="417" y="703" type="curve"/>
    </contour>
  </outline>
</glyph>
<glyph name="odieresis" format="1">
  <advance width="543"/>
  <unicode hex="00F6"/>
  <outline>
    <contour>
      <point x="49" y="94"/>
      <point x="120" y="-11"/>
      <point x="264" y="-13" type="curve"/>
      <point x="409" y="-13"/>
      <point x="492" y="90"/>
      <point x="493" y="239" type="curve"/>
      <point x="493" y="390"/>
      <point x="421" y="498"/>
      <point x="274" y="498" type="curve"/>
      <point x="129" y="496"/>
      <point x="51" y="392"/>
      <point x="49" y="245" type="curve"/>
    </contour>
    <contour>
      <point x="377" y="430"/>
      <point x="414" y="350"/>
      <point x="414" y="239" type="curve"/>
      <point x="412" y="127"/>
      <point x="365" y="55"/>
      <point x="265" y="55" type="curve"/>
      <point x="165" y="55"/>
      <point x="130" y="132"/>
      <point x="130" y="246" type="curve"/>
      <point x="132" y="355"/>
      <point x="177" y="430"/>
      <point x="276" y="430" type="curve"/>
    </contour>
    <contour>
      <point x="405" y="689"/>
      <point x="384" y="711"/>
      <point x="356" y="711" type="curve"/>
      <point x="329" y="711"/>
      <point x="307" y="689"/>
      <point x="307" y="663" type="curve"/>
      <point x="307" y="635"/>
      <point x="329" y="614"/>
      <point x="356" y="614" type="curve"/>
      <point x="384" y="614"/>
      <point x="405" y="635"/>
      <point x="405" y="663" type="curve"/>
    </contour>
    <contour>
      <point x="239" y="689"/>
      <point x="218" y="711"/>
      <point x="191" y="711" type="curve"/>
      <point x="163" y="711"/>
      <point x="142" y="689"/>
      <point x="142" y="663" type="curve"/>
      <point x="142" y="635"/>
      <point x="163" y="614"/>
      <point x="191" y="614" type="curve"/>
      <point x="218" y="614"/>
      <point x="239" y="635"/>
      <point x="239" y="663" type="curve"/>
    </contour>
  </outline>
</glyph>
<glyph name="divide" format="1">
  <advance width="480"/>
  <unicode hex="00F7"/>
  <outline>
    <contour>
      <point x="177" y="388"/>
      <point x="203" y="360"/>
      <point x="239" y="360" type="curve"/>
      <point x="273" y="360"/>
      <point x="300" y="388"/>
      <point x="300" y="421" type="curve"/>
      <point x="300" y="456"/>
      <point x="273" y="482"/>
      <point x="239" y="482" type="curve"/>
      <point x="203" y="482"/>
      <point x="177" y="456"/>
      <point x="177" y="421" type="curve"/>
    </contour>
    <contour>
      <point x="179" y="77"/>
      <point x="206" y="49"/>
      <point x="240" y="49" type="curve"/>
      <point x="274" y="49"/>
      <point x="302" y="77"/>
      <point x="302" y="111" type="curve"/>
      <point x="302" y="145"/>
      <point x="274" y="172"/>
      <point x="240" y="172" type="curve"/>
      <point x="206" y="172"/>
      <point x="179" y="145"/>
      <point x="179" y="111" type="curve"/>
    </contour>
    <contour>
      <point x="460" y="242" type="line"/>
      <point x="452" y="305" type="line"/>
      <point x="20" y="305" type="line"/>
      <point x="28" y="242" type="line"/>
    </contour>
  </outline>
</glyph>
<glyph name="oslash" format="1">
  <advance width="543"/>
  <unicode hex="00F8"/>
  <outline>
    <contour>
      <point x="49" y="94"/>
      <point x="120" y="-11"/>
      <point x="264" y="-13" type="curve"/>
      <point x="409" y="-13"/>
      <point x="492" y="90"/>
      <point x="493" y="239" type="curve"/>
      <point x="493" y="390"/>
      <point x="421" y="498"/>
      <point x="274" y="498" type="curve"/>
      <point x="129" y="496"/>
      <point x="51" y="392"/>
      <point x="49" y="245" type="curve"/>
    </contour>
    <contour>
      <point x="412" y="127"/>
      <point x="365" y="55"/>
      <point x="265" y="55" type="curve"/>
      <point x="250" y="55"/>
      <point x="234" y="56"/>
      <point x="223" y="61" type="curve"/>
      <point x="385" y="370" type="line"/>
      <point x="404" y="338"/>
      <point x="414" y="291"/>
      <point x="414" y="239" type="curve"/>
    </contour>
    <contour>
      <point x="297" y="430"/>
      <point x="317" y="426"/>
      <point x="330" y="418" type="curve"/>
      <point x="165" y="103" type="line"/>
      <point x="139" y="136"/>
      <point x="130" y="186"/>
      <point x="130" y="246" type="curve"/>
      <point x="132" y="355"/>
      <point x="177" y="430"/>
      <point x="276" y="430" type="curve"/>
    </contour>
  </outline>
</glyph>
<glyph name="uacute" format="1">
  <advance width="542"/>
  <unicode hex="00FA"/>
  <outline>
    <contour>
      <point x="289" y="-14"/>
      <point x="349" y="14"/>
      <point x="392" y="53" type="curve"/>
      <point x="415" y="0" type="line"/>
      <point x="464" y="0" type="line"/>
      <point x="464" y="485" type="line"/>
      <point x="385" y="485" type="line"/>
      <point x="385" y="114" type="line"/>
      <point x="342" y="75"/>
      <point x="286" y="53"/>
      <point x="249" y="53" type="curve"/>
      <point x="183" y="53"/>
      <point x="152" y="101"/>
      <point x="152" y="166" type="curve"/>
      <point x="152" y="485" type="line"/>
      <point x="73" y="485" type="line"/>
      <point x="73" y="157" type="line"/>
      <point x="73" y="58"/>
      <point x="123" y="-14"/>
      <point x="237" y="-14" type="curve"/>
    </contour>
    <contour>
      <point x="272" y="745" type="line"/>
      <point x="213" y="589" type="line"/>
      <point x="271" y="589" type="line"/>
      <point x="360" y="745" type="line"/>
    </contour>
  </outline>
</glyph>
<glyph name="udieresis" format="1">
  <advance width="542"/>
  <unicode hex="00FC"/>
  <outline>
    <contour>
      <point x="289" y="-14"/>
      <point x="349" y="14"/>
      <point x="392" y="53" type="curve"/>
      <point x="415" y="0" type="line"/>
      <point x="464" y="0" type="line"/>
      <point x="464" y="485" type="line"/>
      <point x="385" y="485" type="line"/>
      <point x="385" y="114" type="line"/>
      <point x="342" y="75"/>
      <point x="286" y="53"/>
      <point x="249" y="53" type="curve"/>
      <point x="183" y="53"/>
      <point x="152" y="101"/>
      <point x="152" y="166" type="curve"/>
      <point x="152" y="485" type="line"/>
      <point x="73" y="485" type="line"/>
      <point x="73" y="157" type="line"/>
      <point x="73" y="58"/>
      <point x="123" y="-14"/>
      <point x="237" y="-14" type="curve"/>
    </contour>
    <contour>
      <point x="401" y="689"/>
      <point x="380" y="711"/>
      <point x="352" y="711" type="curve"/>
      <point x="326" y="711"/>
      <point x="303" y="689"/>
      <point x="303" y="663" type="curve"/>
      <point x="303" y="635"/>
      <point x="326" y="614"/>
      <point x="352" y="614" type="curve"/>
      <point x="380" y="614"/>
      <point x="401" y="635"/>
      <point x="401" y="663" type="curve"/>
    </contour>
    <contour>
      <point x="236" y="689"/>
      <point x="215" y="711"/>
      <point x="188" y="711" type="curve"/>
      <point x="160" y="711"/>
      <point x="137" y="689"/>
      <point x="137" y="663" type="curve"/>
      <point x="137" y="635"/>
      <point x="160" y="614"/>
      <point x="188" y="614" type="curve"/>
      <point x="215" y="614"/>
      <point x="236" y="635"/>
      <point x="236" y="663" type="curve"/>
    </contour>
  </outline>
</glyph>
<glyph name="thorn" format="1">
  <advance width="552"/>
  <unicode hex="00FE"/>
  <outline>
    <contour>
      <point x="80" y="-219" type="line"/>
      <point x="159" y="-208" type="line"/>
      <point x="159" y="35" type="line"/>
      <point x="198" y="6"/>
      <point x="247" y="-12"/>
      <point x="290" y="-12" type="curve" smooth="yes"/>
      <point x="432" y="-12"/>
      <point x="501" y="94"/>
      <point x="501" y="243" type="curve" smooth="yes"/>
      <point x="501" y="391"/>
      <point x="433" y="499"/>
      <point x="290" y="499" type="curve" smooth="yes"/>
      <point x="247" y="499"/>
      <point x="198" y="479"/>
      <point x="159" y="450" type="curve"/>
      <point x="159" y="706" type="line"/>
      <point x="80" y="695" type="line"/>
    </contour>
    <contour>
      <point x="241" y="54"/>
      <point x="197" y="72"/>
      <point x="159" y="105" type="curve"/>
      <point x="159" y="380" type="line"/>
      <point x="197" y="414"/>
      <point x="241" y="432"/>
      <point x="278" y="432" type="curve" smooth="yes"/>
      <point x="385" y="432"/>
      <point x="422" y="350"/>
      <point x="422" y="242" type="curve" smooth="yes"/>
      <point x="422" y="137"/>
      <point x="383" y="54"/>
      <point x="278" y="54" type="curve" smooth="yes"/>
    </contour>
  </outline>
</glyph>
<glyph name="ydieresis" format="1">
  <advance width="477"/>
  <unicode hex="00FF"/>
  <outline>
    <contour>
      <point x="175" y="-79" type="line"/>
      <point x="158" y="-125"/>
      <point x="120" y="-141"/>
      <point x="72" y="-163" type="curve"/>
      <point x="96" y="-220" type="line"/>
      <point x="165" y="-205"/>
      <point x="224" y="-161"/>
      <point x="246" y="-100" type="curve"/>
      <point x="312" y="88" type="line"/>
      <point x="460" y="485" type="line"/>
      <point x="381" y="485" type="line"/>
      <point x="242" y="110" type="line"/>
      <point x="95" y="485" type="line"/>
      <point x="17" y="473" type="line"/>
      <point x="204" y="3" type="line"/>
    </contour>
    <contour>
      <point x="210" y="689"/>
      <point x="189" y="711"/>
      <point x="161" y="711" type="curve"/>
      <point x="134" y="711"/>
      <point x="113" y="689"/>
      <point x="113" y="663" type="curve"/>
      <point x="113" y="635"/>
      <point x="134" y="614"/>
      <point x="161" y="614" type="curve"/>
      <point x="189" y="614"/>
      <point x="210" y="635"/>
      <point x="210" y="663" type="curve"/>
    </contour>
    <contour>
      <point x="375" y="689"/>
      <point x="354" y="711"/>
      <point x="328" y="711" type="curve"/>
      <point x="299" y="711"/>
      <point x="278" y="689"/>
      <point x="278" y="663" type="curve"/>
      <point x="278" y="635"/>
      <point x="299" y="614"/>
      <point x="328" y="614" type="curve"/>
      <point x="354" y="614"/>
      <point x="375" y="635"/>
      <point x="375" y="663" type="curve"/>
    </contour>
  </outline>
</glyph>
<glyph name="Abreve" format="1">
  <advance width="601"/>
  <unicode hex="0102"/>
  <outline>
    <contour>
      <point x="334" y="680" type="line"/>
      <point x="257" y="680" type="line"/>
      <point x="6" y="0" type="line"/>
      <point x="83" y="0" type="line"/>
      <point x="154" y="193" type="line"/>
      <point x="441" y="193" type="line"/>
      <point x="516" y="0" type="line"/>
      <point x="595" y="12" type="line"/>
    </contour>
    <contour>
      <point x="295" y="575" type="line"/>
      <point x="418" y="257" type="line"/>
      <point x="176" y="257" type="line"/>
    </contour>
    <contour>
      <point x="390" y="750"/>
      <point x="429" y="815"/>
      <point x="429" y="886" type="curve"/>
      <point x="372" y="886" type="line"/>
      <point x="372" y="850"/>
      <point x="346" y="807"/>
      <point x="295" y="807" type="curve"/>
      <point x="242" y="807"/>
      <point x="218" y="850"/>
      <point x="218" y="886" type="curve"/>
      <point x="161" y="886" type="line"/>
      <point x="161" y="815"/>
      <point x="200" y="750"/>
      <point x="295" y="748" type="curve"/>
    </contour>
  </outline>
</glyph>
<glyph name="abreve" format="1">
  <advance width="504"/>
  <unicode hex="0103"/>
  <outline>
    <contour>
      <point x="202" y="498"/>
      <point x="120" y="481"/>
      <point x="82" y="455" type="curve"/>
      <point x="90" y="435"/>
      <point x="98" y="415"/>
      <point x="105" y="395" type="curve"/>
      <point x="141" y="411"/>
      <point x="180" y="429"/>
      <point x="245" y="429" type="curve" smooth="yes"/>
      <point x="336" y="429"/>
      <point x="351" y="365"/>
      <point x="351" y="285" type="curve"/>
      <point x="226" y="285" type="line" smooth="yes"/>
      <point x="122" y="285"/>
      <point x="51" y="234"/>
      <point x="51" y="138" type="curve" smooth="yes"/>
      <point x="51" y="51"/>
      <point x="104" y="-12"/>
      <point x="217" y="-12" type="curve" smooth="yes"/>
      <point x="271" y="-12"/>
      <point x="329" y="18"/>
      <point x="362" y="49" type="curve"/>
      <point x="383" y="0" type="line"/>
      <point x="431" y="0" type="line"/>
      <point x="431" y="334" type="line" smooth="yes"/>
      <point x="431" y="432"/>
      <point x="354" y="498"/>
      <point x="242" y="498" type="curve" smooth="yes"/>
    </contour>
    <contour>
      <point x="151" y="51"/>
      <point x="124" y="96"/>
      <point x="124" y="138" type="curve" smooth="yes"/>
      <point x="124" y="189"/>
      <point x="158" y="233"/>
      <point x="224" y="233" type="curve" smooth="yes"/>
      <point x="352" y="233" type="line"/>
      <point x="352" y="122" type="line"/>
      <point x="318" y="83"/>
      <point x="271" y="51"/>
      <point x="215" y="51" type="curve" smooth="yes"/>
    </contour>
    <contour>
      <point x="340" y="600"/>
      <point x="380" y="665"/>
      <point x="380" y="736" type="curve"/>
      <point x="322" y="736" type="line"/>
      <point x="322" y="700"/>
      <point x="297" y="657"/>
      <point x="246" y="657" type="curve" smooth="yes"/>
      <point x="194" y="657"/>
      <point x="169" y="700"/>
      <point x="169" y="736" type="curve"/>
      <point x="112" y="736" type="line"/>
      <point x="112" y="665"/>
      <point x="151" y="600"/>
      <point x="246" y="598" type="curve"/>
    </contour>
  </outline>
</glyph>
<glyph name="Cacute" format="1">
  <advance width="598"/>
  <unicode hex="0106"/>
  <outline>
    <contour>
      <point x="438" y="626"/>
      <point x="468" y="615"/>
      <point x="514" y="597" type="curve"/>
      <point x="539" y="655" type="line"/>
      <point x="496" y="683"/>
      <point x="410" y="694"/>
      <point x="369" y="694" type="curve"/>
      <point x="172" y="694"/>
      <point x="69" y="539"/>
      <point x="69" y="336" type="curve"/>
      <point x="69" y="147"/>
      <point x="154" y="-14"/>
      <point x="364" y="-14" type="curve"/>
      <point x="420" y="-14"/>
      <point x="499" y="3"/>
      <point x="540" y="25" type="curve"/>
      <point x="510" y="85" type="line"/>
      <point x="473" y="68"/>
      <point x="429" y="54"/>
      <point x="360" y="54" type="curve"/>
      <point x="214" y="54"/>
      <point x="152" y="182"/>
      <point x="152" y="337" type="curve"/>
      <point x="152" y="508"/>
      <point x="235" y="625"/>
      <point x="369" y="626" type="curve"/>
    </contour>
    <contour>
      <point x="372" y="895" type="line"/>
      <point x="312" y="739" type="line"/>
      <point x="371" y="739" type="line"/>
      <point x="460" y="895" type="line"/>
    </contour>
  </outline>
</glyph>
<glyph name="Dcroat" format="1">
  <advance width="702"/>
  <unicode hex="0110"/>
  <outline>
    <contour>
      <point x="105" y="0" type="line"/>
      <point x="327" y="0" type="line" smooth="yes"/>
      <point x="527" y="0"/>
      <point x="632" y="148"/>
      <point x="632" y="344" type="curve" smooth="yes"/>
      <point x="632" y="532"/>
      <point x="545" y="680"/>
      <point x="335" y="680" type="curve" smooth="yes"/>
      <point x="105" y="680" type="line"/>
      <point x="105" y="367" type="line"/>
      <point x="20" y="367" type="line"/>
      <point x="23" y="346"/>
      <point x="25" y="325"/>
      <point x="29" y="304" type="curve"/>
      <point x="105" y="304" type="line"/>
    </contour>
    <contour>
      <point x="281" y="304" type="line"/>
      <point x="273" y="367" type="line"/>
      <point x="185" y="367" type="line"/>
      <point x="185" y="612" type="line"/>
      <point x="338" y="612" type="line" smooth="yes"/>
      <point x="485" y="612"/>
      <point x="553" y="500"/>
      <point x="553" y="343" type="curve" smooth="yes"/>
      <point x="553" y="168"/>
      <point x="463" y="66"/>
      <point x="328" y="66" type="curve" smooth="yes"/>
      <point x="185" y="66" type="line"/>
      <point x="185" y="304" type="line"/>
    </contour>
  </outline>
</glyph>
<glyph name="Edotaccent" format="1">
  <advance width="538"/>
  <unicode hex="0116"/>
  <outline>
    <contour>
      <point x="99" y="0" type="line"/>
      <point x="509" y="0" type="line"/>
      <point x="500" y="62" type="line"/>
      <point x="178" y="62" type="line"/>
      <point x="178" y="317" type="line"/>
      <point x="383" y="317" type="line"/>
      <point x="379" y="337"/>
      <point x="377" y="357"/>
      <point x="374" y="377" type="curve"/>
      <point x="178" y="377" type="line"/>
      <point x="178" y="620" type="line"/>
      <point x="480" y="620" type="line"/>
      <point x="476" y="640"/>
      <point x="474" y="660"/>
      <point x="471" y="680" type="curve"/>
      <point x="99" y="680" type="line"/>
    </contour>
    <contour>
      <point x="338" y="846"/>
      <point x="314" y="870"/>
      <point x="284" y="870" type="curve" smooth="yes"/>
      <point x="254" y="870"/>
      <point x="230" y="846"/>
      <point x="230" y="816" type="curve" smooth="yes"/>
      <point x="230" y="785"/>
      <point x="254" y="762"/>
      <point x="284" y="762" type="curve" smooth="yes"/>
      <point x="314" y="762"/>
      <point x="338" y="785"/>
      <point x="338" y="816" type="curve" smooth="yes"/>
    </contour>
  </outline>
</glyph>
<glyph name="Ecaron" format="1">
  <advance width="538"/>
  <unicode hex="011A"/>
  <outline>
    <contour>
      <point x="99" y="0" type="line"/>
      <point x="509" y="0" type="line"/>
      <point x="500" y="62" type="line"/>
      <point x="178" y="62" type="line"/>
      <point x="178" y="317" type="line"/>
      <point x="383" y="317" type="line"/>
      <point x="379" y="337"/>
      <point x="377" y="357"/>
      <point x="374" y="377" type="curve"/>
      <point x="178" y="377" type="line"/>
      <point x="178" y="620" type="line"/>
      <point x="480" y="620" type="line"/>
      <point x="476" y="640"/>
      <point x="474" y="660"/>
      <point x="471" y="680" type="curve"/>
      <point x="99" y="680" type="line"/>
    </contour>
    <contour>
      <point x="134" y="894" type="line"/>
      <point x="251" y="739" type="line"/>
      <point x="314" y="739" type="line"/>
      <point x="431" y="894" type="line"/>
      <point x="355" y="894" type="line"/>
      <point x="283" y="797" type="line"/>
      <point x="259" y="830"/>
      <point x="234" y="862"/>
      <point x="210" y="894" type="curve"/>
    </contour>
  </outline>
</glyph>
<glyph name="ecaron" format="1">
  <advance width="528"/>
  <unicode hex="011B"/>
  <outline>
    <contour>
      <point x="483" y="230" type="line"/>
      <point x="483" y="376"/>
      <point x="426" y="498"/>
      <point x="275" y="498" type="curve" smooth="yes"/>
      <point x="130" y="498"/>
      <point x="51" y="392"/>
      <point x="49" y="244" type="curve"/>
      <point x="49" y="92"/>
      <point x="132" y="-12"/>
      <point x="294" y="-12" type="curve" smooth="yes"/>
      <point x="334" y="-12"/>
      <point x="414" y="0"/>
      <point x="455" y="28" type="curve"/>
      <point x="430" y="86" type="line"/>
      <point x="393" y="68"/>
      <point x="357" y="52"/>
      <point x="292" y="52" type="curve" smooth="yes"/>
      <point x="182" y="52"/>
      <point x="135" y="127"/>
      <point x="131" y="230" type="curve"/>
    </contour>
    <contour>
      <point x="357" y="431"/>
      <point x="394" y="371"/>
      <point x="405" y="284" type="curve"/>
      <point x="133" y="284" type="line"/>
      <point x="143" y="371"/>
      <point x="187" y="431"/>
      <point x="272" y="431" type="curve" smooth="yes"/>
    </contour>
    <contour>
      <point x="125" y="744" type="line"/>
      <point x="242" y="589" type="line"/>
      <point x="304" y="589" type="line"/>
      <point x="421" y="744" type="line"/>
      <point x="347" y="744" type="line"/>
      <point x="322" y="712"/>
      <point x="298" y="680"/>
      <point x="274" y="647" type="curve"/>
      <point x="250" y="680"/>
      <point x="225" y="712"/>
      <point x="201" y="744" type="curve"/>
    </contour>
  </outline>
</glyph>
<glyph name="Gcedilla" format="1">
  <advance width="657"/>
  <unicode hex="0122"/>
  <outline>
    <contour>
      <point x="362" y="349" type="line"/>
      <point x="359" y="330"/>
      <point x="357" y="310"/>
      <point x="355" y="290" type="curve"/>
      <point x="505" y="290" type="line"/>
      <point x="505" y="74" type="line"/>
      <point x="474" y="64"/>
      <point x="436" y="54"/>
      <point x="389" y="54" type="curve" smooth="yes"/>
      <point x="242" y="54"/>
      <point x="152" y="162"/>
      <point x="152" y="337" type="curve" smooth="yes"/>
      <point x="152" y="523"/>
      <point x="263" y="626"/>
      <point x="401" y="626" type="curve" smooth="yes"/>
      <point x="469" y="626"/>
      <point x="499" y="614"/>
      <point x="545" y="597" type="curve"/>
      <point x="570" y="655" type="line"/>
      <point x="527" y="682"/>
      <point x="440" y="694"/>
      <point x="399" y="694" type="curve" smooth="yes"/>
      <point x="200" y="694"/>
      <point x="69" y="550"/>
      <point x="69" y="336" type="curve" smooth="yes"/>
      <point x="69" y="151"/>
      <point x="165" y="8"/>
      <point x="346" y="-11" type="curve"/>
      <point x="338" y="-33"/>
      <point x="328" y="-57"/>
      <point x="319" y="-79" type="curve"/>
      <point x="371" y="-84"/>
      <point x="408" y="-104"/>
      <point x="408" y="-130" type="curve" smooth="yes"/>
      <point x="408" y="-153"/>
      <point x="381" y="-164"/>
      <point x="357" y="-164" type="curve" smooth="yes"/>
      <point x="338" y="-164"/>
      <point x="310" y="-156"/>
      <point x="296" y="-149" type="curve"/>
      <point x="290" y="-166"/>
      <point x="284" y="-183"/>
      <point x="277" y="-199" type="curve"/>
      <point x="297" y="-212"/>
      <point x="331" y="-221"/>
      <point x="357" y="-221" type="curve" smooth="yes"/>
      <point x="417" y="-221"/>
      <point x="472" y="-192"/>
      <point x="472" y="-128" type="curve" smooth="yes"/>
      <point x="472" y="-93"/>
      <point x="439" y="-56"/>
      <point x="395" y="-47" type="curve"/>
      <point x="409" y="-13" type="line"/>
      <point x="468" y="-10"/>
      <point x="544" y="8"/>
      <point x="581" y="32" type="curve"/>
      <point x="580" y="33" type="line"/>
      <point x="580" y="37"/>
      <point x="581" y="42"/>
      <point x="581" y="47" type="curve" smooth="yes"/>
      <point x="581" y="349" type="line"/>
    </contour>
  </outline>
</glyph>
<glyph name="Imacron" format="1">
  <advance width="278"/>
  <unicode hex="012A"/>
  <outline>
    <contour>
      <point x="99" y="0" type="line"/>
      <point x="178" y="0" type="line"/>
      <point x="178" y="680" type="line"/>
      <point x="99" y="680" type="line"/>
    </contour>
    <contour>
      <point x="15" y="845" type="line"/>
      <point x="15" y="783" type="line"/>
      <point x="261" y="783" type="line"/>
      <point x="261" y="845" type="line"/>
    </contour>
  </outline>
</glyph>
<glyph name="Iogonek" format="1">
  <advance width="278"/>
  <unicode hex="012E"/>
  <outline>
    <contour>
      <point x="99" y="3" type="line"/>
      <point x="72" y="-24"/>
      <point x="50" y="-69"/>
      <point x="50" y="-106" type="curve" smooth="yes"/>
      <point x="50" y="-165"/>
      <point x="94" y="-207"/>
      <point x="157" y="-207" type="curve" smooth="yes"/>
      <point x="192" y="-207"/>
      <point x="221" y="-195"/>
      <point x="242" y="-176" type="curve"/>
      <point x="234" y="-159"/>
      <point x="225" y="-144"/>
      <point x="216" y="-127" type="curve"/>
      <point x="201" y="-141"/>
      <point x="183" y="-147"/>
      <point x="165" y="-147" type="curve" smooth="yes"/>
      <point x="140" y="-147"/>
      <point x="118" y="-134"/>
      <point x="118" y="-101" type="curve" smooth="yes"/>
      <point x="118" y="-69"/>
      <point x="152" y="-20"/>
      <point x="178" y="0" type="curve"/>
      <point x="178" y="680" type="line"/>
      <point x="99" y="680" type="line"/>
    </contour>
  </outline>
</glyph>
<glyph name="iogonek" format="1">
  <advance width="238"/>
  <unicode hex="012F"/>
  <outline>
    <contour>
      <point x="159" y="485" type="line"/>
      <point x="79" y="485" type="line"/>
      <point x="79" y="4" type="line"/>
      <point x="56" y="-17"/>
      <point x="35" y="-51"/>
      <point x="35" y="-83" type="curve"/>
      <point x="31" y="-88"/>
      <point x="27" y="-100"/>
      <point x="27" y="-106" type="curve" smooth="yes"/>
      <point x="27" y="-165"/>
      <point x="73" y="-207"/>
      <point x="133" y="-207" type="curve" smooth="yes"/>
      <point x="169" y="-207"/>
      <point x="200" y="-195"/>
      <point x="221" y="-176" type="curve"/>
      <point x="212" y="-159"/>
      <point x="203" y="-144"/>
      <point x="195" y="-127" type="curve"/>
      <point x="179" y="-141"/>
      <point x="162" y="-147"/>
      <point x="145" y="-147" type="curve" smooth="yes"/>
      <point x="118" y="-147"/>
      <point x="97" y="-134"/>
      <point x="97" y="-101" type="curve" smooth="yes"/>
      <point x="97" y="-66"/>
      <point x="131" y="-21"/>
      <point x="157" y="0" type="curve"/>
      <point x="159" y="0" type="line"/>
    </contour>
    <contour>
      <point x="65" y="604"/>
      <point x="87" y="581"/>
      <point x="118" y="581" type="curve" smooth="yes"/>
      <point x="148" y="581"/>
      <point x="173" y="604"/>
      <point x="173" y="635" type="curve" smooth="yes"/>
      <point x="173" y="665"/>
      <point x="148" y="688"/>
      <point x="118" y="688" type="curve" smooth="yes"/>
      <point x="87" y="688"/>
      <point x="65" y="665"/>
      <point x="65" y="635" type="curve" smooth="yes"/>
    </contour>
  </outline>
</glyph>
<glyph name="Idotaccent" format="1">
  <advance width="278"/>
  <unicode hex="0130"/>
  <outline>
    <contour>
      <point x="99" y="0" type="line"/>
      <point x="178" y="0" type="line"/>
      <point x="178" y="680" type="line"/>
      <point x="99" y="680" type="line"/>
    </contour>
    <contour>
      <point x="192" y="846"/>
      <point x="169" y="870"/>
      <point x="139" y="870" type="curve" smooth="yes"/>
      <point x="108" y="870"/>
      <point x="84" y="846"/>
      <point x="84" y="816" type="curve" smooth="yes"/>
      <point x="84" y="785"/>
      <point x="108" y="762"/>
      <point x="139" y="762" type="curve" smooth="yes"/>
      <point x="169" y="762"/>
      <point x="192" y="785"/>
      <point x="192" y="816" type="curve" smooth="yes"/>
    </contour>
  </outline>
</glyph>
<glyph name="Lacute" format="1">
  <advance width="516"/>
  <unicode hex="0139"/>
  <outline>
    <contour>
      <point x="498" y="0" type="line"/>
      <point x="489" y="63" type="line"/>
      <point x="178" y="63" type="line"/>
      <point x="178" y="680" type="line"/>
      <point x="100" y="680" type="line"/>
      <point x="100" y="0" type="line"/>
    </contour>
    <contour>
      <point x="187" y="895" type="line"/>
      <point x="127" y="739" type="line"/>
      <point x="186" y="739" type="line"/>
      <point x="275" y="895" type="line"/>
    </contour>
  </outline>
</glyph>
<glyph name="lacute" format="1">
  <advance width="239"/>
  <unicode hex="013A"/>
  <outline>
    <contour>
      <point x="80" y="0" type="line"/>
      <point x="159" y="0" type="line"/>
      <point x="159" y="685" type="line"/>
      <point x="80" y="673" type="line"/>
    </contour>
    <contour>
      <point x="146" y="831" type="line"/>
      <point x="126" y="791"/>
      <point x="107" y="751"/>
      <point x="87" y="712" type="curve"/>
      <point x="147" y="712" type="line"/>
      <point x="176" y="751"/>
      <point x="204" y="791"/>
      <point x="234" y="831" type="curve"/>
    </contour>
  </outline>
</glyph>
<glyph name="Lcedilla" format="1">
  <advance width="516"/>
  <unicode hex="013B"/>
  <outline>
    <contour>
      <point x="366" y="-45"/>
      <point x="342" y="-21"/>
      <point x="311" y="-21" type="curve"/>
      <point x="281" y="-21"/>
      <point x="257" y="-46"/>
      <point x="257" y="-76" type="curve"/>
      <point x="257" y="-102"/>
      <point x="277" y="-127"/>
      <point x="303" y="-129" type="curve"/>
      <point x="298" y="-162"/>
      <point x="275" y="-185"/>
      <point x="247" y="-202" type="curve"/>
      <point x="268" y="-240" type="line"/>
      <point x="321" y="-213"/>
      <point x="366" y="-148"/>
      <point x="366" y="-84" type="curve"/>
    </contour>
    <contour>
      <point x="498" y="0" type="line"/>
      <point x="489" y="63" type="line"/>
      <point x="178" y="63" type="line"/>
      <point x="178" y="680" type="line"/>
      <point x="100" y="680" type="line"/>
      <point x="100" y="0" type="line"/>
    </contour>
  </outline>
</glyph>
<glyph name="Lcaron" format="1">
  <advance width="516"/>
  <unicode hex="013D"/>
  <outline>
    <contour>
      <point x="498" y="0" type="line"/>
      <point x="489" y="63" type="line"/>
      <point x="178" y="63" type="line"/>
      <point x="178" y="680" type="line"/>
      <point x="100" y="680" type="line"/>
      <point x="100" y="0" type="line"/>
    </contour>
    <contour>
      <point x="411" y="687"/>
      <point x="386" y="712"/>
      <point x="357" y="712" type="curve"/>
      <point x="326" y="712"/>
      <point x="302" y="686"/>
      <point x="302" y="657" type="curve"/>
      <point x="302" y="630"/>
      <point x="323" y="606"/>
      <point x="347" y="604" type="curve"/>
      <point x="343" y="567"/>
      <point x="320" y="545"/>
      <point x="289" y="521" type="curve"/>
      <point x="309" y="484" type="line"/>
      <point x="366" y="514"/>
      <point x="411" y="585"/>
      <point x="411" y="648" type="curve"/>
    </contour>
  </outline>
</glyph>
<glyph name="lslash" format="1">
  <advance width="239"/>
  <unicode hex="0142"/>
  <outline>
    <contour>
      <point x="268" y="452" type="line"/>
      <point x="257" y="469"/>
      <point x="246" y="487"/>
      <point x="234" y="504" type="curve"/>
      <point x="209" y="482"/>
      <point x="184" y="460"/>
      <point x="159" y="439" type="curve"/>
      <point x="159" y="706" type="line"/>
      <point x="80" y="695" type="line"/>
      <point x="80" y="374" type="line"/>
      <point x="-30" y="281" type="line"/>
      <point x="4" y="229" type="line"/>
      <point x="80" y="293" type="line"/>
      <point x="80" y="0" type="line"/>
      <point x="159" y="0" type="line"/>
      <point x="159" y="359" type="line"/>
    </contour>
  </outline>
</glyph>
<glyph name="ncedilla" format="1">
  <advance width="559"/>
  <unicode hex="0146"/>
  <outline>
    <contour>
      <point x="265" y="499"/>
      <point x="193" y="462"/>
      <point x="151" y="415" type="curve"/>
      <point x="126" y="485" type="line"/>
      <point x="78" y="485" type="line"/>
      <point x="78" y="0" type="line"/>
      <point x="157" y="0" type="line"/>
      <point x="157" y="353" type="line"/>
      <point x="200" y="403"/>
      <point x="267" y="432"/>
      <point x="309" y="432" type="curve"/>
      <point x="376" y="431"/>
      <point x="407" y="384"/>
      <point x="407" y="318" type="curve"/>
      <point x="407" y="1" type="line"/>
      <point x="486" y="1" type="line"/>
      <point x="486" y="329" type="line"/>
      <point x="486" y="427"/>
      <point x="434" y="499"/>
      <point x="323" y="499" type="curve"/>
    </contour>
    <contour>
      <point x="333" y="-45"/>
      <point x="309" y="-21"/>
      <point x="279" y="-21" type="curve"/>
      <point x="248" y="-21"/>
      <point x="224" y="-46"/>
      <point x="224" y="-76" type="curve"/>
      <point x="224" y="-102"/>
      <point x="245" y="-127"/>
      <point x="271" y="-129" type="curve"/>
      <point x="266" y="-162"/>
      <point x="243" y="-185"/>
      <point x="215" y="-202" type="curve"/>
      <point x="235" y="-240" type="line"/>
      <point x="289" y="-213"/>
      <point x="333" y="-148"/>
      <point x="333" y="-84" type="curve"/>
    </contour>
  </outline>
</glyph>
<glyph name="Ncaron" format="1">
  <advance width="713"/>
  <unicode hex="0147"/>
  <outline>
    <contour>
      <point x="99" y="0" type="line"/>
      <point x="178" y="0" type="line"/>
      <point x="178" y="533" type="line"/>
      <point x="204" y="489" type="line"/>
      <point x="551" y="0" type="line"/>
      <point x="614" y="0" type="line"/>
      <point x="614" y="680" type="line"/>
      <point x="534" y="680" type="line"/>
      <point x="534" y="153" type="line"/>
      <point x="493" y="220" type="line"/>
      <point x="162" y="680" type="line"/>
      <point x="99" y="680" type="line"/>
    </contour>
    <contour>
      <point x="218" y="894" type="line"/>
      <point x="335" y="739" type="line"/>
      <point x="397" y="739" type="line"/>
      <point x="515" y="894" type="line"/>
      <point x="439" y="894" type="line"/>
      <point x="414" y="862"/>
      <point x="391" y="830"/>
      <point x="367" y="797" type="curve"/>
      <point x="294" y="894" type="line"/>
    </contour>
  </outline>
</glyph>
<glyph name="ncaron" format="1">
  <advance width="559"/>
  <unicode hex="0148"/>
  <outline>
    <contour>
      <point x="265" y="499"/>
      <point x="193" y="462"/>
      <point x="151" y="415" type="curve"/>
      <point x="126" y="485" type="line"/>
      <point x="78" y="485" type="line"/>
      <point x="78" y="0" type="line"/>
      <point x="157" y="0" type="line"/>
      <point x="157" y="353" type="line"/>
      <point x="200" y="403"/>
      <point x="267" y="432"/>
      <point x="309" y="432" type="curve"/>
      <point x="376" y="431"/>
      <point x="407" y="384"/>
      <point x="407" y="318" type="curve"/>
      <point x="407" y="1" type="line"/>
      <point x="486" y="1" type="line"/>
      <point x="486" y="329" type="line"/>
      <point x="486" y="427"/>
      <point x="434" y="499"/>
      <point x="323" y="499" type="curve"/>
    </contour>
    <contour>
      <point x="163" y="745" type="line"/>
      <point x="281" y="589" type="line"/>
      <point x="342" y="589" type="line"/>
      <point x="460" y="745" type="line"/>
      <point x="384" y="745" type="line"/>
      <point x="313" y="647" type="line"/>
      <point x="239" y="745" type="line"/>
    </contour>
  </outline>
</glyph>
<glyph name="OE" format="1">
  <advance width="959"/>
  <unicode hex="0152"/>
  <outline>
    <contour>
      <point x="930" y="0" type="line"/>
      <point x="922" y="63" type="line"/>
      <point x="599" y="63" type="line"/>
      <point x="599" y="317" type="line"/>
      <point x="805" y="317" type="line"/>
      <point x="795" y="377" type="line"/>
      <point x="599" y="377" type="line"/>
      <point x="599" y="621" type="line"/>
      <point x="902" y="621" type="line"/>
      <point x="892" y="680" type="line"/>
      <point x="521" y="680" type="line"/>
      <point x="521" y="669" type="line"/>
      <point x="476" y="686"/>
      <point x="415" y="694"/>
      <point x="382" y="694" type="curve"/>
      <point x="184" y="694"/>
      <point x="69" y="539"/>
      <point x="69" y="336" type="curve"/>
      <point x="69" y="147"/>
      <point x="166" y="-14"/>
      <point x="376" y="-14" type="curve"/>
      <point x="420" y="-14"/>
      <point x="478" y="-4"/>
      <point x="521" y="11" type="curve"/>
      <point x="521" y="0" type="line"/>
    </contour>
    <contour>
      <point x="448" y="626"/>
      <point x="477" y="615"/>
      <point x="521" y="598" type="curve"/>
      <point x="521" y="85" type="line"/>
      <point x="483" y="68"/>
      <point x="440" y="54"/>
      <point x="372" y="54" type="curve"/>
      <point x="227" y="54"/>
      <point x="152" y="182"/>
      <point x="152" y="337" type="curve"/>
      <point x="152" y="508"/>
      <point x="246" y="625"/>
      <point x="382" y="626" type="curve"/>
    </contour>
  </outline>
</glyph>
<glyph name="oe" format="1">
  <advance width="837"/>
  <unicode hex="0153"/>
  <outline>
    <contour>
      <point x="793" y="230" type="line"/>
      <point x="793" y="377"/>
      <point x="737" y="498"/>
      <point x="584" y="498" type="curve" smooth="yes"/>
      <point x="530" y="498"/>
      <point x="487" y="483"/>
      <point x="452" y="458" type="curve"/>
      <point x="411" y="485"/>
      <point x="348" y="497"/>
      <point x="309" y="497" type="curve" smooth="yes"/>
      <point x="148" y="497"/>
      <point x="49" y="391"/>
      <point x="49" y="241" type="curve" smooth="yes"/>
      <point x="49" y="91"/>
      <point x="150" y="-12"/>
      <point x="309" y="-12" type="curve" smooth="yes"/>
      <point x="350" y="-12"/>
      <point x="414" y="0"/>
      <point x="454" y="27" type="curve"/>
      <point x="493" y="2"/>
      <point x="542" y="-12"/>
      <point x="603" y="-12" type="curve" smooth="yes"/>
      <point x="644" y="-12"/>
      <point x="724" y="0"/>
      <point x="764" y="28" type="curve"/>
      <point x="757" y="47"/>
      <point x="748" y="67"/>
      <point x="740" y="86" type="curve"/>
      <point x="703" y="68"/>
      <point x="667" y="52"/>
      <point x="601" y="52" type="curve" smooth="yes"/>
      <point x="492" y="52"/>
      <point x="444" y="127"/>
      <point x="440" y="230" type="curve"/>
    </contour>
    <contour>
      <point x="193" y="52"/>
      <point x="130" y="134"/>
      <point x="130" y="245" type="curve" smooth="yes"/>
      <point x="130" y="351"/>
      <point x="195" y="433"/>
      <point x="307" y="433" type="curve" smooth="yes"/>
      <point x="357" y="433"/>
      <point x="381" y="422"/>
      <point x="407" y="410" type="curve"/>
      <point x="375" y="368"/>
      <point x="360" y="311"/>
      <point x="360" y="244" type="curve" smooth="yes"/>
      <point x="360" y="176"/>
      <point x="375" y="118"/>
      <point x="408" y="74" type="curve"/>
      <point x="382" y="62"/>
      <point x="359" y="52"/>
      <point x="307" y="52" type="curve" smooth="yes"/>
    </contour>
    <contour>
      <point x="667" y="431"/>
      <point x="704" y="371"/>
      <point x="714" y="284" type="curve"/>
      <point x="442" y="284" type="line"/>
      <point x="453" y="371"/>
      <point x="496" y="431"/>
      <point x="581" y="431" type="curve" smooth="yes"/>
    </contour>
  </outline>
</glyph>
<glyph name="rcedilla" format="1">
  <advance width="330"/>
  <unicode hex="0157"/>
  <outline>
    <contour>
      <point x="78" y="0" type="line"/>
      <point x="157" y="0" type="line"/>
      <point x="157" y="343" type="line"/>
      <point x="200" y="386"/>
      <point x="262" y="422"/>
      <point x="320" y="422" type="curve"/>
      <point x="313" y="443"/>
      <point x="307" y="464"/>
      <point x="301" y="485" type="curve"/>
      <point x="249" y="485"/>
      <point x="186" y="448"/>
      <point x="150" y="417" type="curve"/>
      <point x="126" y="485" type="line"/>
      <point x="78" y="485" type="line"/>
    </contour>
    <contour>
      <point x="174" y="-45"/>
      <point x="150" y="-21"/>
      <point x="120" y="-21" type="curve" smooth="yes"/>
      <point x="89" y="-21"/>
      <point x="66" y="-46"/>
      <point x="66" y="-75" type="curve" smooth="yes"/>
      <point x="66" y="-102"/>
      <point x="86" y="-126"/>
      <point x="112" y="-128" type="curve"/>
      <point x="107" y="-162"/>
      <point x="83" y="-184"/>
      <point x="56" y="-202" type="curve"/>
      <point x="75" y="-239" type="line"/>
      <point x="130" y="-213"/>
      <point x="174" y="-147"/>
      <point x="174" y="-84" type="curve" smooth="yes"/>
    </contour>
  </outline>
</glyph>
<glyph name="rcaron" format="1">
  <advance width="330"/>
  <unicode hex="0159"/>
  <outline>
    <contour>
      <point x="78" y="0" type="line"/>
      <point x="157" y="0" type="line"/>
      <point x="157" y="343" type="line"/>
      <point x="200" y="386"/>
      <point x="262" y="422"/>
      <point x="320" y="422" type="curve"/>
      <point x="313" y="443"/>
      <point x="307" y="464"/>
      <point x="301" y="485" type="curve"/>
      <point x="249" y="485"/>
      <point x="186" y="448"/>
      <point x="150" y="417" type="curve"/>
      <point x="126" y="485" type="line"/>
      <point x="78" y="485" type="line"/>
    </contour>
    <contour>
      <point x="16" y="744" type="line"/>
      <point x="133" y="589" type="line"/>
      <point x="195" y="589" type="line"/>
      <point x="313" y="744" type="line"/>
      <point x="237" y="744" type="line"/>
      <point x="165" y="647" type="line"/>
      <point x="141" y="680"/>
      <point x="116" y="712"/>
      <point x="92" y="744" type="curve"/>
    </contour>
  </outline>
</glyph>
<glyph name="Scedilla" format="1">
  <advance width="538"/>
  <unicode hex="015E"/>
  <outline>
    <contour>
      <point x="182" y="54"/>
      <point x="116" y="77"/>
      <point x="80" y="95" type="curve"/>
      <point x="73" y="74"/>
      <point x="67" y="53"/>
      <point x="61" y="33" type="curve"/>
      <point x="81" y="15"/>
      <point x="156" y="-4"/>
      <point x="214" y="-10" type="curve"/>
      <point x="206" y="-33"/>
      <point x="196" y="-56"/>
      <point x="187" y="-79" type="curve"/>
      <point x="238" y="-84"/>
      <point x="275" y="-104"/>
      <point x="275" y="-130" type="curve" smooth="yes"/>
      <point x="275" y="-153"/>
      <point x="249" y="-164"/>
      <point x="225" y="-164" type="curve" smooth="yes"/>
      <point x="206" y="-164"/>
      <point x="178" y="-156"/>
      <point x="164" y="-149" type="curve"/>
      <point x="145" y="-199" type="line"/>
      <point x="165" y="-212"/>
      <point x="200" y="-221"/>
      <point x="225" y="-221" type="curve" smooth="yes"/>
      <point x="285" y="-221"/>
      <point x="340" y="-192"/>
      <point x="340" y="-128" type="curve" smooth="yes"/>
      <point x="340" y="-93"/>
      <point x="305" y="-56"/>
      <point x="263" y="-47" type="curve"/>
      <point x="268" y="-35"/>
      <point x="273" y="-23"/>
      <point x="277" y="-11" type="curve"/>
      <point x="412" y="-3"/>
      <point x="488" y="68"/>
      <point x="488" y="166" type="curve" smooth="yes"/>
      <point x="488" y="365"/>
      <point x="127" y="377"/>
      <point x="127" y="526" type="curve" smooth="yes"/>
      <point x="127" y="590"/>
      <point x="182" y="628"/>
      <point x="269" y="628" type="curve" smooth="yes"/>
      <point x="337" y="628"/>
      <point x="378" y="609"/>
      <point x="414" y="592" type="curve"/>
      <point x="423" y="613"/>
      <point x="433" y="633"/>
      <point x="441" y="654" type="curve"/>
      <point x="398" y="675"/>
      <point x="335" y="696"/>
      <point x="267" y="696" type="curve" smooth="yes"/>
      <point x="132" y="696"/>
      <point x="50" y="621"/>
      <point x="50" y="524" type="curve" smooth="yes"/>
      <point x="50" y="317"/>
      <point x="410" y="309"/>
      <point x="410" y="164" type="curve" smooth="yes"/>
      <point x="410" y="99"/>
      <point x="353" y="54"/>
      <point x="247" y="54" type="curve" smooth="yes"/>
    </contour>
  </outline>
</glyph>
<glyph name="scedilla" format="1">
  <advance width="446"/>
  <unicode hex="015F"/>
  <outline>
    <contour>
      <point x="282" y="431"/>
      <point x="322" y="413"/>
      <point x="354" y="397" type="curve"/>
      <point x="378" y="455" type="line"/>
      <point x="341" y="482"/>
      <point x="269" y="498"/>
      <point x="227" y="498" type="curve"/>
      <point x="116" y="498"/>
      <point x="47" y="447"/>
      <point x="47" y="360" type="curve"/>
      <point x="47" y="283"/>
      <point x="128" y="243"/>
      <point x="205" y="217" type="curve"/>
      <point x="271" y="195"/>
      <point x="320" y="165"/>
      <point x="320" y="123" type="curve"/>
      <point x="320" y="76"/>
      <point x="278" y="54"/>
      <point x="206" y="54" type="curve"/>
      <point x="159" y="54"/>
      <point x="112" y="69"/>
      <point x="74" y="88" type="curve"/>
      <point x="50" y="28" type="line"/>
      <point x="80" y="7"/>
      <point x="132" y="-5"/>
      <point x="173" y="-10" type="curve"/>
      <point x="146" y="-80" type="line"/>
      <point x="196" y="-85"/>
      <point x="234" y="-105"/>
      <point x="234" y="-131" type="curve"/>
      <point x="234" y="-154"/>
      <point x="207" y="-165"/>
      <point x="183" y="-165" type="curve"/>
      <point x="163" y="-165"/>
      <point x="136" y="-156"/>
      <point x="123" y="-149" type="curve"/>
      <point x="103" y="-200" type="line"/>
      <point x="121" y="-212"/>
      <point x="158" y="-221"/>
      <point x="183" y="-221" type="curve"/>
      <point x="243" y="-221"/>
      <point x="298" y="-192"/>
      <point x="298" y="-129" type="curve"/>
      <point x="298" y="-94"/>
      <point x="263" y="-56"/>
      <point x="221" y="-48" type="curve"/>
      <point x="235" y="-12" type="line"/>
      <point x="342" y="-4"/>
      <point x="399" y="47"/>
      <point x="399" y="128" type="curve"/>
      <point x="399" y="208"/>
      <point x="316" y="253"/>
      <point x="237" y="281" type="curve"/>
      <point x="173" y="303"/>
      <point x="128" y="326"/>
      <point x="128" y="364" type="curve"/>
      <point x="128" y="405"/>
      <point x="166" y="431"/>
      <point x="225" y="431" type="curve"/>
    </contour>
  </outline>
</glyph>
<glyph name="Tcedilla" format="1">
  <advance width="531"/>
  <unicode hex="0162"/>
  <outline>
    <contour>
      <point x="521" y="617" type="line"/>
      <point x="512" y="680" type="line"/>
      <point x="9" y="680" type="line"/>
      <point x="9" y="617" type="line"/>
      <point x="222" y="617" type="line"/>
      <point x="222" y="0" type="line"/>
      <point x="230" y="0" type="line"/>
      <point x="198" y="-79" type="line"/>
      <point x="249" y="-84"/>
      <point x="287" y="-104"/>
      <point x="287" y="-130" type="curve" smooth="yes"/>
      <point x="287" y="-153"/>
      <point x="260" y="-164"/>
      <point x="236" y="-164" type="curve" smooth="yes"/>
      <point x="215" y="-164"/>
      <point x="189" y="-156"/>
      <point x="175" y="-149" type="curve"/>
      <point x="169" y="-166"/>
      <point x="163" y="-183"/>
      <point x="156" y="-199" type="curve"/>
      <point x="175" y="-212"/>
      <point x="211" y="-221"/>
      <point x="236" y="-221" type="curve" smooth="yes"/>
      <point x="296" y="-221"/>
      <point x="350" y="-192"/>
      <point x="350" y="-128" type="curve" smooth="yes"/>
      <point x="350" y="-93"/>
      <point x="317" y="-56"/>
      <point x="273" y="-47" type="curve"/>
      <point x="293" y="0" type="line"/>
      <point x="302" y="0" type="line"/>
      <point x="302" y="617" type="line"/>
    </contour>
  </outline>
</glyph>
<glyph name="Tcaron" format="1">
  <advance width="531"/>
  <unicode hex="0164"/>
  <outline>
    <contour>
      <point x="521" y="617" type="line"/>
      <point x="512" y="680" type="line"/>
      <point x="9" y="680" type="line"/>
      <point x="9" y="617" type="line"/>
      <point x="222" y="617" type="line"/>
      <point x="222" y="0" type="line"/>
      <point x="302" y="0" type="line"/>
      <point x="302" y="617" type="line"/>
    </contour>
    <contour>
      <point x="117" y="894" type="line"/>
      <point x="233" y="739" type="line"/>
      <point x="296" y="739" type="line"/>
      <point x="414" y="894" type="line"/>
      <point x="337" y="894" type="line"/>
      <point x="265" y="797" type="line"/>
      <point x="241" y="830"/>
      <point x="217" y="862"/>
      <point x="192" y="894" type="curve"/>
    </contour>
  </outline>
</glyph>
<glyph name="umacron" format="1">
  <advance width="542"/>
  <unicode hex="016B"/>
  <outline>
    <contour>
      <point x="289" y="-14"/>
      <point x="349" y="14"/>
      <point x="392" y="53" type="curve"/>
      <point x="415" y="0" type="line"/>
      <point x="464" y="0" type="line"/>
      <point x="464" y="485" type="line"/>
      <point x="385" y="485" type="line"/>
      <point x="385" y="114" type="line"/>
      <point x="342" y="75"/>
      <point x="286" y="53"/>
      <point x="249" y="53" type="curve"/>
      <point x="183" y="53"/>
      <point x="152" y="101"/>
      <point x="152" y="166" type="curve"/>
      <point x="152" y="485" type="line"/>
      <point x="73" y="485" type="line"/>
      <point x="73" y="157" type="line"/>
      <point x="73" y="58"/>
      <point x="123" y="-14"/>
      <point x="237" y="-14" type="curve"/>
    </contour>
    <contour>
      <point x="145" y="696" type="line"/>
      <point x="145" y="633" type="line"/>
      <point x="393" y="633" type="line"/>
      <point x="393" y="696" type="line"/>
    </contour>
  </outline>
</glyph>
<glyph name="Uring" format="1">
  <advance width="692"/>
  <unicode hex="016E"/>
  <outline>
    <contour>
      <point x="237" y="54"/>
      <point x="169" y="134"/>
      <point x="169" y="250" type="curve" smooth="yes"/>
      <point x="169" y="680" type="line"/>
      <point x="90" y="680" type="line"/>
      <point x="90" y="241" type="line" smooth="yes"/>
      <point x="90" y="94"/>
      <point x="187" y="-11"/>
      <point x="345" y="-11" type="curve" smooth="yes"/>
      <point x="505" y="-11"/>
      <point x="601" y="94"/>
      <point x="601" y="241" type="curve" smooth="yes"/>
      <point x="601" y="680" type="line"/>
      <point x="521" y="680" type="line"/>
      <point x="521" y="250" type="line" smooth="yes"/>
      <point x="521" y="135"/>
      <point x="457" y="54"/>
      <point x="345" y="54" type="curve" smooth="yes"/>
    </contour>
    <contour>
      <point x="388" y="806"/>
      <point x="368" y="787"/>
      <point x="345" y="787" type="curve" smooth="yes"/>
      <point x="321" y="787"/>
      <point x="302" y="806"/>
      <point x="302" y="829" type="curve" smooth="yes"/>
      <point x="302" y="853"/>
      <point x="321" y="872"/>
      <point x="345" y="872" type="curve" smooth="yes"/>
      <point x="368" y="872"/>
      <point x="388" y="853"/>
      <point x="388" y="829" type="curve" smooth="yes"/>
    </contour>
    <contour>
      <point x="438" y="879"/>
      <point x="395" y="917"/>
      <point x="345" y="917" type="curve" smooth="yes"/>
      <point x="294" y="917"/>
      <point x="251" y="879"/>
      <point x="251" y="829" type="curve" smooth="yes"/>
      <point x="251" y="779"/>
      <point x="294" y="744"/>
      <point x="345" y="744" type="curve" smooth="yes"/>
      <point x="395" y="744"/>
      <point x="438" y="779"/>
      <point x="438" y="829" type="curve" smooth="yes"/>
    </contour>
  </outline>
</glyph>
<glyph name="uring" format="1">
  <advance width="542"/>
  <unicode hex="016F"/>
  <outline>
    <contour>
      <point x="289" y="-14"/>
      <point x="349" y="14"/>
      <point x="392" y="53" type="curve"/>
      <point x="415" y="0" type="line"/>
      <point x="464" y="0" type="line"/>
      <point x="464" y="485" type="line"/>
      <point x="385" y="485" type="line"/>
      <point x="385" y="114" type="line"/>
      <point x="342" y="75"/>
      <point x="286" y="53"/>
      <point x="249" y="53" type="curve"/>
      <point x="183" y="53"/>
      <point x="152" y="101"/>
      <point x="152" y="166" type="curve"/>
      <point x="152" y="485" type="line"/>
      <point x="73" y="485" type="line"/>
      <point x="73" y="157" type="line"/>
      <point x="73" y="58"/>
      <point x="123" y="-14"/>
      <point x="237" y="-14" type="curve"/>
    </contour>
    <contour>
      <point x="312" y="656"/>
      <point x="294" y="638"/>
      <point x="269" y="638" type="curve"/>
      <point x="246" y="638"/>
      <point x="227" y="656"/>
      <point x="227" y="679" type="curve"/>
      <point x="227" y="703"/>
      <point x="246" y="722"/>
      <point x="269" y="722" type="curve"/>
      <point x="294" y="722"/>
      <point x="312" y="703"/>
      <point x="312" y="679" type="curve"/>
    </contour>
    <contour>
      <point x="363" y="729"/>
      <point x="319" y="767"/>
      <point x="269" y="767" type="curve"/>
      <point x="218" y="767"/>
      <point x="175" y="729"/>
      <point x="175" y="679" type="curve"/>
      <point x="175" y="629"/>
      <point x="218" y="594"/>
      <point x="269" y="594" type="curve"/>
      <point x="319" y="594"/>
      <point x="363" y="629"/>
      <point x="363" y="679" type="curve"/>
    </contour>
  </outline>
</glyph>
<glyph name="Uhungarumlaut" format="1">
  <advance width="692"/>
  <unicode hex="0170"/>
  <outline>
    <contour>
      <point x="237" y="54"/>
      <point x="169" y="134"/>
      <point x="169" y="250" type="curve" smooth="yes"/>
      <point x="169" y="680" type="line"/>
      <point x="90" y="680" type="line"/>
      <point x="90" y="241" type="line" smooth="yes"/>
      <point x="90" y="94"/>
      <point x="187" y="-11"/>
      <point x="345" y="-11" type="curve" smooth="yes"/>
      <point x="505" y="-11"/>
      <point x="601" y="94"/>
      <point x="601" y="241" type="curve" smooth="yes"/>
      <point x="601" y="680" type="line"/>
      <point x="521" y="680" type="line"/>
      <point x="521" y="250" type="line" smooth="yes"/>
      <point x="521" y="135"/>
      <point x="457" y="54"/>
      <point x="345" y="54" type="curve" smooth="yes"/>
    </contour>
    <contour>
      <point x="288" y="894" type="line"/>
      <point x="228" y="739" type="line"/>
      <point x="282" y="739" type="line"/>
      <point x="371" y="894" type="line"/>
    </contour>
    <contour>
      <point x="427" y="894" type="line"/>
      <point x="368" y="739" type="line"/>
      <point x="424" y="739" type="line"/>
      <point x="511" y="894" type="line"/>
    </contour>
  </outline>
</glyph>
<glyph name="Uogonek" format="1">
  <advance width="692"/>
  <unicode hex="0172"/>
  <outline>
    <contour>
      <point x="237" y="54"/>
      <point x="169" y="134"/>
      <point x="169" y="250" type="curve" smooth="yes"/>
      <point x="169" y="680" type="line"/>
      <point x="90" y="680" type="line"/>
      <point x="90" y="241" type="line" smooth="yes"/>
      <point x="90" y="97"/>
      <point x="183" y="-6"/>
      <point x="334" y="-11" type="curve"/>
      <point x="312" y="-38"/>
      <point x="298" y="-75"/>
      <point x="298" y="-106" type="curve" smooth="yes"/>
      <point x="298" y="-165"/>
      <point x="342" y="-207"/>
      <point x="405" y="-207" type="curve" smooth="yes"/>
      <point x="440" y="-207"/>
      <point x="470" y="-195"/>
      <point x="490" y="-176" type="curve"/>
      <point x="482" y="-159"/>
      <point x="473" y="-144"/>
      <point x="465" y="-127" type="curve"/>
      <point x="449" y="-141"/>
      <point x="432" y="-147"/>
      <point x="413" y="-147" type="curve" smooth="yes"/>
      <point x="388" y="-147"/>
      <point x="366" y="-134"/>
      <point x="366" y="-101" type="curve" smooth="yes"/>
      <point x="366" y="-71"/>
      <point x="395" y="-25"/>
      <point x="424" y="-1" type="curve"/>
      <point x="536" y="27"/>
      <point x="601" y="120"/>
      <point x="601" y="241" type="curve" smooth="yes"/>
      <point x="601" y="680" type="line"/>
      <point x="521" y="680" type="line"/>
      <point x="521" y="250" type="line" smooth="yes"/>
      <point x="521" y="135"/>
      <point x="457" y="54"/>
      <point x="345" y="54" type="curve" smooth="yes"/>
    </contour>
  </outline>
</glyph>
<glyph name="Zacute" format="1">
  <advance width="569"/>
  <unicode hex="0179"/>
  <outline>
    <contour>
      <point x="530" y="0" type="line"/>
      <point x="522" y="62" type="line"/>
      <point x="109" y="62" type="line"/>
      <point x="253" y="248"/>
      <point x="395" y="432"/>
      <point x="539" y="617" type="curve"/>
      <point x="531" y="680" type="line"/>
      <point x="50" y="680" type="line"/>
      <point x="53" y="659"/>
      <point x="58" y="638"/>
      <point x="61" y="617" type="curve"/>
      <point x="451" y="617" type="line"/>
      <point x="308" y="432"/>
      <point x="165" y="248"/>
      <point x="22" y="62" type="curve"/>
      <point x="31" y="0" type="line"/>
    </contour>
    <contour>
      <point x="288" y="894" type="line"/>
      <point x="228" y="739" type="line"/>
      <point x="287" y="739" type="line"/>
      <point x="375" y="894" type="line"/>
    </contour>
  </outline>
</glyph>
<glyph name="zacute" format="1">
  <advance width="466"/>
  <unicode hex="017A"/>
  <outline>
    <contour>
      <point x="427" y="445" type="line"/>
      <point x="423" y="488" type="line"/>
      <point x="60" y="488" type="line"/>
      <point x="78" y="424" type="line"/>
      <point x="319" y="424" type="line"/>
      <point x="35" y="40" type="line"/>
      <point x="46" y="0" type="line"/>
      <point x="425" y="0" type="line"/>
      <point x="415" y="62" type="line"/>
      <point x="139" y="62" type="line"/>
    </contour>
    <contour>
      <point x="265" y="745" type="line"/>
      <point x="204" y="589" type="line"/>
      <point x="264" y="589" type="line"/>
      <point x="351" y="745" type="line"/>
    </contour>
  </outline>
</glyph>
<glyph name="Zdotaccent" format="1">
  <advance width="569"/>
  <unicode hex="017B"/>
  <outline>
    <contour>
      <point x="530" y="0" type="line"/>
      <point x="522" y="62" type="line"/>
      <point x="109" y="62" type="line"/>
      <point x="253" y="248"/>
      <point x="395" y="432"/>
      <point x="539" y="617" type="curve"/>
      <point x="531" y="680" type="line"/>
      <point x="50" y="680" type="line"/>
      <point x="53" y="659"/>
      <point x="58" y="638"/>
      <point x="61" y="617" type="curve"/>
      <point x="451" y="617" type="line"/>
      <point x="308" y="432"/>
      <point x="165" y="248"/>
      <point x="22" y="62" type="curve"/>
      <point x="31" y="0" type="line"/>
    </contour>
    <contour>
      <point x="343" y="846"/>
      <point x="320" y="870"/>
      <point x="290" y="870" type="curve" smooth="yes"/>
      <point x="259" y="870"/>
      <point x="235" y="846"/>
      <point x="235" y="816" type="curve" smooth="yes"/>
      <point x="235" y="785"/>
      <point x="259" y="762"/>
      <point x="290" y="762" type="curve" smooth="yes"/>
      <point x="320" y="762"/>
      <point x="343" y="785"/>
      <point x="343" y="816" type="curve" smooth="yes"/>
    </contour>
  </outline>
</glyph>
<glyph name="zdotaccent" format="1">
  <advance width="466"/>
  <unicode hex="017C"/>
  <outline>
    <contour>
      <point x="427" y="445" type="line"/>
      <point x="423" y="488" type="line"/>
      <point x="60" y="488" type="line"/>
      <point x="78" y="424" type="line"/>
      <point x="319" y="424" type="line"/>
      <point x="35" y="40" type="line"/>
      <point x="46" y="0" type="line"/>
      <point x="425" y="0" type="line"/>
      <point x="415" y="62" type="line"/>
      <point x="139" y="62" type="line"/>
    </contour>
    <contour>
      <point x="311" y="696"/>
      <point x="288" y="721"/>
      <point x="257" y="721" type="curve"/>
      <point x="226" y="721"/>
      <point x="203" y="696"/>
      <point x="203" y="666" type="curve"/>
      <point x="203" y="635"/>
      <point x="226" y="612"/>
      <point x="257" y="612" type="curve"/>
      <point x="288" y="612"/>
      <point x="311" y="635"/>
      <point x="311" y="666" type="curve"/>
    </contour>
  </outline>
</glyph>
<glyph name="Zcaron" format="1">
  <advance width="569"/>
  <unicode hex="017D"/>
  <outline>
    <contour>
      <point x="530" y="0" type="line"/>
      <point x="522" y="62" type="line"/>
      <point x="109" y="62" type="line"/>
      <point x="253" y="248"/>
      <point x="395" y="432"/>
      <point x="539" y="617" type="curve"/>
      <point x="531" y="680" type="line"/>
      <point x="50" y="680" type="line"/>
      <point x="53" y="659"/>
      <point x="58" y="638"/>
      <point x="61" y="617" type="curve"/>
      <point x="451" y="617" type="line"/>
      <point x="308" y="432"/>
      <point x="165" y="248"/>
      <point x="22" y="62" type="curve"/>
      <point x="31" y="0" type="line"/>
    </contour>
    <contour>
      <point x="140" y="894" type="line"/>
      <point x="257" y="739" type="line"/>
      <point x="319" y="739" type="line"/>
      <point x="437" y="894" type="line"/>
      <point x="361" y="894" type="line"/>
      <point x="336" y="862"/>
      <point x="313" y="830"/>
      <point x="289" y="797" type="curve"/>
      <point x="216" y="894" type="line"/>
    </contour>
  </outline>
</glyph>
<glyph name="zcaron" format="1">
  <advance width="466"/>
  <unicode hex="017E"/>
  <outline>
    <contour>
      <point x="427" y="445" type="line"/>
      <point x="423" y="488" type="line"/>
      <point x="60" y="488" type="line"/>
      <point x="78" y="424" type="line"/>
      <point x="319" y="424" type="line"/>
      <point x="35" y="40" type="line"/>
      <point x="46" y="0" type="line"/>
      <point x="425" y="0" type="line"/>
      <point x="415" y="62" type="line"/>
      <point x="139" y="62" type="line"/>
    </contour>
    <contour>
      <point x="104" y="745" type="line"/>
      <point x="223" y="589" type="line"/>
      <point x="284" y="589" type="line"/>
      <point x="402" y="745" type="line"/>
      <point x="326" y="745" type="line"/>
      <point x="254" y="647" type="line"/>
      <point x="181" y="745" type="line"/>
    </contour>
  </outline>
</glyph>
<glyph name="florin" format="1">
  <advance width="309"/>
  <unicode hex="0192"/>
  <outline>
    <contour>
      <point x="119" y="-80"/>
      <point x="170" y="-22"/>
      <point x="170" y="69" type="curve"/>
      <point x="170" y="414" type="line"/>
      <point x="285" y="414" type="line"/>
      <point x="259" y="475" type="line"/>
      <point x="170" y="475" type="line"/>
      <point x="170" y="548" type="line" smooth="yes"/>
      <point x="170" y="597"/>
      <point x="188" y="631"/>
      <point x="238" y="631" type="curve"/>
      <point x="252" y="631"/>
      <point x="271" y="626"/>
      <point x="282" y="621" type="curve"/>
      <point x="300" y="684" type="line"/>
      <point x="285" y="692"/>
      <point x="254" y="702"/>
      <point x="226" y="702" type="curve"/>
      <point x="142" y="702"/>
      <point x="91" y="644"/>
      <point x="91" y="552" type="curve"/>
      <point x="91" y="475" type="line"/>
      <point x="17" y="475" type="line"/>
      <point x="18" y="414" type="line"/>
      <point x="91" y="414" type="line"/>
      <point x="91" y="73" type="line"/>
      <point x="91" y="24"/>
      <point x="72" y="-10"/>
      <point x="22" y="-10" type="curve"/>
      <point x="8" y="-10"/>
      <point x="-11" y="-5"/>
      <point x="-22" y="0" type="curve"/>
      <point x="-39" y="-63" type="line"/>
      <point x="-25" y="-71"/>
      <point x="7" y="-80"/>
      <point x="35" y="-80" type="curve"/>
    </contour>
  </outline>
</glyph>
<glyph name="scommaaccent" format="1">
  <advance width="446"/>
  <unicode hex="0219"/>
  <outline>
    <contour>
      <point x="282" y="431"/>
      <point x="322" y="413"/>
      <point x="354" y="397" type="curve"/>
      <point x="378" y="455" type="line"/>
      <point x="341" y="482"/>
      <point x="269" y="498"/>
      <point x="227" y="498" type="curve"/>
      <point x="116" y="498"/>
      <point x="47" y="447"/>
      <point x="47" y="360" type="curve"/>
      <point x="47" y="283"/>
      <point x="128" y="243"/>
      <point x="205" y="217" type="curve"/>
      <point x="271" y="195"/>
      <point x="320" y="165"/>
      <point x="320" y="123" type="curve"/>
      <point x="320" y="76"/>
      <point x="278" y="54"/>
      <point x="206" y="54" type="curve"/>
      <point x="159" y="54"/>
      <point x="112" y="69"/>
      <point x="74" y="88" type="curve"/>
      <point x="50" y="28" type="line"/>
      <point x="90" y="1"/>
      <point x="164" y="-13"/>
      <point x="205" y="-13" type="curve"/>
      <point x="332" y="-13"/>
      <point x="399" y="39"/>
      <point x="399" y="128" type="curve"/>
      <point x="399" y="208"/>
      <point x="316" y="253"/>
      <point x="237" y="281" type="curve"/>
      <point x="173" y="303"/>
      <point x="128" y="326"/>
      <point x="128" y="364" type="curve"/>
      <point x="128" y="405"/>
      <point x="166" y="431"/>
      <point x="225" y="431" type="curve"/>
    </contour>
    <contour>
      <point x="274" y="-45"/>
      <point x="250" y="-21"/>
      <point x="219" y="-21" type="curve"/>
      <point x="189" y="-21"/>
      <point x="164" y="-46"/>
      <point x="164" y="-76" type="curve"/>
      <point x="164" y="-102"/>
      <point x="185" y="-127"/>
      <point x="211" y="-129" type="curve"/>
      <point x="207" y="-162"/>
      <point x="183" y="-185"/>
      <point x="155" y="-202" type="curve"/>
      <point x="176" y="-240" type="line"/>
      <point x="229" y="-213"/>
      <point x="274" y="-148"/>
      <point x="274" y="-84" type="curve"/>
    </contour>
  </outline>
</glyph>
<glyph name="uni021A" format="1">
  <advance width="531"/>
  <unicode hex="021A"/>
  <outline>
    <contour>
      <point x="521" y="617" type="line"/>
      <point x="512" y="680" type="line"/>
      <point x="9" y="680" type="line"/>
      <point x="9" y="617" type="line"/>
      <point x="222" y="617" type="line"/>
      <point x="222" y="0" type="line"/>
      <point x="302" y="0" type="line"/>
      <point x="302" y="617" type="line"/>
    </contour>
    <contour>
      <point x="317" y="-45"/>
      <point x="293" y="-21"/>
      <point x="263" y="-21" type="curve" smooth="yes"/>
      <point x="233" y="-21"/>
      <point x="207" y="-46"/>
      <point x="207" y="-75" type="curve" smooth="yes"/>
      <point x="207" y="-102"/>
      <point x="228" y="-126"/>
      <point x="255" y="-128" type="curve"/>
      <point x="249" y="-162"/>
      <point x="226" y="-184"/>
      <point x="197" y="-202" type="curve"/>
      <point x="205" y="-214"/>
      <point x="212" y="-227"/>
      <point x="219" y="-239" type="curve"/>
      <point x="272" y="-213"/>
      <point x="317" y="-147"/>
      <point x="317" y="-84" type="curve" smooth="yes"/>
    </contour>
  </outline>
</glyph>
<glyph name="circumflex" format="1">
  <advance width="328"/>
  <unicode hex="02C6"/>
  <outline>
    <contour>
      <point x="92" y="589" type="line"/>
      <point x="165" y="687" type="line"/>
      <point x="237" y="589" type="line"/>
      <point x="313" y="589" type="line"/>
      <point x="195" y="745" type="line"/>
      <point x="133" y="745" type="line"/>
      <point x="16" y="589" type="line"/>
    </contour>
  </outline>
</glyph>
<glyph name="caron" format="1">
  <advance width="328"/>
  <unicode hex="02C7"/>
  <outline>
    <contour>
      <point x="16" y="745" type="line"/>
      <point x="133" y="589" type="line"/>
      <point x="195" y="589" type="line"/>
      <point x="313" y="745" type="line"/>
      <point x="237" y="745" type="line"/>
      <point x="165" y="647" type="line"/>
      <point x="92" y="745" type="line"/>
    </contour>
  </outline>
</glyph>
<glyph name="breve" format="1">
  <advance width="300"/>
  <unicode hex="02D8"/>
  <outline>
    <contour>
      <point x="245" y="600"/>
      <point x="284" y="665"/>
      <point x="284" y="736" type="curve"/>
      <point x="227" y="736" type="line"/>
      <point x="227" y="700"/>
      <point x="201" y="657"/>
      <point x="150" y="657" type="curve"/>
      <point x="97" y="657"/>
      <point x="73" y="700"/>
      <point x="73" y="736" type="curve"/>
      <point x="16" y="736" type="line"/>
      <point x="16" y="665"/>
      <point x="55" y="600"/>
      <point x="150" y="598" type="curve"/>
    </contour>
  </outline>
</glyph>
<glyph name="hungarumlaut" format="1">
  <advance width="314"/>
  <unicode hex="02DD"/>
  <outline>
    <contour>
      <point x="76" y="745" type="line"/>
      <point x="16" y="589" type="line"/>
      <point x="70" y="589" type="line"/>
      <point x="158" y="745" type="line"/>
    </contour>
    <contour>
      <point x="215" y="745" type="line"/>
      <point x="156" y="589" type="line"/>
      <point x="211" y="589" type="line"/>
      <point x="298" y="745" type="line"/>
    </contour>
  </outline>
</glyph>
<glyph name="pi" format="1">
  <advance width="615"/>
  <unicode hex="03C0"/>
  <outline>
    <contour>
      <point x="119" y="0" type="line"/>
      <point x="198" y="0" type="line"/>
      <point x="198" y="422" type="line"/>
      <point x="416" y="422" type="line"/>
      <point x="416" y="0" type="line"/>
      <point x="496" y="0" type="line"/>
      <point x="496" y="422" type="line"/>
      <point x="595" y="422" type="line"/>
      <point x="595" y="485" type="line"/>
      <point x="21" y="485" type="line"/>
      <point x="21" y="422" type="line"/>
      <point x="119" y="422" type="line"/>
    </contour>
  </outline>
</glyph>
<glyph name="dv_Anusvara" format="1">
  <advance width="0"/>
  <unicode hex="0902"/>
  <outline>
    <contour>
      <point x="17" y="780"/>
      <point x="43" y="754"/>
      <point x="75" y="754" type="curve"/>
      <point x="108" y="754"/>
      <point x="134" y="780"/>
      <point x="134" y="812" type="curve"/>
      <point x="134" y="846"/>
      <point x="108" y="871"/>
      <point x="75" y="871" type="curve"/>
      <point x="43" y="871"/>
      <point x="17" y="846"/>
      <point x="17" y="812" type="curve"/>
    </contour>
  </outline>
</glyph>
<glyph name="dv_Ii" format="1">
  <advance width="538"/>
  <unicode hex="0908"/>
  <outline>
    <contour>
      <point x="248" y="53"/>
      <point x="221" y="56"/>
      <point x="195" y="63" type="curve"/>
      <point x="181" y="106"/>
      <point x="141" y="141"/>
      <point x="93" y="141" type="curve" smooth="yes"/>
      <point x="66" y="141"/>
      <point x="48" y="125"/>
      <point x="48" y="99" type="curve" smooth="yes"/>
      <point x="48" y="49"/>
      <point x="95" y="11"/>
      <point x="134" y="-6" type="curve"/>
      <point x="177" y="-61"/>
      <point x="219" y="-116"/>
      <point x="261" y="-171" type="curve"/>
      <point x="318" y="-130" type="line"/>
      <point x="225" y="-13" type="line"/>
      <point x="242" y="-16"/>
      <point x="260" y="-17"/>
      <point x="278" y="-17" type="curve" smooth="yes"/>
      <point x="417" y="-17"/>
      <point x="495" y="60"/>
      <point x="495" y="147" type="curve" smooth="yes"/>
      <point x="495" y="258"/>
      <point x="419" y="314"/>
      <point x="296" y="314" type="curve" smooth="yes"/>
      <point x="212" y="314" type="line" smooth="yes"/>
      <point x="166" y="314"/>
      <point x="135" y="342"/>
      <point x="135" y="380" type="curve" smooth="yes"/>
      <point x="135" y="415"/>
      <point x="166" y="445"/>
      <point x="210" y="445" type="curve" smooth="yes"/>
      <point x="439" y="445" type="line"/>
      <point x="439" y="611" type="line"/>
      <point x="549" y="611" type="line"/>
      <point x="535" y="680" type="line"/>
      <point x="424" y="680" type="line"/>
      <point x="394" y="705"/>
      <point x="359" y="757"/>
      <point x="359" y="807" type="curve" smooth="yes"/>
      <point x="359" y="847"/>
      <point x="384" y="891"/>
      <point x="427" y="891" type="curve" smooth="yes"/>
      <point x="460" y="891"/>
      <point x="480" y="877"/>
      <point x="501" y="865" type="curve"/>
      <point x="533" y="920" type="line"/>
      <point x="514" y="936"/>
      <point x="474" y="958"/>
      <point x="417" y="958" type="curve" smooth="yes"/>
      <point x="332" y="958"/>
      <point x="282" y="888"/>
      <point x="282" y="814" type="curve" smooth="yes"/>
      <point x="282" y="770"/>
      <point x="308" y="709"/>
      <point x="340" y="680" type="curve"/>
      <point x="-11" y="680" type="line"/>
      <point x="-6" y="657"/>
      <point x="-2" y="634"/>
      <point x="2" y="611" type="curve"/>
      <point x="353" y="611" type="line"/>
      <point x="353" y="517" type="line"/>
      <point x="209" y="517" type="line" smooth="yes"/>
      <point x="120" y="517"/>
      <point x="51" y="466"/>
      <point x="51" y="380" type="curve" smooth="yes"/>
      <point x="51" y="300"/>
      <point x="131" y="243"/>
      <point x="211" y="243" type="curve" smooth="yes"/>
      <point x="305" y="243" type="line" smooth="yes"/>
      <point x="367" y="243"/>
      <point x="411" y="201"/>
      <point x="411" y="148" type="curve" smooth="yes"/>
      <point x="411" y="86"/>
      <point x="362" y="53"/>
      <point x="275" y="52" type="curve"/>
    </contour>
  </outline>
</glyph>
<glyph name="dv_Uu" format="1">
  <advance width="859"/>
  <unicode hex="090A"/>
  <outline>
    <contour>
      <point x="483" y="548"/>
      <point x="469" y="586"/>
      <point x="448" y="612" type="curve"/>
      <point x="870" y="612" type="line"/>
      <point x="855" y="680" type="line"/>
      <point x="-11" y="680" type="line"/>
      <point x="4" y="612" type="line"/>
      <point x="331" y="612" type="line"/>
      <point x="372" y="594"/>
      <point x="394" y="555"/>
      <point x="394" y="511" type="curve"/>
      <point x="394" y="437"/>
      <point x="341" y="381"/>
      <point x="230" y="381" type="curve"/>
      <point x="132" y="381" type="line"/>
      <point x="151" y="319" type="line"/>
      <point x="222" y="319" type="line" smooth="yes"/>
      <point x="365" y="319"/>
      <point x="408" y="267"/>
      <point x="408" y="181" type="curve"/>
      <point x="408" y="98"/>
      <point x="343" y="54"/>
      <point x="261" y="55" type="curve"/>
      <point x="192" y="56"/>
      <point x="131" y="77"/>
      <point x="79" y="113" type="curve"/>
      <point x="63" y="41" type="line"/>
      <point x="110" y="10"/>
      <point x="180" y="-16"/>
      <point x="261" y="-16" type="curve"/>
      <point x="413" y="-16"/>
      <point x="497" y="69"/>
      <point x="497" y="183" type="curve"/>
      <point x="497" y="203"/>
      <point x="494" y="227"/>
      <point x="485" y="249" type="curve"/>
      <point x="512" y="282"/>
      <point x="554" y="316"/>
      <point x="622" y="316" type="curve"/>
      <point x="694" y="316"/>
      <point x="747" y="262"/>
      <point x="747" y="184" type="curve"/>
      <point x="747" y="105"/>
      <point x="691" y="51"/>
      <point x="610" y="51" type="curve"/>
      <point x="625" y="-20" type="line"/>
      <point x="737" y="-20"/>
      <point x="837" y="56"/>
      <point x="837" y="182" type="curve"/>
      <point x="837" y="300"/>
      <point x="757" y="387"/>
      <point x="622" y="387" type="curve"/>
      <point x="540" y="387"/>
      <point x="478" y="346"/>
      <point x="445" y="311" type="curve"/>
      <point x="426" y="330"/>
      <point x="399" y="342"/>
      <point x="364" y="351" type="curve"/>
      <point x="446" y="376"/>
      <point x="483" y="454"/>
      <point x="483" y="514" type="curve"/>
    </contour>
  </outline>
</glyph>
<glyph name="dv_VocalicR" format="1">
  <advance width="900"/>
  <unicode hex="090B"/>
  <outline>
    <contour>
      <point x="639" y="96"/>
      <point x="626" y="97"/>
      <point x="592" y="108" type="curve"/>
      <point x="585" y="86"/>
      <point x="579" y="63"/>
      <point x="573" y="41" type="curve"/>
      <point x="606" y="29"/>
      <point x="634" y="25"/>
      <point x="673" y="25" type="curve" smooth="yes"/>
      <point x="780" y="25"/>
      <point x="838" y="99"/>
      <point x="838" y="197" type="curve" smooth="yes"/>
      <point x="838" y="247"/>
      <point x="811" y="340"/>
      <point x="748" y="401" type="curve"/>
      <point x="766" y="418"/>
      <point x="771" y="434"/>
      <point x="771" y="450" type="curve" smooth="yes"/>
      <point x="771" y="498"/>
      <point x="720" y="523"/>
      <point x="678" y="523" type="curve" smooth="yes"/>
      <point x="649" y="523"/>
      <point x="627" y="509"/>
      <point x="627" y="478" type="curve" smooth="yes"/>
      <point x="627" y="449"/>
      <point x="640" y="426"/>
      <point x="652" y="414" type="curve"/>
      <point x="630" y="380"/>
      <point x="578" y="339"/>
      <point x="469" y="339" type="curve"/>
      <point x="469" y="611" type="line"/>
      <point x="911" y="611" type="line"/>
      <point x="895" y="680" type="line"/>
      <point x="-11" y="680" type="line"/>
      <point x="-5" y="657"/>
      <point x="-1" y="634"/>
      <point x="3" y="611" type="curve"/>
      <point x="382" y="611" type="line"/>
      <point x="382" y="385" type="line"/>
      <point x="304" y="480"/>
      <point x="230" y="483"/>
      <point x="168" y="483" type="curve" smooth="yes"/>
      <point x="144" y="483"/>
      <point x="76" y="468"/>
      <point x="43" y="451" type="curve"/>
      <point x="76" y="381" type="line"/>
      <point x="111" y="396"/>
      <point x="150" y="410"/>
      <point x="178" y="410" type="curve" smooth="yes"/>
      <point x="230" y="410"/>
      <point x="282" y="397"/>
      <point x="361" y="307" type="curve"/>
      <point x="87" y="155" type="line"/>
      <point x="132" y="93" type="line"/>
      <point x="382" y="231" type="line"/>
      <point x="382" y="0" type="line"/>
      <point x="469" y="-16" type="line"/>
      <point x="469" y="270" type="line"/>
      <point x="576" y="270"/>
      <point x="661" y="307"/>
      <point x="695" y="356" type="curve"/>
      <point x="736" y="303"/>
      <point x="759" y="257"/>
      <point x="759" y="204" type="curve" smooth="yes"/>
      <point x="759" y="128"/>
      <point x="715" y="96"/>
      <point x="672" y="96" type="curve" smooth="yes"/>
    </contour>
  </outline>
</glyph>
<glyph name="dv_VocalicL" format="1">
  <advance width="868"/>
  <unicode hex="090C"/>
  <outline>
    <contour>
      <point x="644" y="-77"/>
      <point x="611" y="-45"/>
      <point x="611" y="0" type="curve"/>
      <point x="611" y="45"/>
      <point x="644" y="77"/>
      <point x="697" y="77" type="curve"/>
      <point x="752" y="77" type="line"/>
      <point x="752" y="612" type="line"/>
      <point x="879" y="612" type="line"/>
      <point x="864" y="680" type="line"/>
      <point x="-11" y="680" type="line"/>
      <point x="4" y="612" type="line"/>
      <point x="665" y="612" type="line"/>
      <point x="665" y="453" type="line"/>
      <point x="639" y="474"/>
      <point x="603" y="486"/>
      <point x="564" y="486" type="curve"/>
      <point x="503" y="486"/>
      <point x="451" y="460"/>
      <point x="419" y="413" type="curve"/>
      <point x="386" y="459"/>
      <point x="332" y="485"/>
      <point x="267" y="486" type="curve"/>
      <point x="164" y="485"/>
      <point x="78" y="404"/>
      <point x="78" y="314" type="curve"/>
      <point x="78" y="202"/>
      <point x="133" y="108"/>
      <point x="198" y="-20" type="curve"/>
      <point x="268" y="4" type="line"/>
      <point x="199" y="146"/>
      <point x="160" y="212"/>
      <point x="160" y="307" type="curve"/>
      <point x="160" y="361"/>
      <point x="207" y="411"/>
      <point x="267" y="411" type="curve"/>
      <point x="346" y="410"/>
      <point x="379" y="356"/>
      <point x="379" y="273" type="curve"/>
      <point x="380" y="168" type="line"/>
      <point x="463" y="150" type="line"/>
      <point x="463" y="273" type="line" smooth="yes"/>
      <point x="463" y="356"/>
      <point x="498" y="413"/>
      <point x="563" y="413" type="curve"/>
      <point x="629" y="413"/>
      <point x="662" y="362"/>
      <point x="665" y="285" type="curve"/>
      <point x="665" y="142" type="line"/>
      <point x="599" y="133"/>
      <point x="534" y="83"/>
      <point x="534" y="0" type="curve"/>
      <point x="534" y="-90"/>
      <point x="609" y="-144"/>
      <point x="686" y="-144" type="curve"/>
      <point x="715" y="-144"/>
      <point x="743" y="-140"/>
      <point x="772" y="-132" type="curve"/>
      <point x="758" y="-66" type="line"/>
      <point x="733" y="-74"/>
      <point x="717" y="-77"/>
      <point x="697" y="-77" type="curve"/>
    </contour>
  </outline>
</glyph>
<glyph name="dv_CandraE" format="1">
  <advance width="691"/>
  <unicode hex="090D"/>
  <outline>
    <contour>
      <point x="507" y="937" type="line"/>
      <point x="468" y="863"/>
      <point x="415" y="830"/>
      <point x="355" y="830" type="curve"/>
      <point x="294" y="830"/>
      <point x="238" y="864"/>
      <point x="202" y="937" type="curve"/>
      <point x="145" y="901" type="line"/>
      <point x="192" y="807"/>
      <point x="265" y="766"/>
      <point x="355" y="766" type="curve"/>
      <point x="443" y="766"/>
      <point x="517" y="806"/>
      <point x="566" y="901" type="curve"/>
    </contour>
    <contour>
      <point x="493" y="270" type="line"/>
      <point x="493" y="190"/>
      <point x="463" y="164"/>
      <point x="387" y="137" type="curve"/>
      <point x="422" y="72" type="line"/>
      <point x="533" y="108"/>
      <point x="580" y="155"/>
      <point x="580" y="248" type="curve"/>
      <point x="580" y="612" type="line"/>
      <point x="702" y="612" type="line"/>
      <point x="688" y="680" type="line"/>
      <point x="-11" y="680" type="line"/>
      <point x="4" y="612" type="line"/>
      <point x="121" y="612" type="line"/>
      <point x="121" y="140" type="line" smooth="yes"/>
      <point x="121" y="52"/>
      <point x="156" y="2"/>
      <point x="219" y="-34" type="curve"/>
      <point x="472" y="-184" type="line"/>
      <point x="516" y="-120" type="line"/>
      <point x="256" y="42" type="line" smooth="yes"/>
      <point x="219" y="67"/>
      <point x="207" y="108"/>
      <point x="207" y="146" type="curve"/>
      <point x="207" y="612" type="line"/>
      <point x="493" y="612" type="line"/>
    </contour>
  </outline>
</glyph>
<glyph name="dv_ShortE" format="1">
  <advance width="691"/>
  <unicode hex="090E"/>
  <outline>
    <contour>
      <point x="284" y="847" type="line" smooth="yes"/>
      <point x="229" y="847"/>
      <point x="190" y="874"/>
      <point x="190" y="922" type="curve"/>
      <point x="164" y="927"/>
      <point x="137" y="932"/>
      <point x="111" y="938" type="curve"/>
      <point x="111" y="916" type="line" smooth="yes"/>
      <point x="111" y="833"/>
      <point x="181" y="775"/>
      <point x="287" y="775" type="curve" smooth="yes"/>
      <point x="401" y="775" type="line" smooth="yes"/>
      <point x="460" y="775"/>
      <point x="492" y="738"/>
      <point x="492" y="693" type="curve" smooth="yes"/>
      <point x="492" y="680" type="line"/>
      <point x="-11" y="680" type="line"/>
      <point x="-5" y="657"/>
      <point x="-1" y="634"/>
      <point x="3" y="611" type="curve"/>
      <point x="121" y="611" type="line"/>
      <point x="121" y="140" type="line" smooth="yes"/>
      <point x="121" y="45"/>
      <point x="160" y="1"/>
      <point x="231" y="-41" type="curve" smooth="yes"/>
      <point x="472" y="-184" type="line"/>
      <point x="516" y="-119" type="line"/>
      <point x="256" y="42" type="line" smooth="yes"/>
      <point x="219" y="65"/>
      <point x="207" y="109"/>
      <point x="207" y="146" type="curve" smooth="yes"/>
      <point x="207" y="611" type="line"/>
      <point x="493" y="611" type="line"/>
      <point x="493" y="270" type="line" smooth="yes"/>
      <point x="493" y="189"/>
      <point x="462" y="164"/>
      <point x="387" y="137" type="curve"/>
      <point x="398" y="115"/>
      <point x="410" y="94"/>
      <point x="422" y="72" type="curve"/>
      <point x="533" y="107"/>
      <point x="580" y="155"/>
      <point x="580" y="247" type="curve" smooth="yes"/>
      <point x="580" y="611" type="line"/>
      <point x="702" y="611" type="line"/>
      <point x="687" y="680" type="line"/>
      <point x="576" y="680" type="line"/>
      <point x="576" y="702" type="line" smooth="yes"/>
      <point x="576" y="782"/>
      <point x="502" y="847"/>
      <point x="399" y="847" type="curve" smooth="yes"/>
    </contour>
  </outline>
</glyph>
<glyph name="dv_E" format="1">
  <advance width="691"/>
  <unicode hex="090F"/>
  <outline>
    <contour>
      <point x="493" y="270" type="line"/>
      <point x="493" y="190"/>
      <point x="463" y="164"/>
      <point x="387" y="137" type="curve"/>
      <point x="422" y="72" type="line"/>
      <point x="533" y="108"/>
      <point x="580" y="155"/>
      <point x="580" y="248" type="curve"/>
      <point x="580" y="612" type="line"/>
      <point x="702" y="612" type="line"/>
      <point x="688" y="680" type="line"/>
      <point x="-11" y="680" type="line"/>
      <point x="4" y="612" type="line"/>
      <point x="121" y="612" type="line"/>
      <point x="121" y="140" type="line" smooth="yes"/>
      <point x="121" y="52"/>
      <point x="156" y="2"/>
      <point x="219" y="-34" type="curve"/>
      <point x="472" y="-184" type="line"/>
      <point x="516" y="-120" type="line"/>
      <point x="256" y="42" type="line" smooth="yes"/>
      <point x="219" y="67"/>
      <point x="207" y="108"/>
      <point x="207" y="146" type="curve"/>
      <point x="207" y="612" type="line"/>
      <point x="493" y="612" type="line"/>
    </contour>
  </outline>
</glyph>
<glyph name="dv_ShortO" format="1">
  <advance width="1179"/>
  <unicode hex="0912"/>
  <outline>
    <contour>
      <point x="803" y="847" type="line" smooth="yes"/>
      <point x="748" y="847"/>
      <point x="709" y="874"/>
      <point x="709" y="922" type="curve"/>
      <point x="682" y="927"/>
      <point x="655" y="932"/>
      <point x="629" y="938" type="curve"/>
      <point x="629" y="916" type="line" smooth="yes"/>
      <point x="629" y="833"/>
      <point x="700" y="775"/>
      <point x="806" y="775" type="curve" smooth="yes"/>
      <point x="885" y="775" type="line" smooth="yes"/>
      <point x="946" y="775"/>
      <point x="976" y="741"/>
      <point x="976" y="693" type="curve" smooth="yes"/>
      <point x="976" y="680" type="line"/>
      <point x="556" y="680" type="line"/>
      <point x="573" y="611" type="line"/>
      <point x="685" y="611" type="line"/>
      <point x="685" y="382" type="line"/>
      <point x="408" y="382" type="line"/>
      <point x="454" y="411"/>
      <point x="486" y="456"/>
      <point x="486" y="510" type="curve" smooth="yes"/>
      <point x="486" y="605"/>
      <point x="428" y="695"/>
      <point x="280" y="695" type="curve" smooth="yes"/>
      <point x="201" y="695"/>
      <point x="128" y="667"/>
      <point x="79" y="630" type="curve"/>
      <point x="83" y="606"/>
      <point x="87" y="581"/>
      <point x="90" y="557" type="curve"/>
      <point x="147" y="599"/>
      <point x="207" y="624"/>
      <point x="275" y="624" type="curve" smooth="yes"/>
      <point x="359" y="624"/>
      <point x="397" y="568"/>
      <point x="397" y="508" type="curve" smooth="yes"/>
      <point x="397" y="433"/>
      <point x="345" y="381"/>
      <point x="233" y="381" type="curve" smooth="yes"/>
      <point x="135" y="381" type="line"/>
      <point x="142" y="360"/>
      <point x="148" y="339"/>
      <point x="155" y="319" type="curve"/>
      <point x="226" y="319" type="line" smooth="yes"/>
      <point x="369" y="319"/>
      <point x="412" y="263"/>
      <point x="412" y="177" type="curve" smooth="yes"/>
      <point x="412" y="94"/>
      <point x="347" y="55"/>
      <point x="264" y="55" type="curve" smooth="yes"/>
      <point x="195" y="55"/>
      <point x="133" y="77"/>
      <point x="82" y="113" type="curve"/>
      <point x="67" y="41" type="line"/>
      <point x="113" y="10"/>
      <point x="183" y="-15"/>
      <point x="264" y="-15" type="curve" smooth="yes"/>
      <point x="417" y="-15"/>
      <point x="500" y="65"/>
      <point x="500" y="178" type="curve" smooth="yes"/>
      <point x="500" y="237"/>
      <point x="472" y="288"/>
      <point x="422" y="317" type="curve"/>
      <point x="685" y="317" type="line"/>
      <point x="685" y="0" type="line"/>
      <point x="771" y="-16" type="line"/>
      <point x="771" y="611" type="line"/>
      <point x="975" y="611" type="line"/>
      <point x="975" y="0" type="line"/>
      <point x="1062" y="-16" type="line"/>
      <point x="1062" y="611" type="line"/>
      <point x="1190" y="611" type="line"/>
      <point x="1184" y="634"/>
      <point x="1180" y="657"/>
      <point x="1175" y="680" type="curve"/>
      <point x="1060" y="680" type="line"/>
      <point x="1060" y="702" type="line" smooth="yes"/>
      <point x="1060" y="782"/>
      <point x="986" y="847"/>
      <point x="884" y="847" type="curve" smooth="yes"/>
    </contour>
  </outline>
</glyph>
<glyph name="dv_O" format="1">
  <advance width="1179"/>
  <unicode hex="0913"/>
  <outline>
    <contour>
      <point x="556" y="680" type="line"/>
      <point x="573" y="611" type="line"/>
      <point x="685" y="611" type="line"/>
      <point x="685" y="382" type="line"/>
      <point x="408" y="382" type="line"/>
      <point x="456" y="413"/>
      <point x="484" y="463"/>
      <point x="484" y="518" type="curve" smooth="yes"/>
      <point x="484" y="611"/>
      <point x="422" y="695"/>
      <point x="280" y="695" type="curve" smooth="yes"/>
      <point x="201" y="695"/>
      <point x="128" y="667"/>
      <point x="79" y="630" type="curve"/>
      <point x="83" y="606"/>
      <point x="87" y="581"/>
      <point x="90" y="557" type="curve"/>
      <point x="147" y="599"/>
      <point x="207" y="624"/>
      <point x="275" y="624" type="curve" smooth="yes"/>
      <point x="356" y="624"/>
      <point x="394" y="575"/>
      <point x="394" y="516" type="curve" smooth="yes"/>
      <point x="394" y="440"/>
      <point x="350" y="381"/>
      <point x="233" y="381" type="curve" smooth="yes"/>
      <point x="135" y="381" type="line"/>
      <point x="142" y="360"/>
      <point x="148" y="339"/>
      <point x="155" y="319" type="curve"/>
      <point x="226" y="319" type="line" smooth="yes"/>
      <point x="369" y="319"/>
      <point x="412" y="267"/>
      <point x="412" y="181" type="curve" smooth="yes"/>
      <point x="412" y="97"/>
      <point x="347" y="55"/>
      <point x="264" y="55" type="curve" smooth="yes"/>
      <point x="195" y="55"/>
      <point x="133" y="77"/>
      <point x="82" y="113" type="curve"/>
      <point x="67" y="41" type="line"/>
      <point x="113" y="10"/>
      <point x="183" y="-15"/>
      <point x="264" y="-15" type="curve" smooth="yes"/>
      <point x="417" y="-15"/>
      <point x="500" y="69"/>
      <point x="500" y="183" type="curve" smooth="yes"/>
      <point x="500" y="242"/>
      <point x="472" y="288"/>
      <point x="422" y="317" type="curve"/>
      <point x="685" y="317" type="line"/>
      <point x="685" y="0" type="line"/>
      <point x="771" y="-16" type="line"/>
      <point x="771" y="611" type="line"/>
      <point x="975" y="611" type="line"/>
      <point x="975" y="0" type="line"/>
      <point x="1062" y="-16" type="line"/>
      <point x="1062" y="611" type="line"/>
      <point x="1190" y="611" type="line"/>
      <point x="1184" y="634"/>
      <point x="1180" y="657"/>
      <point x="1175" y="680" type="curve"/>
      <point x="1047" y="680" type="line"/>
      <point x="777" y="947" type="line"/>
      <point x="754" y="931"/>
      <point x="732" y="914"/>
      <point x="709" y="899" type="curve"/>
      <point x="788" y="825"/>
      <point x="867" y="753"/>
      <point x="947" y="680" type="curve"/>
    </contour>
  </outline>
</glyph>
<glyph name="dv_Au" format="1">
  <advance width="1179"/>
  <unicode hex="0914"/>
  <outline>
    <contour>
      <point x="1050" y="680" type="line"/>
      <point x="1023" y="792"/>
      <point x="996" y="905"/>
      <point x="968" y="1017" type="curve"/>
      <point x="886" y="990" type="line"/>
      <point x="909" y="922"/>
      <point x="932" y="853"/>
      <point x="954" y="785" type="curve"/>
      <point x="891" y="857"/>
      <point x="840" y="863"/>
      <point x="774" y="863" type="curve" smooth="yes"/>
      <point x="672" y="863" type="line"/>
      <point x="689" y="788" type="line"/>
      <point x="778" y="788" type="line" smooth="yes"/>
      <point x="833" y="789"/>
      <point x="871" y="782"/>
      <point x="929" y="722" type="curve" smooth="yes"/>
      <point x="970" y="680" type="line"/>
      <point x="556" y="680" type="line"/>
      <point x="573" y="611" type="line"/>
      <point x="685" y="611" type="line"/>
      <point x="685" y="382" type="line"/>
      <point x="408" y="382" type="line"/>
      <point x="454" y="411"/>
      <point x="486" y="460"/>
      <point x="486" y="513" type="curve" smooth="yes"/>
      <point x="486" y="609"/>
      <point x="428" y="695"/>
      <point x="280" y="695" type="curve" smooth="yes"/>
      <point x="201" y="695"/>
      <point x="128" y="667"/>
      <point x="79" y="630" type="curve"/>
      <point x="83" y="606"/>
      <point x="87" y="581"/>
      <point x="90" y="557" type="curve"/>
      <point x="147" y="599"/>
      <point x="207" y="624"/>
      <point x="275" y="624" type="curve" smooth="yes"/>
      <point x="359" y="624"/>
      <point x="397" y="572"/>
      <point x="397" y="511" type="curve" smooth="yes"/>
      <point x="397" y="437"/>
      <point x="345" y="381"/>
      <point x="233" y="381" type="curve" smooth="yes"/>
      <point x="135" y="381" type="line"/>
      <point x="142" y="360"/>
      <point x="148" y="339"/>
      <point x="155" y="319" type="curve"/>
      <point x="226" y="319" type="line" smooth="yes"/>
      <point x="369" y="319"/>
      <point x="412" y="267"/>
      <point x="412" y="181" type="curve" smooth="yes"/>
      <point x="412" y="97"/>
      <point x="347" y="55"/>
      <point x="264" y="55" type="curve" smooth="yes"/>
      <point x="195" y="55"/>
      <point x="133" y="77"/>
      <point x="82" y="113" type="curve"/>
      <point x="67" y="41" type="line"/>
      <point x="113" y="10"/>
      <point x="183" y="-15"/>
      <point x="264" y="-15" type="curve" smooth="yes"/>
      <point x="417" y="-15"/>
      <point x="500" y="69"/>
      <point x="500" y="183" type="curve" smooth="yes"/>
      <point x="500" y="242"/>
      <point x="472" y="288"/>
      <point x="422" y="317" type="curve"/>
      <point x="685" y="317" type="line"/>
      <point x="685" y="0" type="line"/>
      <point x="771" y="-16" type="line"/>
      <point x="771" y="611" type="line"/>
      <point x="975" y="611" type="line"/>
      <point x="975" y="0" type="line"/>
      <point x="1062" y="-16" type="line"/>
      <point x="1062" y="611" type="line"/>
      <point x="1190" y="611" type="line"/>
      <point x="1184" y="634"/>
      <point x="1180" y="657"/>
      <point x="1175" y="680" type="curve"/>
    </contour>
  </outline>
</glyph>
<glyph name="dv_Gha" format="1">
  <advance width="704"/>
  <unicode hex="0918"/>
  <outline>
    <contour>
      <point x="502" y="0" type="line"/>
      <point x="588" y="-16" type="line"/>
      <point x="588" y="612" type="line"/>
      <point x="716" y="612" type="line"/>
      <point x="700" y="680" type="line"/>
      <point x="-11" y="680" type="line"/>
      <point x="4" y="612" type="line"/>
      <point x="114" y="612" type="line"/>
      <point x="96" y="591"/>
      <point x="84" y="561"/>
      <point x="84" y="535" type="curve"/>
      <point x="84" y="477"/>
      <point x="114" y="425"/>
      <point x="161" y="404" type="curve"/>
      <point x="104" y="385"/>
      <point x="73" y="325"/>
      <point x="73" y="259" type="curve"/>
      <point x="73" y="162"/>
      <point x="153" y="82"/>
      <point x="283" y="82" type="curve"/>
      <point x="391" y="82"/>
      <point x="459" y="131"/>
      <point x="502" y="193" type="curve"/>
    </contour>
    <contour>
      <point x="215" y="158"/>
      <point x="161" y="201"/>
      <point x="161" y="257" type="curve"/>
      <point x="161" y="318"/>
      <point x="196" y="371"/>
      <point x="303" y="371" type="curve"/>
      <point x="356" y="371" type="line"/>
      <point x="335" y="434" type="line"/>
      <point x="296" y="434" type="line" smooth="yes"/>
      <point x="211" y="434"/>
      <point x="170" y="475"/>
      <point x="170" y="534" type="curve"/>
      <point x="170" y="568"/>
      <point x="187" y="599"/>
      <point x="223" y="612" type="curve"/>
      <point x="502" y="612" type="line"/>
      <point x="502" y="425" type="line"/>
      <point x="498" y="240"/>
      <point x="407" y="158"/>
      <point x="286" y="158" type="curve"/>
    </contour>
  </outline>
</glyph>
<glyph name="dv_Ca" format="1">
  <advance width="709"/>
  <unicode hex="091A"/>
  <outline>
    <contour>
      <point x="506" y="0" type="line"/>
      <point x="592" y="-16" type="line"/>
      <point x="592" y="612" type="line"/>
      <point x="720" y="612" type="line"/>
      <point x="705" y="680" type="line"/>
      <point x="-11" y="680" type="line"/>
      <point x="4" y="612" type="line"/>
      <point x="506" y="612" type="line"/>
      <point x="506" y="272" type="line"/>
      <point x="497" y="207"/>
      <point x="441" y="167"/>
      <point x="366" y="167" type="curve"/>
      <point x="285" y="167"/>
      <point x="228" y="212"/>
      <point x="228" y="287" type="curve"/>
      <point x="228" y="359"/>
      <point x="277" y="405"/>
      <point x="380" y="406" type="curve"/>
      <point x="427" y="407" type="line"/>
      <point x="410" y="478" type="line"/>
      <point x="39" y="478" type="line"/>
      <point x="54" y="406" type="line"/>
      <point x="192" y="406" type="line"/>
      <point x="164" y="376"/>
      <point x="145" y="337"/>
      <point x="145" y="287" type="curve"/>
      <point x="145" y="161"/>
      <point x="242" y="95"/>
      <point x="366" y="95" type="curve"/>
      <point x="421" y="95"/>
      <point x="471" y="109"/>
      <point x="506" y="136" type="curve"/>
    </contour>
  </outline>
</glyph>
<glyph name="dv_Nya" format="1">
  <advance width="760"/>
  <unicode hex="091E"/>
  <outline>
    <contour>
      <point x="138" y="158"/>
      <point x="76" y="183"/>
      <point x="28" y="222" type="curve"/>
      <point x="12" y="146" type="line"/>
      <point x="58" y="114"/>
      <point x="127" y="86"/>
      <point x="208" y="86" type="curve"/>
      <point x="321" y="86"/>
      <point x="409" y="144"/>
      <point x="424" y="261" type="curve"/>
      <point x="558" y="261" type="line"/>
      <point x="558" y="0" type="line"/>
      <point x="644" y="-16" type="line"/>
      <point x="644" y="612" type="line"/>
      <point x="771" y="612" type="line"/>
      <point x="756" y="680" type="line"/>
      <point x="-11" y="680" type="line"/>
      <point x="4" y="612" type="line"/>
      <point x="558" y="612" type="line"/>
      <point x="558" y="329" type="line"/>
      <point x="424" y="329" type="line"/>
      <point x="410" y="451"/>
      <point x="322" y="510"/>
      <point x="208" y="510" type="curve"/>
      <point x="167" y="510"/>
      <point x="124" y="503"/>
      <point x="85" y="490" type="curve"/>
      <point x="104" y="423" type="line"/>
      <point x="136" y="432"/>
      <point x="174" y="439"/>
      <point x="207" y="439" type="curve"/>
      <point x="288" y="439"/>
      <point x="343" y="387"/>
      <point x="343" y="298" type="curve"/>
      <point x="343" y="209"/>
      <point x="288" y="158"/>
      <point x="207" y="158" type="curve"/>
    </contour>
  </outline>
</glyph>
<glyph name="dv_Dda" format="1">
  <advance width="532"/>
  <unicode hex="0921"/>
  <outline>
    <contour>
      <point x="201" y="53"/>
      <point x="128" y="74"/>
      <point x="76" y="110" type="curve"/>
      <point x="61" y="37" type="line"/>
      <point x="105" y="8"/>
      <point x="192" y="-18"/>
      <point x="273" y="-18" type="curve" smooth="yes"/>
      <point x="414" y="-18"/>
      <point x="493" y="59"/>
      <point x="493" y="147" type="curve" smooth="yes"/>
      <point x="493" y="258"/>
      <point x="416" y="314"/>
      <point x="294" y="314" type="curve" smooth="yes"/>
      <point x="211" y="314" type="line" smooth="yes"/>
      <point x="165" y="314"/>
      <point x="134" y="342"/>
      <point x="134" y="380" type="curve" smooth="yes"/>
      <point x="134" y="416"/>
      <point x="168" y="445"/>
      <point x="209" y="445" type="curve" smooth="yes"/>
      <point x="437" y="445" type="line"/>
      <point x="437" y="611" type="line"/>
      <point x="542" y="611" type="line"/>
      <point x="537" y="634"/>
      <point x="533" y="657"/>
      <point x="527" y="680" type="curve"/>
      <point x="-11" y="680" type="line"/>
      <point x="-5" y="657"/>
      <point x="-1" y="634"/>
      <point x="3" y="611" type="curve"/>
      <point x="353" y="611" type="line"/>
      <point x="353" y="517" type="line"/>
      <point x="208" y="517" type="line" smooth="yes"/>
      <point x="119" y="517"/>
      <point x="50" y="466"/>
      <point x="50" y="380" type="curve" smooth="yes"/>
      <point x="50" y="300"/>
      <point x="130" y="243"/>
      <point x="210" y="243" type="curve" smooth="yes"/>
      <point x="303" y="243" type="line" smooth="yes"/>
      <point x="365" y="243"/>
      <point x="405" y="203"/>
      <point x="405" y="148" type="curve" smooth="yes"/>
      <point x="405" y="95"/>
      <point x="358" y="52"/>
      <point x="271" y="52" type="curve"/>
    </contour>
  </outline>
</glyph>
<glyph name="dv_Dha" format="1">
  <advance width="735"/>
  <unicode hex="0927"/>
  <outline>
    <contour>
      <point x="172" y="585"/>
      <point x="218" y="620"/>
      <point x="266" y="620" type="curve" smooth="yes"/>
      <point x="305" y="620"/>
      <point x="335" y="608"/>
      <point x="356" y="587" type="curve"/>
      <point x="395" y="640" type="line"/>
      <point x="377" y="663"/>
      <point x="326" y="694"/>
      <point x="262" y="694" type="curve" smooth="yes"/>
      <point x="153" y="694"/>
      <point x="85" y="620"/>
      <point x="85" y="535" type="curve" smooth="yes"/>
      <point x="85" y="477"/>
      <point x="117" y="423"/>
      <point x="166" y="404" type="curve"/>
      <point x="107" y="387"/>
      <point x="74" y="325"/>
      <point x="74" y="258" type="curve" smooth="yes"/>
      <point x="74" y="156"/>
      <point x="158" y="80"/>
      <point x="299" y="80" type="curve" smooth="yes"/>
      <point x="414" y="80"/>
      <point x="492" y="131"/>
      <point x="532" y="194" type="curve"/>
      <point x="532" y="0" type="line"/>
      <point x="619" y="-16" type="line"/>
      <point x="619" y="611" type="line"/>
      <point x="746" y="611" type="line"/>
      <point x="731" y="680" type="line"/>
      <point x="445" y="680" type="line"/>
      <point x="460" y="611" type="line"/>
      <point x="532" y="611" type="line"/>
      <point x="532" y="450" type="line" smooth="yes"/>
      <point x="532" y="250"/>
      <point x="434" y="157"/>
      <point x="302" y="157" type="curve" smooth="yes"/>
      <point x="224" y="157"/>
      <point x="161" y="197"/>
      <point x="161" y="257" type="curve" smooth="yes"/>
      <point x="161" y="319"/>
      <point x="198" y="371"/>
      <point x="303" y="371" type="curve" smooth="yes"/>
      <point x="358" y="371" type="line"/>
      <point x="349" y="392"/>
      <point x="341" y="413"/>
      <point x="333" y="434" type="curve"/>
      <point x="298" y="434" type="line" smooth="yes"/>
      <point x="212" y="434"/>
      <point x="172" y="474"/>
      <point x="172" y="532" type="curve" smooth="yes"/>
    </contour>
  </outline>
</glyph>
<glyph name="dv_Na" format="1">
  <advance width="613"/>
  <unicode hex="0928"/>
  <outline>
    <contour>
      <point x="410" y="315" type="line"/>
      <point x="410" y="0" type="line"/>
      <point x="497" y="-16" type="line"/>
      <point x="497" y="611" type="line"/>
      <point x="624" y="611" type="line"/>
      <point x="610" y="680" type="line"/>
      <point x="-11" y="680" type="line"/>
      <point x="-5" y="657"/>
      <point x="-1" y="634"/>
      <point x="3" y="611" type="curve"/>
      <point x="410" y="611" type="line"/>
      <point x="410" y="381" type="line"/>
      <point x="79" y="381" type="line" smooth="yes"/>
      <point x="49" y="381"/>
      <point x="35" y="364"/>
      <point x="35" y="339" type="curve" smooth="yes"/>
      <point x="35" y="285"/>
      <point x="95" y="230"/>
      <point x="155" y="230" type="curve" smooth="yes"/>
      <point x="173" y="230"/>
      <point x="186" y="273"/>
      <point x="186" y="315" type="curve"/>
    </contour>
  </outline>
</glyph>
<glyph name="dv_Pa" format="1">
  <advance width="657"/>
  <unicode hex="092A"/>
  <outline>
    <contour>
      <point x="455" y="0" type="line"/>
      <point x="541" y="-16" type="line"/>
      <point x="541" y="612" type="line"/>
      <point x="668" y="612" type="line"/>
      <point x="653" y="680" type="line"/>
      <point x="-11" y="680" type="line"/>
      <point x="4" y="612" type="line"/>
      <point x="96" y="612" type="line"/>
      <point x="96" y="384" type="line" smooth="yes"/>
      <point x="96" y="250"/>
      <point x="185" y="171"/>
      <point x="313" y="171" type="curve"/>
      <point x="368" y="171"/>
      <point x="421" y="189"/>
      <point x="455" y="218" type="curve"/>
    </contour>
    <contour>
      <point x="227" y="244"/>
      <point x="182" y="298"/>
      <point x="182" y="384" type="curve"/>
      <point x="182" y="612" type="line"/>
      <point x="455" y="612" type="line"/>
      <point x="455" y="379" type="line"/>
      <point x="452" y="294"/>
      <point x="402" y="244"/>
      <point x="318" y="244" type="curve"/>
    </contour>
  </outline>
</glyph>
<glyph name="dv_Ma" format="1">
  <advance width="660"/>
  <unicode hex="092E"/>
  <outline>
    <contour>
      <point x="458" y="255" type="line"/>
      <point x="458" y="0" type="line"/>
      <point x="544" y="-16" type="line"/>
      <point x="544" y="611" type="line"/>
      <point x="672" y="611" type="line"/>
      <point x="667" y="634"/>
      <point x="662" y="657"/>
      <point x="656" y="680" type="curve"/>
      <point x="-11" y="680" type="line"/>
      <point x="-5" y="657"/>
      <point x="-1" y="634"/>
      <point x="3" y="611" type="curve"/>
      <point x="120" y="611" type="line"/>
      <point x="120" y="322" type="line"/>
      <point x="89" y="322"/>
      <point x="51" y="306"/>
      <point x="51" y="280" type="curve" smooth="yes"/>
      <point x="51" y="228"/>
      <point x="107" y="171"/>
      <point x="170" y="171" type="curve" smooth="yes"/>
      <point x="192" y="171"/>
      <point x="205" y="194"/>
      <point x="205" y="255" type="curve"/>
    </contour>
    <contour>
      <point x="458" y="611" type="line"/>
      <point x="458" y="322" type="line"/>
      <point x="205" y="322" type="line"/>
      <point x="205" y="611" type="line"/>
    </contour>
  </outline>
</glyph>
